<svg width="1383" height="309" viewBox="0 0 1383 309" fill="none" xmlns="http://www.w3.org/2000/svg">
<g opacity="0.3">
<mask id="path-1-outside-1_303_41254" maskUnits="userSpaceOnUse" x="-2.83168" y="-2.11116" width="1387.78" height="314.388" fill="black">
<rect fill="white" x="-2.83168" y="-2.11116" width="1387.78" height="314.388"/>
<path d="M36.5777 303.027L32.8654 300.671C30.6501 303.157 27.8021 304.74 24.3211 305.42C21.17 306.035 18.1876 305.762 15.374 304.599C12.59 303.393 10.2084 301.424 8.22941 298.691C6.24324 295.922 4.86383 292.558 4.09117 288.601C3.31852 284.644 3.33506 281.027 4.14078 277.75C4.93936 274.437 6.40517 271.717 8.5382 269.588C10.7007 267.417 13.3576 266.023 16.5087 265.408C19.6599 264.792 22.6239 265.069 25.4009 266.239C28.2144 267.401 30.6143 269.367 32.6005 272.137C34.5866 274.906 35.966 278.269 36.7387 282.227C37.683 287.063 37.4508 291.426 36.0419 295.315L40.0719 297.837L36.5777 303.027ZM23.0012 298.66C24.5768 298.352 25.8681 297.758 26.8752 296.876L21.9911 293.779L25.4854 288.589L29.7889 291.343C30.2168 289.054 30.1516 286.48 29.5936 283.622C28.8138 279.628 27.4 276.575 25.3523 274.465C23.3045 272.354 20.7966 271.588 17.8287 272.168C14.8607 272.747 12.8251 274.4 11.7216 277.126C10.6182 279.852 10.4564 283.212 11.2363 287.206C12.0161 291.2 13.4298 294.252 15.4776 296.363C17.5254 298.474 20.0332 299.239 23.0012 298.66ZM62.0964 298.044C57.5529 298.932 53.8587 298.226 51.0137 295.929C48.1615 293.595 46.2597 289.991 45.3082 285.118L40.6938 261.484L47.3991 260.175L51.6595 281.995C52.3391 285.476 53.3525 288.036 54.6995 289.675C56.076 291.27 58.1017 291.806 60.7765 291.284C63.488 290.755 65.1631 289.496 65.8018 287.507C66.4334 285.482 66.4094 282.729 65.7298 279.248L61.4694 257.428L68.1748 256.119L72.7893 279.752C73.7408 284.626 73.3342 288.68 71.5695 291.916C69.7977 295.114 66.64 297.157 62.0964 298.044ZM99.3129 280.451L88.3754 282.586L87.5294 292.28L80.824 293.589L85.019 252.83L91.1748 251.628L110.449 287.805L103.743 289.114L99.3129 280.451ZM96.3522 274.638L90.0715 262.342L88.9323 276.087L96.3522 274.638ZM109.211 248.106L115.916 246.797L122.226 279.115L135.197 276.582L136.399 282.738L116.723 286.58L109.211 248.106ZM135.246 243.023L141.951 241.714L149.463 280.187L142.758 281.497L135.246 243.023ZM158.938 244.788L149.704 246.591L148.502 240.435L173.675 235.52L174.877 241.676L165.643 243.479L171.953 275.796L165.248 277.106L158.938 244.788ZM206.19 229.171L198.833 252.86L202.159 269.899L195.509 271.197L192.182 254.159L176.455 234.977L183.6 233.582L194.322 247.293L199.044 230.566L206.19 229.171ZM212.566 247.44L227.241 244.575L228.249 249.741L213.574 252.607L212.566 247.44ZM254.239 260.529C251.088 261.144 248.105 260.871 245.292 259.708C242.508 258.502 240.126 256.533 238.147 253.8C236.161 251.03 234.782 247.667 234.009 243.71C233.236 239.753 233.253 236.136 234.059 232.859C234.857 229.546 236.323 226.825 238.456 224.697C240.619 222.525 243.275 221.132 246.427 220.516C249.578 219.901 252.542 220.178 255.319 221.348C258.132 222.51 260.532 224.476 262.518 227.245C264.504 230.015 265.884 233.378 266.657 237.335C267.429 241.293 267.416 244.928 266.618 248.241C265.819 251.554 264.335 254.278 262.165 256.414C260.032 258.542 257.39 259.914 254.239 260.529ZM252.919 253.768C255.887 253.189 257.923 251.536 259.026 248.81C260.129 246.084 260.291 242.724 259.511 238.73C258.732 234.737 257.318 231.684 255.27 229.574C253.222 227.463 250.714 226.697 247.747 227.277C244.779 227.856 242.743 229.509 241.64 232.235C240.536 234.961 240.374 238.321 241.154 242.315C241.934 246.309 243.348 249.361 245.395 251.472C247.443 253.582 249.951 254.348 252.919 253.768ZM270.941 216.529L277.812 215.187L295.263 236.771L290.563 212.698L297.268 211.388L304.78 249.862L298.899 251.01L280.158 228.081L285.159 253.693L278.453 255.002L270.941 216.529ZM307.289 209.432L328.89 205.214L330.091 211.37L315.197 214.278L316.967 223.347L328.454 221.104L329.656 227.26L318.169 229.503L320.305 240.44L335.694 237.436L336.896 243.591L314.801 247.905L307.289 209.432ZM384.997 234.998L381.285 232.642C379.069 235.129 376.221 236.712 372.74 237.392C369.589 238.007 366.607 237.733 363.793 236.571C361.009 235.365 358.628 233.395 356.649 230.662C354.663 227.893 353.283 224.53 352.51 220.572C351.738 216.615 351.754 212.998 352.56 209.722C353.359 206.409 354.824 203.688 356.957 201.56C359.12 199.388 361.777 197.994 364.928 197.379C368.079 196.764 371.043 197.041 373.82 198.21C376.634 199.373 379.034 201.339 381.02 204.108C383.006 206.877 384.385 210.241 385.158 214.198C386.102 219.035 385.87 223.397 384.461 227.286L388.491 229.809L384.997 234.998ZM371.42 230.631C372.996 230.324 374.287 229.729 375.294 228.848L370.41 225.75L373.905 220.56L378.208 223.315C378.636 221.025 378.571 218.451 378.013 215.593C377.233 211.599 375.819 208.547 373.772 206.436C371.724 204.326 369.216 203.56 366.248 204.139C363.28 204.719 361.244 206.372 360.141 209.098C359.038 211.824 358.876 215.184 359.656 219.177C360.435 223.171 361.849 226.224 363.897 228.334C365.945 230.445 368.453 231.211 371.42 230.631ZM410.516 230.016C405.972 230.903 402.278 230.198 399.433 227.901C396.581 225.566 394.679 221.963 393.727 217.09L389.113 193.456L395.818 192.147L400.079 213.967C400.758 217.447 401.772 220.007 403.119 221.646C404.495 223.241 406.521 223.778 409.196 223.256C411.907 222.726 413.582 221.467 414.221 219.479C414.853 217.453 414.829 214.7 414.149 211.219L409.889 189.399L416.594 188.09L421.209 211.724C422.16 216.597 421.753 220.652 419.989 223.887C418.217 227.086 415.059 229.129 410.516 230.016ZM447.732 212.422L436.795 214.558L435.949 224.251L429.243 225.561L433.438 184.801L439.594 183.599L458.868 219.776L452.162 221.086L447.732 212.422ZM444.771 206.61L438.491 194.313L437.352 208.058L444.771 206.61ZM457.63 180.078L464.336 178.769L470.646 211.086L483.617 208.554L484.819 214.71L465.142 218.551L457.63 180.078ZM483.665 174.995L490.37 173.685L497.882 212.159L491.177 213.468L483.665 174.995ZM507.357 176.759L498.123 178.562L496.921 172.406L522.094 167.491L523.296 173.647L514.062 175.45L520.372 207.768L513.667 209.077L507.357 176.759ZM554.609 161.143L547.252 184.832L550.579 201.87L543.928 203.168L540.602 186.13L524.874 166.949L532.019 165.553L542.742 179.265L547.464 162.538L554.609 161.143ZM560.985 179.412L575.66 176.546L576.669 181.713L561.994 184.578L560.985 179.412ZM602.658 192.5C599.507 193.116 596.525 192.842 593.711 191.68C590.927 190.473 588.546 188.504 586.567 185.771C584.58 183.002 583.201 179.639 582.428 175.681C581.656 171.724 581.672 168.107 582.478 164.831C583.276 161.518 584.742 158.797 586.875 156.669C589.038 154.497 591.695 153.103 594.846 152.488C597.997 151.873 600.961 152.15 603.738 153.319C606.552 154.482 608.951 156.447 610.938 159.217C612.924 161.986 614.303 165.35 615.076 169.307C615.848 173.264 615.836 176.899 615.037 180.212C614.238 183.526 612.754 186.25 610.585 188.385C608.452 190.513 605.809 191.885 602.658 192.5ZM601.338 185.74C604.306 185.16 606.342 183.508 607.445 180.782C608.549 178.056 608.711 174.696 607.931 170.702C607.151 166.708 605.737 163.656 603.689 161.545C601.642 159.434 599.134 158.669 596.166 159.248C593.198 159.828 591.162 161.48 590.059 164.206C588.955 166.932 588.794 170.292 589.573 174.286C590.353 178.28 591.767 181.332 593.815 183.443C595.863 185.554 598.37 186.319 601.338 185.74ZM619.361 148.5L626.231 147.159L643.682 168.742L638.982 144.669L645.688 143.36L653.199 181.833L647.318 182.982L628.577 160.052L633.578 185.664L626.873 186.974L619.361 148.5ZM655.709 141.403L677.309 137.186L678.511 143.342L663.616 146.25L665.387 155.319L676.874 153.076L678.076 159.231L666.589 161.474L668.724 172.412L684.113 169.407L685.315 175.563L663.221 179.877L655.709 141.403ZM733.416 166.97L729.704 164.614C727.489 167.1 724.641 168.683 721.16 169.363C718.009 169.978 715.026 169.705 712.213 168.542C709.429 167.336 707.047 165.367 705.068 162.634C703.082 159.865 701.702 156.501 700.93 152.544C700.157 148.587 700.174 144.97 700.979 141.693C701.778 138.38 703.244 135.66 705.377 133.531C707.539 131.359 710.196 129.966 713.347 129.351C716.498 128.735 719.463 129.012 722.239 130.182C725.053 131.344 727.453 133.31 729.439 136.08C731.425 138.849 732.805 142.212 733.577 146.17C734.522 151.006 734.289 155.369 732.88 159.258L736.91 161.78L733.416 166.97ZM719.84 162.603C721.415 162.295 722.707 161.701 723.714 160.819L718.83 157.722L722.324 152.532L726.628 155.286C727.055 152.997 726.99 150.423 726.432 147.565C725.652 143.571 724.239 140.518 722.191 138.408C720.143 136.297 717.635 135.531 714.667 136.111C711.699 136.69 709.664 138.343 708.56 141.069C707.457 143.795 707.295 147.155 708.075 151.149C708.855 155.143 710.268 158.195 712.316 160.306C714.364 162.417 716.872 163.182 719.84 162.603ZM758.935 161.987C754.391 162.875 750.697 162.169 747.852 159.872C745 157.538 743.098 153.934 742.147 149.061L737.532 125.427L744.238 124.118L748.498 145.938C749.178 149.419 750.191 151.979 751.538 153.618C752.915 155.213 754.94 155.749 757.615 155.227C760.327 154.698 762.002 153.439 762.64 151.45C763.272 149.425 763.248 146.672 762.568 143.191L758.308 121.371L765.013 120.062L769.628 143.695C770.579 148.569 770.173 152.623 768.408 155.858C766.636 159.057 763.479 161.1 758.935 161.987ZM796.151 144.394L785.214 146.529L784.368 156.223L777.663 157.532L781.858 116.773L788.013 115.571L807.287 151.748L800.582 153.057L796.151 144.394ZM793.191 138.581L786.91 126.285L785.771 140.03L793.191 138.581ZM806.049 112.049L812.755 110.74L819.065 143.058L832.036 140.525L833.238 146.681L813.561 150.523L806.049 112.049ZM832.084 106.966L838.79 105.657L846.302 144.13L839.596 145.44L832.084 106.966ZM855.776 108.731L846.542 110.534L845.341 104.378L870.513 99.4628L871.715 105.619L862.482 107.421L868.792 139.739L862.086 141.048L855.776 108.731ZM903.028 93.1143L895.671 116.803L898.998 133.841L892.348 135.14L889.021 118.102L873.294 98.92L880.439 97.5249L891.161 111.236L895.883 94.5094L903.028 93.1143ZM909.404 111.383L924.079 108.518L925.088 113.684L910.413 116.549L909.404 111.383ZM951.078 124.472C947.926 125.087 944.944 124.813 942.13 123.651C939.346 122.445 936.965 120.475 934.986 117.743C933 114.973 931.62 111.61 930.848 107.653C930.075 103.695 930.091 100.079 930.897 96.8021C931.696 93.489 933.162 90.7684 935.295 88.6402C937.457 86.4682 940.114 85.0745 943.265 84.4593C946.416 83.844 949.38 84.1212 952.157 85.2907C954.971 86.4531 957.371 88.4189 959.357 91.1883C961.343 93.9577 962.722 97.321 963.495 101.278C964.268 105.236 964.255 108.871 963.456 112.184C962.658 115.497 961.173 118.221 959.004 120.357C956.871 122.485 954.229 123.856 951.078 124.472ZM949.758 117.711C952.726 117.132 954.761 115.479 955.865 112.753C956.968 110.027 957.13 106.667 956.35 102.673C955.57 98.6795 954.156 95.6272 952.109 93.5164C950.061 91.4057 947.553 90.6401 944.585 91.2196C941.617 91.7991 939.581 93.4518 938.478 96.1778C937.375 98.9038 937.213 102.264 937.993 106.258C938.772 110.252 940.186 113.304 942.234 115.415C944.282 117.525 946.79 118.291 949.758 117.711ZM967.78 80.4716L974.65 79.1302L992.102 100.714L987.401 76.6405L994.107 75.3313L1001.62 113.805L995.738 114.953L976.996 92.0235L981.997 117.636L975.292 118.945L967.78 80.4716ZM1004.13 73.3747L1025.73 69.1573L1026.93 75.313L1012.04 78.2212L1013.81 87.29L1025.29 85.0471L1026.49 91.2029L1015.01 93.4457L1017.14 104.383L1032.53 101.378L1033.73 107.534L1011.64 111.848L1004.13 73.3747ZM1081.84 98.9413L1078.12 96.5851C1075.91 99.0717 1073.06 100.655 1069.58 101.334C1066.43 101.95 1063.45 101.676 1060.63 100.514C1057.85 99.3076 1055.47 97.3381 1053.49 94.6054C1051.5 91.836 1050.12 88.4727 1049.35 84.5154C1048.58 80.5581 1048.59 76.9413 1049.4 73.6648C1050.2 70.3517 1051.66 67.6311 1053.8 65.5029C1055.96 63.3309 1058.62 61.9372 1061.77 61.322C1064.92 60.7067 1067.88 60.9839 1070.66 62.1534C1073.47 63.3158 1075.87 65.2816 1077.86 68.051C1079.84 70.8204 1081.22 74.1837 1082 78.141C1082.94 82.9777 1082.71 87.3404 1081.3 91.2291L1085.33 93.7516L1081.84 98.9413ZM1068.26 94.5741C1069.83 94.2665 1071.13 93.672 1072.13 92.7906L1067.25 89.6932L1070.74 84.5034L1075.05 87.2577C1075.47 84.968 1075.41 82.3941 1074.85 79.5361C1074.07 75.5422 1072.66 72.4898 1070.61 70.3791C1068.56 68.2684 1066.05 67.5028 1063.09 68.0823C1060.12 68.6618 1058.08 70.3145 1056.98 73.0405C1055.88 75.7665 1055.71 79.1264 1056.49 83.1203C1057.27 87.1142 1058.69 90.1666 1060.74 92.2773C1062.78 94.388 1065.29 95.1536 1068.26 94.5741ZM1107.35 93.9588C1102.81 94.846 1099.12 94.1408 1096.27 91.8434C1093.42 89.5094 1091.52 85.9057 1090.57 81.0324L1085.95 57.3987L1092.66 56.0895L1096.92 77.9095C1097.6 81.3904 1098.61 83.9503 1099.96 85.5892C1101.33 87.1843 1103.36 87.7208 1106.03 87.1985C1108.75 86.6691 1110.42 85.4101 1111.06 83.4215C1111.69 81.3963 1111.67 78.6432 1110.99 75.1622L1106.73 53.3423L1113.43 52.033L1118.05 75.6668C1119 80.5401 1118.59 84.5945 1116.83 87.8299C1115.06 91.0288 1111.9 93.0717 1107.35 93.9588ZM1144.57 76.365L1133.63 78.5005L1132.79 88.1943L1126.08 89.5035L1130.28 48.7442L1136.43 47.5423L1155.71 83.7193L1149 85.0285L1144.57 76.365ZM1141.61 70.5526L1135.33 58.2563L1134.19 72.0013L1141.61 70.5526ZM1154.47 44.0208L1161.17 42.7116L1167.48 75.0293L1180.46 72.4967L1181.66 78.6525L1161.98 82.4943L1154.47 44.0208ZM1180.5 38.9375L1187.21 37.6283L1194.72 76.1018L1188.02 77.411L1180.5 38.9375ZM1204.2 40.7021L1194.96 42.505L1193.76 36.3492L1218.93 31.4343L1220.13 37.59L1210.9 39.3929L1217.21 71.7106L1210.51 73.0199L1204.2 40.7021ZM1251.45 25.0858L1244.09 48.7746L1247.42 65.8129L1240.77 67.1114L1237.44 50.0731L1221.71 30.8914L1228.86 29.4964L1239.58 43.2078L1244.3 26.4809L1251.45 25.0858ZM1257.82 43.3545L1272.5 40.4892L1273.51 45.6557L1258.83 48.5209L1257.82 43.3545ZM1299.5 56.4432C1296.35 57.0585 1293.36 56.7849 1290.55 55.6225C1287.77 54.4163 1285.38 52.4469 1283.41 49.7142C1281.42 46.9448 1280.04 43.5814 1279.27 39.6242C1278.49 35.6669 1278.51 32.05 1279.32 28.7736C1280.12 25.4605 1281.58 22.7398 1283.71 20.6116C1285.88 18.4396 1288.53 17.046 1291.68 16.4307C1294.84 15.8155 1297.8 16.0926 1300.58 17.2622C1303.39 18.4245 1305.79 20.3904 1307.78 23.1598C1309.76 25.9292 1311.14 29.2925 1311.91 33.2498C1312.69 37.207 1312.67 40.8422 1311.88 44.1553C1311.08 47.4684 1309.59 50.1927 1307.42 52.328C1305.29 54.4562 1302.65 55.8279 1299.5 56.4432ZM1298.18 49.6829C1301.14 49.1034 1303.18 47.4506 1304.28 44.7247C1305.39 41.9987 1305.55 38.6388 1304.77 34.6448C1303.99 30.6509 1302.58 27.5986 1300.53 25.4879C1298.48 23.3772 1295.97 22.6116 1293 23.1911C1290.04 23.7706 1288 25.4233 1286.9 28.1493C1285.79 30.8752 1285.63 34.2352 1286.41 38.2291C1287.19 42.223 1288.61 45.2753 1290.65 47.386C1292.7 49.4967 1295.21 50.2623 1298.18 49.6829ZM1316.2 12.443L1323.07 11.1016L1340.52 32.6854L1335.82 8.61197L1342.53 7.30275L1350.04 45.7763L1344.16 46.9245L1325.42 23.995L1330.42 49.6073L1323.71 50.9166L1316.2 12.443ZM1352.55 5.34612L1374.15 1.12872L1375.35 7.28448L1360.45 10.1927L1362.23 19.2614L1373.71 17.0186L1374.91 23.1743L1363.43 25.4172L1365.56 36.3547L1380.95 33.3499L1382.15 39.5056L1360.06 43.8196L1352.55 5.34612Z"/>
</mask>
<path d="M36.5777 303.027L35.5059 304.716L37.1495 305.759L38.2367 304.144L36.5777 303.027ZM32.8654 300.671L33.9371 298.982L32.5024 298.071L31.372 299.34L32.8654 300.671ZM15.374 304.599L14.579 306.435L14.5946 306.441L14.6104 306.448L15.374 304.599ZM8.22941 298.691L6.60417 299.857L6.60957 299.864L8.22941 298.691ZM4.14078 277.75L6.08294 278.228L6.0851 278.219L4.14078 277.75ZM8.5382 269.588L9.95082 271.004L9.9555 271L8.5382 269.588ZM25.4009 266.239L24.6246 268.082L24.6372 268.087L25.4009 266.239ZM32.6005 272.137L30.9752 273.302L30.9752 273.302L32.6005 272.137ZM36.0419 295.315L34.1615 294.633L33.611 296.153L34.9808 297.01L36.0419 295.315ZM40.0719 297.837L41.7309 298.954L42.8858 297.239L41.133 296.142L40.0719 297.837ZM26.8752 296.876L28.1923 298.381L30.2052 296.62L27.9464 295.187L26.8752 296.876ZM21.9911 293.779L20.3321 292.662L19.1841 294.367L20.92 295.468L21.9911 293.779ZM25.4854 288.589L26.5635 286.905L24.9177 285.851L23.8264 287.472L25.4854 288.589ZM29.7889 291.343L28.7108 293.028L31.21 294.627L31.7549 291.711L29.7889 291.343ZM25.3523 274.465L26.7877 273.072L26.7877 273.072L25.3523 274.465ZM11.7216 277.126L9.86776 276.376L9.86776 276.376L11.7216 277.126ZM15.4776 296.363L16.9131 294.97L16.9131 294.97L15.4776 296.363ZM37.6495 301.338L33.9371 298.982L31.7936 302.359L35.5059 304.716L37.6495 301.338ZM31.372 299.34C29.4673 301.478 27.0193 302.855 23.9379 303.457L24.7044 307.383C28.5848 306.625 31.833 304.836 34.3587 302.001L31.372 299.34ZM23.9379 303.457C21.1498 304.002 18.5681 303.755 16.1377 302.751L14.6104 306.448C17.8071 307.769 21.1901 308.069 24.7044 307.383L23.9379 303.457ZM16.1691 302.764C13.7503 301.716 11.642 299.993 9.84926 297.518L6.60957 299.864C8.77491 302.854 11.4296 305.07 14.579 306.435L16.1691 302.764ZM9.85465 297.525C8.06379 295.028 6.78166 291.944 6.05411 288.218L2.12824 288.984C2.94599 293.173 4.42269 296.815 6.60418 299.857L9.85465 297.525ZM6.05411 288.218C5.32641 284.491 5.35875 281.173 6.08292 278.228L2.19865 277.273C1.31136 280.881 1.31063 284.797 2.12824 288.984L6.05411 288.218ZM6.0851 278.219C6.80882 275.217 8.11197 272.839 9.95081 271.004L7.1256 268.173C4.69836 270.594 3.0699 273.658 2.19647 277.282L6.0851 278.219ZM9.9555 271C11.8223 269.125 14.1132 267.913 16.892 267.371L16.1255 263.445C12.602 264.133 9.57911 265.708 7.1209 268.177L9.9555 271ZM16.892 267.371C19.6802 266.826 22.2381 267.077 24.6246 268.082L26.1771 264.396C23.0097 263.062 19.6396 262.759 16.1255 263.445L16.892 267.371ZM24.6372 268.087C27.0653 269.091 29.18 270.799 30.9752 273.302L34.2257 270.971C32.0485 267.935 29.3636 265.712 26.1645 264.391L24.6372 268.087ZM30.9752 273.302C32.7661 275.799 34.0482 278.884 34.7758 282.61L38.7016 281.843C37.8839 277.655 36.4072 274.013 34.2257 270.971L30.9752 273.302ZM34.7758 282.61C35.664 287.159 35.4251 291.146 34.1615 294.633L37.9222 295.996C39.4764 291.706 39.7021 286.967 38.7016 281.843L34.7758 282.61ZM34.9808 297.01L39.0108 299.533L41.133 296.142L37.103 293.619L34.9808 297.01ZM38.4129 296.72L34.9187 301.91L38.2367 304.144L41.7309 298.954L38.4129 296.72ZM23.3844 300.623C25.237 300.261 26.8713 299.537 28.1923 298.381L25.5581 295.371C24.8649 295.978 23.9165 296.443 22.6179 296.697L23.3844 300.623ZM27.9464 295.187L23.0623 292.09L20.92 295.468L25.8041 298.565L27.9464 295.187ZM23.6501 294.896L27.1444 289.706L23.8264 287.472L20.3321 292.662L23.6501 294.896ZM24.4072 290.274L28.7108 293.028L30.8671 289.659L26.5635 286.905L24.4072 290.274ZM31.7549 291.711C32.2391 289.119 32.1513 286.285 31.5565 283.238L27.6307 284.005C28.152 286.675 28.1944 288.988 27.823 290.976L31.7549 291.711ZM31.5565 283.238C30.73 279.005 29.1905 275.549 26.7877 273.072L23.9168 275.857C25.6096 277.602 26.8976 280.251 27.6307 284.005L31.5565 283.238ZM26.7877 273.072C24.2533 270.46 21.0544 269.5 17.4454 270.205L18.2119 274.131C20.5389 273.677 22.3558 274.248 23.9168 275.857L26.7877 273.072ZM17.4454 270.205C13.8365 270.91 11.2334 273.002 9.86776 276.376L13.5755 277.877C14.4167 275.798 15.885 274.585 18.2119 274.131L17.4454 270.205ZM9.86776 276.376C8.57307 279.574 8.44673 283.356 9.27332 287.589L13.1992 286.823C12.4662 283.068 12.6634 280.13 13.5755 277.877L9.86776 276.376ZM9.27332 287.589C10.0999 291.823 11.6394 295.279 14.0421 297.756L16.9131 294.97C15.2203 293.225 13.9322 290.577 13.1992 286.823L9.27332 287.589ZM14.0421 297.756C16.5766 300.368 19.7755 301.327 23.3844 300.623L22.6179 296.697C20.291 297.151 18.4741 296.579 16.9131 294.97L14.0421 297.756ZM51.0137 295.929L49.747 297.477L49.7572 297.485L51.0137 295.929ZM40.6938 261.484L40.3105 259.521L38.3476 259.905L38.7308 261.868L40.6938 261.484ZM47.3991 260.175L49.3621 259.792L48.9788 257.829L47.0159 258.212L47.3991 260.175ZM54.6995 289.675L53.1544 290.945L53.1696 290.963L53.1853 290.981L54.6995 289.675ZM65.8018 287.507L67.706 288.119L67.7086 288.111L67.7111 288.103L65.8018 287.507ZM61.4694 257.428L61.0862 255.465L59.1233 255.848L59.5065 257.811L61.4694 257.428ZM68.1748 256.119L70.1378 255.735L69.7545 253.772L67.7916 254.156L68.1748 256.119ZM71.5695 291.916L73.3191 292.885L73.3253 292.873L71.5695 291.916ZM61.7132 296.082C57.5826 296.888 54.5378 296.204 52.2702 294.373L49.7572 297.485C53.1795 300.249 57.5232 300.975 62.4797 300.007L61.7132 296.082ZM52.2803 294.381C49.8971 292.431 48.1644 289.31 47.2711 284.735L43.3453 285.501C44.355 290.673 46.426 294.759 49.747 297.477L52.2803 294.381ZM47.2711 284.735L42.6567 261.101L38.7308 261.868L43.3453 285.501L47.2711 284.735ZM41.077 263.447L47.7824 262.138L47.0159 258.212L40.3105 259.521L41.077 263.447ZM45.4362 260.558L49.6965 282.378L53.6224 281.612L49.3621 259.792L45.4362 260.558ZM49.6965 282.378C50.4021 285.992 51.4998 288.932 53.1544 290.945L56.2446 288.405C55.2051 287.14 54.2761 284.96 53.6224 281.612L49.6965 282.378ZM53.1853 290.981C55.1704 293.282 58.019 293.86 61.1598 293.247L60.3932 289.321C58.1844 289.752 56.9816 289.258 56.2136 288.368L53.1853 290.981ZM61.1598 293.247C64.3206 292.63 66.7723 291.026 67.706 288.119L63.8977 286.895C63.5539 287.966 62.6553 288.88 60.3932 289.321L61.1598 293.247ZM67.7111 288.103C68.4869 285.615 68.3983 282.478 67.6927 278.865L63.7668 279.631C64.4205 282.979 64.3799 285.349 63.8925 286.912L67.7111 288.103ZM67.6927 278.865L63.4324 257.045L59.5065 257.811L63.7668 279.631L67.6927 278.865ZM61.8527 259.391L68.5581 258.082L67.7916 254.156L61.0862 255.465L61.8527 259.391ZM66.2119 256.502L70.8264 280.136L74.7522 279.369L70.1378 255.735L66.2119 256.502ZM70.8264 280.136C71.7196 284.711 71.2883 288.254 69.8137 290.958L73.3253 292.873C75.3802 289.106 75.762 284.541 74.7522 279.369L70.8264 280.136ZM69.82 290.946C68.4077 293.496 65.8438 295.275 61.7132 296.082L62.4797 300.007C67.4362 299.04 71.1877 296.733 73.3191 292.885L69.82 290.946ZM99.3129 280.451L101.094 279.54L100.408 278.199L98.9296 278.488L99.3129 280.451ZM88.3754 282.586L87.9922 280.623L86.514 280.912L86.383 282.412L88.3754 282.586ZM87.5294 292.28L87.9126 294.243L89.3908 293.954L89.5218 292.454L87.5294 292.28ZM80.824 293.589L78.8345 293.384L78.5582 296.069L81.2073 295.552L80.824 293.589ZM85.019 252.83L84.6358 250.867L83.1812 251.151L83.0295 252.625L85.019 252.83ZM91.1748 251.628L92.9399 250.688L92.244 249.381L90.7915 249.665L91.1748 251.628ZM110.449 287.805L110.832 289.768L113.485 289.25L112.214 286.865L110.449 287.805ZM103.743 289.114L101.963 290.025L102.648 291.366L104.126 291.077L103.743 289.114ZM96.3522 274.638L96.7355 276.601L99.3408 276.092L98.1333 273.728L96.3522 274.638ZM90.0715 262.342L91.8526 261.432L88.6583 255.178L88.0783 262.177L90.0715 262.342ZM88.9323 276.087L86.9391 275.922L86.7208 278.557L89.3156 278.05L88.9323 276.087ZM98.9296 278.488L87.9922 280.623L88.7587 284.549L99.6962 282.414L98.9296 278.488ZM86.383 282.412L85.5369 292.106L89.5218 292.454L90.3679 282.76L86.383 282.412ZM87.1461 290.317L80.4407 291.626L81.2073 295.552L87.9126 294.243L87.1461 290.317ZM82.8135 293.794L87.0085 253.035L83.0295 252.625L78.8345 293.384L82.8135 293.794ZM85.4023 254.793L91.558 253.591L90.7915 249.665L84.6358 250.867L85.4023 254.793ZM89.4097 252.568L108.683 288.745L112.214 286.865L92.9399 250.688L89.4097 252.568ZM110.065 285.842L103.36 287.151L104.126 291.077L110.832 289.768L110.065 285.842ZM105.524 288.204L101.094 279.54L97.5322 281.361L101.963 290.025L105.524 288.204ZM98.1333 273.728L91.8526 261.432L88.2903 263.252L94.5711 275.548L98.1333 273.728ZM88.0783 262.177L86.9391 275.922L90.9255 276.252L92.0646 262.507L88.0783 262.177ZM89.3156 278.05L96.7355 276.601L95.9689 272.675L88.549 274.124L89.3156 278.05ZM109.211 248.106L108.828 246.143L106.865 246.527L107.248 248.49L109.211 248.106ZM115.916 246.797L117.879 246.414L117.496 244.451L115.533 244.834L115.916 246.797ZM122.226 279.115L120.263 279.498L120.647 281.461L122.61 281.078L122.226 279.115ZM135.197 276.582L137.16 276.199L136.777 274.236L134.814 274.619L135.197 276.582ZM136.399 282.738L136.783 284.701L138.746 284.318L138.362 282.355L136.399 282.738ZM116.723 286.58L114.76 286.963L115.143 288.926L117.106 288.543L116.723 286.58ZM109.594 250.069L116.3 248.76L115.533 244.834L108.828 246.143L109.594 250.069ZM113.953 247.18L120.263 279.498L124.189 278.732L117.879 246.414L113.953 247.18ZM122.61 281.078L135.581 278.545L134.814 274.619L121.843 277.152L122.61 281.078ZM133.234 276.966L134.436 283.121L138.362 282.355L137.16 276.199L133.234 276.966ZM136.016 280.775L116.34 284.617L117.106 288.543L136.783 284.701L136.016 280.775ZM118.686 286.197L111.174 247.723L107.248 248.49L114.76 286.963L118.686 286.197ZM135.246 243.023L134.863 241.06L132.9 241.443L133.283 243.406L135.246 243.023ZM141.951 241.714L143.914 241.331L143.531 239.368L141.568 239.751L141.951 241.714ZM149.463 280.187L149.846 282.15L151.809 281.767L151.426 279.804L149.463 280.187ZM142.758 281.497L140.795 281.88L141.178 283.843L143.141 283.46L142.758 281.497ZM135.629 244.986L142.334 243.677L141.568 239.751L134.863 241.06L135.629 244.986ZM139.988 242.097L147.5 280.571L151.426 279.804L143.914 241.331L139.988 242.097ZM149.08 278.224L142.374 279.534L143.141 283.46L149.846 282.15L149.08 278.224ZM144.721 281.113L137.209 242.64L133.283 243.406L140.795 281.88L144.721 281.113ZM158.938 244.788L160.901 244.404L160.517 242.442L158.554 242.825L158.938 244.788ZM149.704 246.591L147.741 246.974L148.124 248.937L150.087 248.554L149.704 246.591ZM148.502 240.435L148.119 238.472L146.156 238.855L146.539 240.818L148.502 240.435ZM173.675 235.52L175.638 235.137L175.254 233.174L173.291 233.557L173.675 235.52ZM174.877 241.676L175.26 243.639L177.223 243.255L176.84 241.292L174.877 241.676ZM165.643 243.479L165.26 241.516L163.297 241.899L163.68 243.862L165.643 243.479ZM171.953 275.796L172.336 277.759L174.299 277.376L173.916 275.413L171.953 275.796ZM165.248 277.106L163.285 277.489L163.668 279.452L165.631 279.068L165.248 277.106ZM158.554 242.825L149.321 244.628L150.087 248.554L159.321 246.751L158.554 242.825ZM151.667 246.207L150.465 240.052L146.539 240.818L147.741 246.974L151.667 246.207ZM148.885 242.398L174.058 237.483L173.291 233.557L148.119 238.472L148.885 242.398ZM171.712 235.903L172.914 242.059L176.84 241.292L175.638 235.137L171.712 235.903ZM174.493 239.713L165.26 241.516L166.026 245.441L175.26 243.639L174.493 239.713ZM163.68 243.862L169.99 276.18L173.916 275.413L167.606 243.095L163.68 243.862ZM171.57 273.833L164.864 275.143L165.631 279.068L172.336 277.759L171.57 273.833ZM167.211 276.722L160.901 244.404L156.975 245.171L163.285 277.489L167.211 276.722ZM206.19 229.171L208.1 229.765L209.093 226.567L205.806 227.208L206.19 229.171ZM198.833 252.86L196.923 252.267L196.773 252.749L196.87 253.243L198.833 252.86ZM202.159 269.899L202.543 271.861L204.506 271.478L204.122 269.515L202.159 269.899ZM195.509 271.197L193.546 271.58L193.929 273.543L195.892 273.16L195.509 271.197ZM192.182 254.159L194.145 253.775L194.049 253.281L193.729 252.891L192.182 254.159ZM176.455 234.977L176.072 233.014L172.785 233.656L174.908 236.245L176.455 234.977ZM183.6 233.582L185.176 232.35L184.42 231.384L183.217 231.619L183.6 233.582ZM194.322 247.293L192.747 248.525L195.176 251.632L196.247 247.837L194.322 247.293ZM199.044 230.566L198.661 228.604L197.454 228.839L197.12 230.023L199.044 230.566ZM204.28 228.578L196.923 252.267L200.743 253.453L208.1 229.765L204.28 228.578ZM196.87 253.243L200.196 270.282L204.122 269.515L200.796 252.477L196.87 253.243ZM201.776 267.936L195.126 269.234L195.892 273.16L202.543 271.861L201.776 267.936ZM197.472 270.814L194.145 253.775L190.219 254.542L193.546 271.58L197.472 270.814ZM193.729 252.891L178.002 233.709L174.908 236.245L190.636 255.427L193.729 252.891ZM176.838 236.94L183.983 235.545L183.217 231.619L176.072 233.014L176.838 236.94ZM182.025 234.814L192.747 248.525L195.898 246.061L185.176 232.35L182.025 234.814ZM196.247 247.837L200.969 231.11L197.12 230.023L192.398 246.75L196.247 247.837ZM199.428 232.529L206.573 231.134L205.806 227.208L198.661 228.604L199.428 232.529ZM212.566 247.44L212.182 245.477L210.219 245.86L210.603 247.823L212.566 247.44ZM227.241 244.575L229.203 244.192L228.82 242.229L226.857 242.612L227.241 244.575ZM228.249 249.741L228.633 251.704L230.596 251.321L230.212 249.358L228.249 249.741ZM213.574 252.607L211.611 252.99L211.995 254.953L213.958 254.57L213.574 252.607ZM212.949 249.403L227.624 246.538L226.857 242.612L212.182 245.477L212.949 249.403ZM225.278 244.958L226.286 250.125L230.212 249.358L229.203 244.192L225.278 244.958ZM227.866 247.778L213.191 250.644L213.958 254.57L228.633 251.704L227.866 247.778ZM215.537 252.223L214.529 247.057L210.603 247.823L211.611 252.99L215.537 252.223ZM245.292 259.708L244.497 261.543L244.512 261.55L244.528 261.557L245.292 259.708ZM238.147 253.8L236.522 254.965L236.527 254.973L238.147 253.8ZM234.059 232.859L236.001 233.337L236.003 233.328L234.059 232.859ZM238.456 224.697L239.869 226.113L239.873 226.108L238.456 224.697ZM255.319 221.348L254.542 223.191L254.555 223.196L255.319 221.348ZM262.518 227.245L260.893 228.411L260.893 228.411L262.518 227.245ZM266.618 248.241L268.562 248.71L266.618 248.241ZM262.165 256.414L260.762 254.988L260.753 254.998L262.165 256.414ZM259.026 248.81L260.88 249.561L260.88 249.561L259.026 248.81ZM255.27 229.574L256.706 228.181L256.706 228.181L255.27 229.574ZM241.64 232.235L239.786 231.484L239.786 231.484L241.64 232.235ZM245.395 251.472L246.831 250.079L246.831 250.079L245.395 251.472ZM253.856 258.566C251.068 259.11 248.486 258.864 246.056 257.86L244.528 261.557C247.725 262.877 251.108 263.178 254.622 262.492L253.856 258.566ZM246.087 257.873C243.668 256.825 241.56 255.102 239.767 252.627L236.527 254.973C238.693 257.963 241.347 260.179 244.497 261.543L246.087 257.873ZM239.773 252.634C237.982 250.137 236.7 247.053 235.972 243.327L232.046 244.093C232.864 248.281 234.341 251.924 236.522 254.965L239.773 252.634ZM235.972 243.327C235.244 239.6 235.277 236.282 236.001 233.337L232.117 232.382C231.229 235.99 231.228 239.906 232.046 244.093L235.972 243.327ZM236.003 233.328C236.727 230.325 238.03 227.948 239.869 226.113L237.043 223.281C234.616 225.703 232.988 228.767 232.114 232.391L236.003 233.328ZM239.873 226.108C241.74 224.233 244.031 223.022 246.81 222.479L246.043 218.553C242.52 219.241 239.497 220.817 237.039 223.286L239.873 226.108ZM246.81 222.479C249.598 221.935 252.156 222.186 254.542 223.191L256.095 219.505C252.928 218.171 249.557 217.867 246.043 218.553L246.81 222.479ZM254.555 223.196C256.983 224.199 259.098 225.908 260.893 228.411L264.144 226.08C261.966 223.044 259.281 220.821 256.082 219.499L254.555 223.196ZM260.893 228.411C262.684 230.908 263.966 233.992 264.694 237.719L268.619 236.952C267.802 232.764 266.325 229.122 264.144 226.08L260.893 228.411ZM264.694 237.719C265.421 241.445 265.393 244.785 264.673 247.772L268.562 248.71C269.439 245.071 269.437 241.14 268.619 236.952L264.694 237.719ZM264.673 247.772C263.952 250.767 262.635 253.145 260.762 254.988L263.568 257.839C266.035 255.411 267.687 252.341 268.562 248.71L264.673 247.772ZM260.753 254.998C258.92 256.827 256.644 258.021 253.856 258.566L254.622 262.492C258.136 261.806 261.145 260.257 263.578 257.829L260.753 254.998ZM253.302 255.731C256.911 255.027 259.514 252.935 260.88 249.561L257.172 248.06C256.331 250.138 254.863 251.351 252.536 251.806L253.302 255.731ZM260.88 249.561C262.175 246.362 262.301 242.581 261.474 238.347L257.549 239.114C258.282 242.868 258.084 245.806 257.172 248.06L260.88 249.561ZM261.474 238.347C260.648 234.114 259.108 230.658 256.706 228.181L253.835 230.966C255.527 232.711 256.816 235.359 257.549 239.114L261.474 238.347ZM256.706 228.181C254.171 225.569 250.972 224.609 247.363 225.314L248.13 229.24C250.457 228.785 252.274 229.357 253.835 230.966L256.706 228.181ZM247.363 225.314C243.754 226.018 241.151 228.111 239.786 231.484L243.493 232.985C244.335 230.907 245.803 229.694 248.13 229.24L247.363 225.314ZM239.786 231.484C238.491 234.683 238.365 238.464 239.191 242.698L243.117 241.931C242.384 238.177 242.581 235.239 243.493 232.985L239.786 231.484ZM239.191 242.698C240.018 246.931 241.557 250.388 243.96 252.864L246.831 250.079C245.138 248.334 243.85 245.686 243.117 241.931L239.191 242.698ZM243.96 252.864C246.494 255.477 249.693 256.436 253.302 255.731L252.536 251.806C250.209 252.26 248.392 251.688 246.831 250.079L243.96 252.864ZM270.941 216.529L270.558 214.566L268.595 214.949L268.978 216.912L270.941 216.529ZM277.812 215.187L279.367 213.93L278.61 212.994L277.428 213.224L277.812 215.187ZM295.263 236.771L293.708 238.029L297.226 236.388L295.263 236.771ZM290.563 212.698L290.18 210.735L288.217 211.118L288.6 213.081L290.563 212.698ZM297.268 211.388L299.231 211.005L298.848 209.042L296.885 209.425L297.268 211.388ZM304.78 249.862L305.163 251.825L307.126 251.442L306.743 249.479L304.78 249.862ZM298.899 251.01L297.351 252.276L298.108 253.202L299.283 252.973L298.899 251.01ZM280.158 228.081L281.706 226.815L278.195 228.464L280.158 228.081ZM285.159 253.693L285.542 255.656L287.505 255.273L287.122 253.31L285.159 253.693ZM278.453 255.002L276.49 255.385L276.874 257.348L278.837 256.965L278.453 255.002ZM271.325 218.492L278.195 217.15L277.428 213.224L270.558 214.566L271.325 218.492ZM276.256 216.445L293.708 238.029L296.818 235.514L279.367 213.93L276.256 216.445ZM297.226 236.388L292.526 212.314L288.6 213.081L293.3 237.154L297.226 236.388ZM290.946 214.661L297.652 213.351L296.885 209.425L290.18 210.735L290.946 214.661ZM295.305 211.772L302.817 250.245L306.743 249.479L299.231 211.005L295.305 211.772ZM304.397 247.899L298.516 249.047L299.283 252.973L305.163 251.825L304.397 247.899ZM300.448 249.744L281.706 226.815L278.609 229.346L297.351 252.276L300.448 249.744ZM278.195 228.464L283.196 254.076L287.122 253.31L282.121 227.697L278.195 228.464ZM284.775 251.73L278.07 253.039L278.837 256.965L285.542 255.656L284.775 251.73ZM280.416 254.619L272.904 216.145L268.978 216.912L276.49 255.385L280.416 254.619ZM307.289 209.432L306.906 207.469L304.943 207.852L305.326 209.815L307.289 209.432ZM328.89 205.214L330.852 204.831L330.469 202.868L328.506 203.251L328.89 205.214ZM330.091 211.37L330.475 213.333L332.438 212.95L332.054 210.987L330.091 211.37ZM315.197 214.278L314.813 212.315L312.851 212.699L313.234 214.662L315.197 214.278ZM316.967 223.347L315.004 223.73L315.388 225.693L317.351 225.31L316.967 223.347ZM328.454 221.104L330.417 220.721L330.034 218.758L328.071 219.141L328.454 221.104ZM329.656 227.26L330.04 229.223L332.003 228.84L331.619 226.877L329.656 227.26ZM318.169 229.503L317.786 227.54L315.823 227.923L316.206 229.886L318.169 229.503ZM320.305 240.44L318.342 240.824L318.725 242.786L320.688 242.403L320.305 240.44ZM335.694 237.436L337.657 237.052L337.274 235.089L335.311 235.473L335.694 237.436ZM336.896 243.591L337.279 245.554L339.242 245.171L338.859 243.208L336.896 243.591ZM314.801 247.905L312.838 248.289L313.222 250.251L315.185 249.868L314.801 247.905ZM307.673 211.395L329.273 207.177L328.506 203.251L306.906 207.469L307.673 211.395ZM326.927 205.598L328.129 211.753L332.054 210.987L330.852 204.831L326.927 205.598ZM329.708 209.407L314.813 212.315L315.58 216.241L330.475 213.333L329.708 209.407ZM313.234 214.662L315.004 223.73L318.93 222.964L317.16 213.895L313.234 214.662ZM317.351 225.31L328.838 223.067L328.071 219.141L316.584 221.384L317.351 225.31ZM326.492 221.487L327.693 227.643L331.619 226.877L330.417 220.721L326.492 221.487ZM329.273 225.297L317.786 227.54L318.553 231.466L330.04 229.223L329.273 225.297ZM316.206 229.886L318.342 240.824L322.268 240.057L320.132 229.12L316.206 229.886ZM320.688 242.403L336.077 239.398L335.311 235.473L319.922 238.477L320.688 242.403ZM333.731 237.819L334.933 243.975L338.859 243.208L337.657 237.052L333.731 237.819ZM336.513 241.628L314.418 245.942L315.185 249.868L337.279 245.554L336.513 241.628ZM316.764 247.522L309.252 209.048L305.326 209.815L312.838 248.289L316.764 247.522ZM384.997 234.998L383.925 236.687L385.569 237.73L386.656 236.115L384.997 234.998ZM381.285 232.642L382.356 230.954L380.922 230.043L379.791 231.312L381.285 232.642ZM363.793 236.571L362.998 238.406L363.014 238.413L363.03 238.419L363.793 236.571ZM356.649 230.662L355.023 231.828L355.029 231.836L356.649 230.662ZM352.56 209.722L354.502 210.2L354.504 210.191L352.56 209.722ZM356.957 201.56L358.37 202.976L358.375 202.971L356.957 201.56ZM373.82 198.21L373.044 200.054L373.056 200.059L373.82 198.21ZM381.02 204.108L379.395 205.274L379.395 205.274L381.02 204.108ZM384.461 227.286L382.581 226.605L382.03 228.124L383.4 228.981L384.461 227.286ZM388.491 229.809L390.15 230.926L391.305 229.21L389.552 228.113L388.491 229.809ZM375.294 228.848L376.612 230.353L378.624 228.591L376.366 227.159L375.294 228.848ZM370.41 225.75L368.751 224.633L367.603 226.338L369.339 227.439L370.41 225.75ZM373.905 220.56L374.983 218.876L373.337 217.823L372.246 219.443L373.905 220.56ZM378.208 223.315L377.13 224.999L379.629 226.599L380.174 223.682L378.208 223.315ZM373.772 206.436L375.207 205.044L375.207 205.044L373.772 206.436ZM360.141 209.098L358.287 208.347L358.287 208.347L360.141 209.098ZM363.897 228.334L365.332 226.942L365.332 226.942L363.897 228.334ZM386.069 233.31L382.356 230.954L380.213 234.331L383.925 236.687L386.069 233.31ZM379.791 231.312C377.887 233.45 375.439 234.827 372.357 235.429L373.124 239.354C377.004 238.597 380.252 236.808 382.778 233.973L379.791 231.312ZM372.357 235.429C369.569 235.973 366.987 235.726 364.557 234.722L363.03 238.419C366.226 239.74 369.609 240.041 373.124 239.354L372.357 235.429ZM364.588 234.736C362.17 233.688 360.061 231.965 358.269 229.489L355.029 231.836C357.194 234.826 359.849 237.042 362.998 238.406L364.588 234.736ZM358.274 229.497C356.483 227 355.201 223.916 354.473 220.189L350.548 220.956C351.365 225.144 352.842 228.786 355.023 231.828L358.274 229.497ZM354.473 220.189C353.746 216.462 353.778 213.144 354.502 210.199L350.618 209.244C349.731 212.852 349.73 216.768 350.548 220.956L354.473 220.189ZM354.504 210.191C355.228 207.188 356.531 204.81 358.37 202.976L355.545 200.144C353.118 202.566 351.489 205.63 350.616 209.253L354.504 210.191ZM358.375 202.971C360.242 201.096 362.532 199.885 365.311 199.342L364.545 195.416C361.021 196.104 357.998 197.68 355.54 200.149L358.375 202.971ZM365.311 199.342C368.099 198.798 370.657 199.049 373.044 200.054L374.596 196.367C371.429 195.033 368.059 194.73 364.545 195.416L365.311 199.342ZM373.056 200.059C375.485 201.062 377.599 202.771 379.395 205.274L382.645 202.943C380.468 199.907 377.783 197.684 374.584 196.362L373.056 200.059ZM379.395 205.274C381.185 207.771 382.467 210.855 383.195 214.581L387.121 213.815C386.303 209.627 384.826 205.984 382.645 202.943L379.395 205.274ZM383.195 214.581C384.083 219.131 383.844 223.117 382.581 226.605L386.342 227.967C387.896 223.678 388.121 218.939 387.121 213.815L383.195 214.581ZM383.4 228.981L387.43 231.504L389.552 228.113L385.522 225.591L383.4 228.981ZM386.832 228.692L383.338 233.881L386.656 236.115L390.15 230.926L386.832 228.692ZM371.804 232.594C373.656 232.232 375.291 231.509 376.612 230.353L373.977 227.343C373.284 227.949 372.336 228.415 371.037 228.668L371.804 232.594ZM376.366 227.159L371.482 224.061L369.339 227.439L374.223 230.537L376.366 227.159ZM372.069 226.867L375.564 221.677L372.246 219.443L368.751 224.633L372.069 226.867ZM372.827 222.245L377.13 224.999L379.286 221.63L374.983 218.876L372.827 222.245ZM380.174 223.682C380.658 221.091 380.571 218.256 379.976 215.21L376.05 215.976C376.571 218.646 376.614 220.959 376.242 222.948L380.174 223.682ZM379.976 215.21C379.149 210.976 377.61 207.52 375.207 205.044L372.336 207.829C374.029 209.574 375.317 212.222 376.05 215.976L379.976 215.21ZM375.207 205.044C372.673 202.431 369.474 201.472 365.865 202.176L366.631 206.102C368.958 205.648 370.775 206.22 372.336 207.829L375.207 205.044ZM365.865 202.176C362.256 202.881 359.653 204.973 358.287 208.347L361.995 209.848C362.836 207.77 364.304 206.557 366.631 206.102L365.865 202.176ZM358.287 208.347C356.992 211.546 356.866 215.327 357.693 219.561L361.618 218.794C360.885 215.04 361.083 212.101 361.995 209.848L358.287 208.347ZM357.693 219.561C358.519 223.794 360.059 227.25 362.461 229.727L365.332 226.942C363.64 225.197 362.351 222.548 361.618 218.794L357.693 219.561ZM362.461 229.727C364.996 232.339 368.195 233.299 371.804 232.594L371.037 228.668C368.71 229.123 366.893 228.551 365.332 226.942L362.461 229.727ZM399.433 227.901L398.166 229.448L398.176 229.457L399.433 227.901ZM389.113 193.456L388.73 191.493L386.767 191.876L387.15 193.839L389.113 193.456ZM395.818 192.147L397.781 191.763L397.398 189.8L395.435 190.184L395.818 192.147ZM403.119 221.646L401.574 222.916L401.589 222.935L401.605 222.953L403.119 221.646ZM414.221 219.479L416.125 220.09L416.128 220.082L416.13 220.074L414.221 219.479ZM409.889 189.399L409.505 187.436L407.543 187.82L407.926 189.783L409.889 189.399ZM416.594 188.09L418.557 187.707L418.174 185.744L416.211 186.127L416.594 188.09ZM419.989 223.887L421.738 224.856L421.745 224.845L419.989 223.887ZM410.132 228.053C406.002 228.859 402.957 228.176 400.689 226.345L398.176 229.457C401.599 232.22 405.943 232.947 410.899 231.979L410.132 228.053ZM400.7 226.353C398.316 224.402 396.584 221.281 395.69 216.706L391.765 217.473C392.774 222.644 394.845 226.731 398.166 229.448L400.7 226.353ZM395.69 216.706L391.076 193.073L387.15 193.839L391.765 217.473L395.69 216.706ZM389.496 195.419L396.202 194.109L395.435 190.184L388.73 191.493L389.496 195.419ZM393.855 192.53L398.116 214.35L402.042 213.583L397.781 191.763L393.855 192.53ZM398.116 214.35C398.821 217.964 399.919 220.903 401.574 222.916L404.664 220.376C403.624 219.112 402.695 216.931 402.042 213.583L398.116 214.35ZM401.605 222.953C403.59 225.253 406.438 225.832 409.579 225.219L408.813 221.293C406.604 221.724 405.401 221.23 404.633 220.34L401.605 222.953ZM409.579 225.219C412.74 224.601 415.192 222.997 416.125 220.09L412.317 218.867C411.973 219.937 411.075 220.851 408.813 221.293L409.579 225.219ZM416.13 220.074C416.906 217.586 416.818 214.45 416.112 210.836L412.186 211.603C412.84 214.951 412.799 217.32 412.312 218.883L416.13 220.074ZM416.112 210.836L411.852 189.016L407.926 189.783L412.186 211.603L416.112 210.836ZM410.272 191.362L416.977 190.053L416.211 186.127L409.505 187.436L410.272 191.362ZM414.631 188.473L419.246 212.107L423.171 211.341L418.557 187.707L414.631 188.473ZM419.246 212.107C420.139 216.682 419.708 220.226 418.233 222.929L421.745 224.845C423.799 221.077 424.181 216.512 423.171 211.341L419.246 212.107ZM418.239 222.918C416.827 225.468 414.263 227.246 410.132 228.053L410.899 231.979C415.855 231.011 419.607 228.704 421.738 224.856L418.239 222.918ZM447.732 212.422L449.513 211.511L448.827 210.17L447.349 210.459L447.732 212.422ZM436.795 214.558L436.411 212.595L434.933 212.883L434.802 214.384L436.795 214.558ZM435.949 224.251L436.332 226.214L437.81 225.926L437.941 224.425L435.949 224.251ZM429.243 225.561L427.254 225.356L426.977 228.041L429.627 227.524L429.243 225.561ZM433.438 184.801L433.055 182.838L431.601 183.122L431.449 184.597L433.438 184.801ZM439.594 183.599L441.359 182.659L440.663 181.353L439.211 181.636L439.594 183.599ZM458.868 219.776L459.251 221.739L461.904 221.221L460.633 218.836L458.868 219.776ZM452.162 221.086L450.382 221.996L451.068 223.337L452.546 223.049L452.162 221.086ZM444.771 206.61L445.155 208.573L447.76 208.064L446.553 205.7L444.771 206.61ZM438.491 194.313L440.272 193.404L437.078 187.15L436.498 194.148L438.491 194.313ZM437.352 208.058L435.358 207.893L435.14 210.528L437.735 210.021L437.352 208.058ZM447.349 210.459L436.411 212.595L437.178 216.521L448.115 214.385L447.349 210.459ZM434.802 214.384L433.956 224.077L437.941 224.425L438.787 214.731L434.802 214.384ZM435.565 222.288L428.86 223.598L429.627 227.524L436.332 226.214L435.565 222.288ZM431.233 225.765L435.428 185.006L431.449 184.597L427.254 225.356L431.233 225.765ZM433.822 186.764L439.977 185.562L439.211 181.636L433.055 182.838L433.822 186.764ZM437.829 184.54L457.103 220.717L460.633 218.836L441.359 182.659L437.829 184.54ZM458.485 217.813L451.779 219.123L452.546 223.049L459.251 221.739L458.485 217.813ZM453.943 220.175L449.513 211.511L445.952 213.333L450.382 221.996L453.943 220.175ZM446.553 205.7L440.272 193.404L436.71 195.223L442.99 207.519L446.553 205.7ZM436.498 194.148L435.358 207.893L439.345 208.224L440.484 194.479L436.498 194.148ZM437.735 210.021L445.155 208.573L444.388 204.647L436.968 206.095L437.735 210.021ZM457.63 180.078L457.247 178.115L455.284 178.498L455.667 180.461L457.63 180.078ZM464.336 178.769L466.299 178.385L465.915 176.422L463.952 176.806L464.336 178.769ZM470.646 211.086L468.683 211.47L469.066 213.433L471.029 213.049L470.646 211.086ZM483.617 208.554L485.58 208.171L485.196 206.208L483.233 206.591L483.617 208.554ZM484.819 214.71L485.202 216.672L487.165 216.289L486.782 214.326L484.819 214.71ZM465.142 218.551L463.179 218.935L463.562 220.898L465.525 220.514L465.142 218.551ZM458.013 182.041L464.719 180.732L463.952 176.806L457.247 178.115L458.013 182.041ZM462.373 179.152L468.683 211.47L472.609 210.703L466.299 178.385L462.373 179.152ZM471.029 213.049L484 210.517L483.233 206.591L470.262 209.123L471.029 213.049ZM481.654 208.937L482.856 215.093L486.782 214.326L485.58 208.171L481.654 208.937ZM484.435 212.747L464.759 216.588L465.525 220.514L485.202 216.672L484.435 212.747ZM467.105 218.168L459.593 179.695L455.667 180.461L463.179 218.935L467.105 218.168ZM483.665 174.995L483.282 173.032L481.319 173.415L481.702 175.378L483.665 174.995ZM490.37 173.685L492.333 173.302L491.95 171.339L489.987 171.722L490.37 173.685ZM497.882 212.159L498.266 214.122L500.229 213.739L499.845 211.776L497.882 212.159ZM491.177 213.468L489.214 213.851L489.597 215.814L491.56 215.431L491.177 213.468ZM484.048 176.958L490.754 175.648L489.987 171.722L483.282 173.032L484.048 176.958ZM488.408 174.069L495.919 212.542L499.845 211.776L492.333 173.302L488.408 174.069ZM497.499 210.196L490.794 211.505L491.56 215.431L498.266 214.122L497.499 210.196ZM493.14 213.085L485.628 174.611L481.702 175.378L489.214 213.851L493.14 213.085ZM507.357 176.759L509.32 176.376L508.937 174.413L506.974 174.796L507.357 176.759ZM498.123 178.562L496.16 178.945L496.544 180.908L498.506 180.525L498.123 178.562ZM496.921 172.406L496.538 170.443L494.575 170.827L494.958 172.79L496.921 172.406ZM522.094 167.491L524.057 167.108L523.674 165.145L521.711 165.528L522.094 167.491ZM523.296 173.647L523.679 175.61L525.642 175.227L525.259 173.264L523.296 173.647ZM514.062 175.45L513.679 173.487L511.716 173.87L512.099 175.833L514.062 175.45ZM520.372 207.768L520.756 209.731L522.718 209.347L522.335 207.384L520.372 207.768ZM513.667 209.077L511.704 209.46L512.087 211.423L514.05 211.04L513.667 209.077ZM506.974 174.796L497.74 176.599L498.506 180.525L507.74 178.722L506.974 174.796ZM500.086 178.179L498.884 172.023L494.958 172.79L496.16 178.945L500.086 178.179ZM497.305 174.369L522.477 169.454L521.711 165.528L496.538 170.443L497.305 174.369ZM520.131 167.875L521.333 174.03L525.259 173.264L524.057 167.108L520.131 167.875ZM522.913 171.684L513.679 173.487L514.445 177.413L523.679 175.61L522.913 171.684ZM512.099 175.833L518.409 208.151L522.335 207.384L516.025 175.067L512.099 175.833ZM519.989 205.805L513.284 207.114L514.05 211.04L520.756 209.731L519.989 205.805ZM515.63 208.694L509.32 176.376L505.394 177.142L511.704 209.46L515.63 208.694ZM554.609 161.143L556.519 161.736L557.512 158.538L554.226 159.18L554.609 161.143ZM547.252 184.832L545.342 184.239L545.192 184.72L545.289 185.215L547.252 184.832ZM550.579 201.87L550.962 203.833L552.925 203.45L552.542 201.487L550.579 201.87ZM543.928 203.168L541.965 203.552L542.349 205.515L544.312 205.131L543.928 203.168ZM540.602 186.13L542.564 185.747L542.468 185.252L542.148 184.862L540.602 186.13ZM524.874 166.949L524.491 164.986L521.205 165.627L523.328 168.217L524.874 166.949ZM532.019 165.553L533.595 164.321L532.84 163.356L531.636 163.591L532.019 165.553ZM542.742 179.265L541.166 180.497L543.595 183.603L544.666 179.808L542.742 179.265ZM547.464 162.538L547.08 160.575L545.873 160.811L545.539 161.995L547.464 162.538ZM552.699 160.55L545.342 184.239L549.162 185.425L556.519 161.736L552.699 160.55ZM545.289 185.215L548.616 202.253L552.542 201.487L549.215 184.448L545.289 185.215ZM550.195 199.907L543.545 201.206L544.312 205.131L550.962 203.833L550.195 199.907ZM545.891 202.785L542.564 185.747L538.639 186.513L541.965 203.552L545.891 202.785ZM542.148 184.862L526.421 165.68L523.328 168.217L539.055 187.398L542.148 184.862ZM525.258 168.911L532.403 167.516L531.636 163.591L524.491 164.986L525.258 168.911ZM530.444 166.785L541.166 180.497L544.317 178.033L533.595 164.321L530.444 166.785ZM544.666 179.808L549.389 163.081L545.539 161.995L540.817 178.721L544.666 179.808ZM547.847 164.501L554.992 163.106L554.226 159.18L547.08 160.575L547.847 164.501ZM560.985 179.412L560.602 177.449L558.639 177.832L559.022 179.795L560.985 179.412ZM575.66 176.546L577.623 176.163L577.24 174.2L575.277 174.583L575.66 176.546ZM576.669 181.713L577.052 183.676L579.015 183.292L578.632 181.33L576.669 181.713ZM561.994 184.578L560.031 184.961L560.414 186.924L562.377 186.541L561.994 184.578ZM561.368 181.375L576.043 178.509L575.277 174.583L560.602 177.449L561.368 181.375ZM573.697 176.93L574.706 182.096L578.632 181.33L577.623 176.163L573.697 176.93ZM576.285 179.75L561.61 182.615L562.377 186.541L577.052 183.676L576.285 179.75ZM563.957 184.195L562.948 179.028L559.022 179.795L560.031 184.961L563.957 184.195ZM593.711 191.68L592.916 193.515L592.932 193.522L592.948 193.528L593.711 191.68ZM586.567 185.771L584.941 186.937L584.947 186.944L586.567 185.771ZM582.478 164.831L584.42 165.308L584.422 165.299L582.478 164.831ZM586.875 156.669L588.288 158.085L588.293 158.08L586.875 156.669ZM603.738 153.319L602.962 155.162L602.974 155.168L603.738 153.319ZM610.938 159.217L609.312 160.382L609.312 160.382L610.938 159.217ZM615.037 180.212L616.981 180.681L615.037 180.212ZM610.585 188.385L609.182 186.96L609.172 186.969L610.585 188.385ZM607.445 180.782L609.299 181.532L609.299 181.532L607.445 180.782ZM603.689 161.545L605.125 160.152L605.125 160.152L603.689 161.545ZM590.059 164.206L588.205 163.456L588.205 163.456L590.059 164.206ZM593.815 183.443L595.25 182.05L595.25 182.05L593.815 183.443ZM602.275 190.537C599.487 191.082 596.905 190.835 594.475 189.831L592.948 193.528C596.144 194.849 599.527 195.149 603.042 194.463L602.275 190.537ZM594.506 189.844C592.087 188.797 589.979 187.074 588.186 184.598L584.947 186.944C587.112 189.934 589.767 192.15 592.916 193.515L594.506 189.844ZM588.192 184.606C586.401 182.109 585.119 179.024 584.391 175.298L580.465 176.065C581.283 180.253 582.76 183.895 584.941 186.937L588.192 184.606ZM584.391 175.298C583.664 171.571 583.696 168.253 584.42 165.308L580.536 164.353C579.648 167.961 579.648 171.877 580.465 176.065L584.391 175.298ZM584.422 165.299C585.146 162.297 586.449 159.919 588.288 158.085L585.463 155.253C583.035 157.675 581.407 160.738 580.534 164.362L584.422 165.299ZM588.293 158.08C590.159 156.205 592.45 154.993 595.229 154.451L594.463 150.525C590.939 151.213 587.916 152.789 585.458 155.258L588.293 158.08ZM595.229 154.451C598.017 153.906 600.575 154.157 602.962 155.162L604.514 151.476C601.347 150.142 597.977 149.839 594.463 150.525L595.229 154.451ZM602.974 155.168C605.402 156.171 607.517 157.879 609.312 160.382L612.563 158.051C610.386 155.016 607.701 152.792 604.502 151.471L602.974 155.168ZM609.312 160.382C611.103 162.88 612.385 165.964 613.113 169.69L617.039 168.924C616.221 164.735 614.744 161.093 612.563 158.051L609.312 160.382ZM613.113 169.69C613.84 173.416 613.813 176.756 613.093 179.744L616.981 180.681C617.858 177.042 617.857 173.112 617.039 168.924L613.113 169.69ZM613.093 179.744C612.371 182.738 611.054 185.117 609.182 186.96L611.987 189.811C614.454 187.383 616.106 184.313 616.981 180.681L613.093 179.744ZM609.172 186.969C607.339 188.798 605.063 189.993 602.275 190.537L603.042 194.463C606.556 193.777 609.564 192.228 611.997 189.801L609.172 186.969ZM601.722 187.703C605.331 186.998 607.934 184.906 609.299 181.532L605.591 180.031C604.75 182.109 603.282 183.323 600.955 183.777L601.722 187.703ZM609.299 181.532C610.594 178.334 610.72 174.552 609.894 170.319L605.968 171.085C606.701 174.84 606.504 177.778 605.591 180.031L609.299 181.532ZM609.894 170.319C609.067 166.085 607.528 162.629 605.125 160.152L602.254 162.938C603.947 164.682 605.235 167.331 605.968 171.085L609.894 170.319ZM605.125 160.152C602.59 157.54 599.392 156.581 595.783 157.285L596.549 161.211C598.876 160.757 600.693 161.329 602.254 162.938L605.125 160.152ZM595.783 157.285C592.174 157.99 589.571 160.082 588.205 163.456L591.913 164.957C592.754 162.879 594.222 161.665 596.549 161.211L595.783 157.285ZM588.205 163.456C586.91 166.654 586.784 170.436 587.61 174.669L591.536 173.903C590.803 170.149 591.001 167.21 591.913 164.957L588.205 163.456ZM587.61 174.669C588.437 178.903 589.977 182.359 592.379 184.836L595.25 182.05C593.557 180.306 592.269 177.657 591.536 173.903L587.61 174.669ZM592.379 184.836C594.914 187.448 598.113 188.408 601.722 187.703L600.955 183.777C598.628 184.231 596.811 183.659 595.25 182.05L592.379 184.836ZM619.361 148.5L618.977 146.537L617.014 146.92L617.398 148.883L619.361 148.5ZM626.231 147.159L627.786 145.901L627.029 144.965L625.848 145.196L626.231 147.159ZM643.682 168.742L642.127 170L645.645 168.359L643.682 168.742ZM638.982 144.669L638.599 142.706L636.636 143.089L637.019 145.052L638.982 144.669ZM645.688 143.36L647.65 142.977L647.267 141.014L645.304 141.397L645.688 143.36ZM653.199 181.833L653.583 183.796L655.546 183.413L655.162 181.45L653.199 181.833ZM647.318 182.982L645.77 184.247L646.527 185.174L647.702 184.945L647.318 182.982ZM628.577 160.052L630.126 158.786L626.614 160.435L628.577 160.052ZM633.578 185.664L633.961 187.627L635.924 187.244L635.541 185.281L633.578 185.664ZM626.873 186.974L624.91 187.357L625.293 189.32L627.256 188.937L626.873 186.974ZM619.744 150.463L626.614 149.122L625.848 145.196L618.977 146.537L619.744 150.463ZM624.676 148.416L642.127 170L645.238 167.485L627.786 145.901L624.676 148.416ZM645.645 168.359L640.945 144.286L637.019 145.052L641.72 169.126L645.645 168.359ZM639.365 146.632L646.071 145.323L645.304 141.397L638.599 142.706L639.365 146.632ZM643.725 143.743L651.237 182.217L655.162 181.45L647.65 142.977L643.725 143.743ZM652.816 179.87L646.935 181.019L647.702 184.945L653.583 183.796L652.816 179.87ZM648.867 181.716L630.126 158.786L627.029 161.318L645.77 184.247L648.867 181.716ZM626.614 160.435L631.615 186.048L635.541 185.281L630.54 159.669L626.614 160.435ZM633.195 183.701L626.489 185.011L627.256 188.937L633.961 187.627L633.195 183.701ZM628.836 186.59L621.324 148.117L617.398 148.883L624.91 187.357L628.836 186.59ZM655.709 141.403L655.325 139.44L653.362 139.824L653.746 141.786L655.709 141.403ZM677.309 137.186L679.272 136.803L678.888 134.84L676.926 135.223L677.309 137.186ZM678.511 143.342L678.894 145.305L680.857 144.921L680.474 142.958L678.511 143.342ZM663.616 146.25L663.233 144.287L661.27 144.67L661.653 146.633L663.616 146.25ZM665.387 155.319L663.424 155.702L663.807 157.665L665.77 157.281L665.387 155.319ZM676.874 153.076L678.837 152.692L678.453 150.729L676.49 151.113L676.874 153.076ZM678.076 159.231L678.459 161.194L680.422 160.811L680.039 158.848L678.076 159.231ZM666.589 161.474L666.205 159.511L664.242 159.895L664.626 161.858L666.589 161.474ZM668.724 172.412L666.761 172.795L667.144 174.758L669.107 174.375L668.724 172.412ZM684.113 169.407L686.076 169.024L685.693 167.061L683.73 167.444L684.113 169.407ZM685.315 175.563L685.699 177.526L687.662 177.142L687.278 175.179L685.315 175.563ZM663.221 179.877L661.258 180.26L661.641 182.223L663.604 181.84L663.221 179.877ZM656.092 143.366L677.692 139.149L676.926 135.223L655.325 139.44L656.092 143.366ZM675.346 137.569L676.548 143.725L680.474 142.958L679.272 136.803L675.346 137.569ZM678.127 141.379L663.233 144.287L663.999 148.213L678.894 145.305L678.127 141.379ZM661.653 146.633L663.424 155.702L667.35 154.935L665.579 145.867L661.653 146.633ZM665.77 157.281L677.257 155.039L676.49 151.113L665.003 153.356L665.77 157.281ZM674.911 153.459L676.113 159.615L680.039 158.848L678.837 152.692L674.911 153.459ZM677.692 157.269L666.205 159.511L666.972 163.437L678.459 161.194L677.692 157.269ZM664.626 161.858L666.761 172.795L670.687 172.028L668.551 161.091L664.626 161.858ZM669.107 174.375L684.497 171.37L683.73 167.444L668.341 170.449L669.107 174.375ZM682.151 169.79L683.352 175.946L687.278 175.179L686.076 169.024L682.151 169.79ZM684.932 173.6L662.837 177.914L663.604 181.84L685.699 177.526L684.932 173.6ZM665.184 179.493L657.672 141.02L653.746 141.786L661.258 180.26L665.184 179.493ZM733.416 166.97L732.344 168.658L733.988 169.702L735.075 168.087L733.416 166.97ZM729.704 164.614L730.776 162.925L729.341 162.014L728.211 163.283L729.704 164.614ZM712.213 168.542L711.418 170.377L711.433 170.384L711.449 170.391L712.213 168.542ZM705.068 162.634L703.443 163.8L703.448 163.807L705.068 162.634ZM700.979 141.693L702.922 142.171L702.924 142.162L700.979 141.693ZM705.377 133.531L706.789 134.947L706.794 134.943L705.377 133.531ZM722.239 130.182L721.463 132.025L721.476 132.03L722.239 130.182ZM729.439 136.08L727.814 137.245L727.814 137.245L729.439 136.08ZM732.88 159.258L731 158.576L730.45 160.096L731.819 160.953L732.88 159.258ZM736.91 161.78L738.57 162.897L739.724 161.182L737.972 160.085L736.91 161.78ZM723.714 160.819L725.031 162.324L727.044 160.563L724.785 159.13L723.714 160.819ZM718.83 157.722L717.171 156.605L716.023 158.31L717.759 159.411L718.83 157.722ZM722.324 152.532L723.402 150.847L721.756 149.794L720.665 151.415L722.324 152.532ZM726.628 155.286L725.549 156.971L728.049 158.57L728.593 155.654L726.628 155.286ZM722.191 138.408L723.626 137.015L723.626 137.015L722.191 138.408ZM708.56 141.069L706.706 140.319L706.706 140.319L708.56 141.069ZM712.316 160.306L713.752 158.913L713.752 158.913L712.316 160.306ZM734.488 165.281L730.776 162.925L728.632 166.302L732.344 168.658L734.488 165.281ZM728.211 163.283C726.306 165.421 723.858 166.798 720.776 167.4L721.543 171.326C725.423 170.568 728.672 168.779 731.197 165.944L728.211 163.283ZM720.776 167.4C717.988 167.944 715.407 167.698 712.976 166.694L711.449 170.391C714.646 171.711 718.029 172.012 721.543 171.326L720.776 167.4ZM713.008 166.707C710.589 165.659 708.481 163.936 706.688 161.461L703.448 163.807C705.613 166.797 708.268 169.013 711.418 170.377L713.008 166.707ZM706.693 161.468C704.902 158.971 703.62 155.887 702.893 152.161L698.967 152.927C699.785 157.115 701.261 160.758 703.443 163.8L706.693 161.468ZM702.893 152.161C702.165 148.434 702.197 145.116 702.921 142.171L699.037 141.216C698.15 144.824 698.149 148.74 698.967 152.927L702.893 152.161ZM702.924 142.162C703.647 139.159 704.951 136.782 706.789 134.947L703.964 132.116C701.537 134.537 699.908 137.601 699.035 141.225L702.924 142.162ZM706.794 134.943C708.661 133.068 710.952 131.856 713.731 131.313L712.964 127.388C709.441 128.076 706.418 129.651 703.959 132.12L706.794 134.943ZM713.731 131.313C716.519 130.769 719.077 131.02 721.463 132.025L723.016 128.339C719.848 127.005 716.478 126.701 712.964 127.388L713.731 131.313ZM721.476 132.03C723.904 133.034 726.019 134.742 727.814 137.245L731.064 134.914C728.887 131.878 726.202 129.655 723.003 128.333L721.476 132.03ZM727.814 137.245C729.605 139.742 730.887 142.827 731.614 146.553L735.54 145.786C734.722 141.598 733.246 137.956 731.064 134.914L727.814 137.245ZM731.614 146.553C732.503 151.102 732.264 155.089 731 158.576L734.761 159.939C736.315 155.649 736.541 150.91 735.54 145.786L731.614 146.553ZM731.819 160.953L735.849 163.475L737.972 160.085L733.942 157.562L731.819 160.953ZM735.251 160.663L731.757 165.853L735.075 168.087L738.57 162.897L735.251 160.663ZM720.223 164.566C722.076 164.204 723.71 163.48 725.031 162.324L722.397 159.314C721.703 159.921 720.755 160.386 719.456 160.64L720.223 164.566ZM724.785 159.13L719.901 156.033L717.759 159.411L722.643 162.508L724.785 159.13ZM720.489 158.839L723.983 153.649L720.665 151.415L717.171 156.605L720.489 158.839ZM721.246 154.216L725.549 156.971L727.706 153.602L723.402 150.847L721.246 154.216ZM728.593 155.654C729.078 153.062 728.99 150.227 728.395 147.181L724.469 147.948C724.991 150.618 725.033 152.931 724.662 154.919L728.593 155.654ZM728.395 147.181C727.569 142.948 726.029 139.492 723.626 137.015L720.755 139.8C722.448 141.545 723.736 144.194 724.469 147.948L728.395 147.181ZM723.626 137.015C721.092 134.403 717.893 133.443 714.284 134.148L715.051 138.074C717.377 137.619 719.194 138.191 720.755 139.8L723.626 137.015ZM714.284 134.148C710.675 134.853 708.072 136.945 706.706 140.319L710.414 141.819C711.255 139.741 712.724 138.528 715.051 138.074L714.284 134.148ZM706.706 140.319C705.412 143.517 705.285 147.299 706.112 151.532L710.038 150.766C709.305 147.011 709.502 144.073 710.414 141.819L706.706 140.319ZM706.112 151.532C706.938 155.766 708.478 159.222 710.881 161.698L713.752 158.913C712.059 157.168 710.771 154.52 710.038 150.766L706.112 151.532ZM710.881 161.698C713.415 164.311 716.614 165.27 720.223 164.566L719.456 160.64C717.13 161.094 715.313 160.522 713.752 158.913L710.881 161.698ZM747.852 159.872L746.586 161.42L746.596 161.428L747.852 159.872ZM737.532 125.427L737.149 123.464L735.186 123.848L735.569 125.81L737.532 125.427ZM744.238 124.118L746.201 123.735L745.817 121.772L743.854 122.155L744.238 124.118ZM751.538 153.618L749.993 154.888L750.008 154.906L750.024 154.924L751.538 153.618ZM762.64 151.45L764.545 152.062L764.547 152.054L764.55 152.045L762.64 151.45ZM758.308 121.371L757.925 119.408L755.962 119.791L756.345 121.754L758.308 121.371ZM765.013 120.062L766.976 119.678L766.593 117.715L764.63 118.099L765.013 120.062ZM768.408 155.858L770.158 156.828L770.164 156.816L768.408 155.858ZM758.552 160.024C754.421 160.831 751.376 160.147 749.109 158.316L746.596 161.428C750.018 164.192 754.362 164.918 759.318 163.95L758.552 160.024ZM749.119 158.324C746.736 156.374 745.003 153.253 744.11 148.678L740.184 149.444C741.194 154.616 743.265 158.702 746.586 161.42L749.119 158.324ZM744.11 148.678L739.495 125.044L735.569 125.81L740.184 149.444L744.11 148.678ZM737.916 127.39L744.621 126.081L743.854 122.155L737.149 123.464L737.916 127.39ZM742.275 124.501L746.535 146.321L750.461 145.555L746.201 123.735L742.275 124.501ZM746.535 146.321C747.241 149.935 748.338 152.875 749.993 154.888L753.083 152.348C752.044 151.083 751.115 148.903 750.461 145.555L746.535 146.321ZM750.024 154.924C752.009 157.225 754.858 157.803 757.998 157.19L757.232 153.264C755.023 153.695 753.82 153.201 753.052 152.311L750.024 154.924ZM757.998 157.19C761.159 156.573 763.611 154.969 764.545 152.062L760.736 150.838C760.392 151.909 759.494 152.822 757.232 153.264L757.998 157.19ZM764.55 152.045C765.326 149.558 765.237 146.421 764.531 142.808L760.605 143.574C761.259 146.922 761.219 149.292 760.731 150.855L764.55 152.045ZM764.531 142.808L760.271 120.988L756.345 121.754L760.605 143.574L764.531 142.808ZM758.691 123.334L765.397 122.025L764.63 118.099L757.925 119.408L758.691 123.334ZM763.05 120.445L767.665 144.079L771.591 143.312L766.976 119.678L763.05 120.445ZM767.665 144.079C768.558 148.654 768.127 152.197 766.652 154.901L770.164 156.816C772.219 153.049 772.601 148.484 771.591 143.312L767.665 144.079ZM766.659 154.889C765.246 157.439 762.682 159.218 758.552 160.024L759.318 163.95C764.275 162.983 768.026 160.676 770.158 156.828L766.659 154.889ZM796.151 144.394L797.932 143.483L797.246 142.142L795.768 142.431L796.151 144.394ZM785.214 146.529L784.831 144.566L783.352 144.855L783.222 146.355L785.214 146.529ZM784.368 156.223L784.751 158.186L786.229 157.897L786.36 156.397L784.368 156.223ZM777.663 157.532L775.673 157.327L775.397 160.012L778.046 159.495L777.663 157.532ZM781.858 116.773L781.474 114.81L780.02 115.094L779.868 116.568L781.858 116.773ZM788.013 115.571L789.778 114.63L789.083 113.324L787.63 113.608L788.013 115.571ZM807.287 151.748L807.67 153.711L810.323 153.193L809.052 150.807L807.287 151.748ZM800.582 153.057L798.801 153.968L799.487 155.309L800.965 155.02L800.582 153.057ZM793.191 138.581L793.574 140.544L796.179 140.035L794.972 137.671L793.191 138.581ZM786.91 126.285L788.691 125.375L785.497 119.121L784.917 126.12L786.91 126.285ZM785.771 140.03L783.778 139.865L783.559 142.499L786.154 141.993L785.771 140.03ZM795.768 142.431L784.831 144.566L785.597 148.492L796.535 146.356L795.768 142.431ZM783.222 146.355L782.375 156.049L786.36 156.397L787.206 146.703L783.222 146.355ZM783.985 154.26L777.279 155.569L778.046 159.495L784.751 158.186L783.985 154.26ZM779.652 157.737L783.847 116.978L779.868 116.568L775.673 157.327L779.652 157.737ZM782.241 118.736L788.397 117.534L787.63 113.608L781.474 114.81L782.241 118.736ZM786.248 116.511L805.522 152.688L809.052 150.807L789.778 114.63L786.248 116.511ZM806.904 149.785L800.198 151.094L800.965 155.02L807.67 153.711L806.904 149.785ZM802.362 152.147L797.932 143.483L794.371 145.304L798.801 153.968L802.362 152.147ZM794.972 137.671L788.691 125.375L785.129 127.195L791.41 139.491L794.972 137.671ZM784.917 126.12L783.778 139.865L787.764 140.195L788.903 126.45L784.917 126.12ZM786.154 141.993L793.574 140.544L792.807 136.618L785.388 138.067L786.154 141.993ZM806.049 112.049L805.666 110.086L803.703 110.47L804.087 112.433L806.049 112.049ZM812.755 110.74L814.718 110.357L814.335 108.394L812.372 108.777L812.755 110.74ZM819.065 143.058L817.102 143.441L817.485 145.404L819.448 145.021L819.065 143.058ZM832.036 140.525L833.999 140.142L833.616 138.179L831.653 138.562L832.036 140.525ZM833.238 146.681L833.621 148.644L835.584 148.261L835.201 146.298L833.238 146.681ZM813.561 150.523L811.598 150.906L811.982 152.869L813.945 152.486L813.561 150.523ZM806.433 114.012L813.138 112.703L812.372 108.777L805.666 110.086L806.433 114.012ZM810.792 111.123L817.102 143.441L821.028 142.675L814.718 110.357L810.792 111.123ZM819.448 145.021L832.419 142.488L831.653 138.562L818.682 141.095L819.448 145.021ZM830.073 140.909L831.275 147.064L835.201 146.298L833.999 140.142L830.073 140.909ZM832.855 144.718L813.178 148.56L813.945 152.486L833.621 148.644L832.855 144.718ZM815.524 150.14L808.012 111.666L804.087 112.433L811.598 150.906L815.524 150.14ZM832.084 106.966L831.701 105.003L829.738 105.386L830.121 107.349L832.084 106.966ZM838.79 105.657L840.753 105.274L840.369 103.311L838.407 103.694L838.79 105.657ZM846.302 144.13L846.685 146.093L848.648 145.71L848.265 143.747L846.302 144.13ZM839.596 145.44L837.633 145.823L838.017 147.786L839.98 147.402L839.596 145.44ZM832.468 108.929L839.173 107.62L838.407 103.694L831.701 105.003L832.468 108.929ZM836.827 106.04L844.339 144.514L848.265 143.747L840.753 105.274L836.827 106.04ZM845.918 142.167L839.213 143.477L839.98 147.402L846.685 146.093L845.918 142.167ZM841.559 145.056L834.047 106.583L830.121 107.349L837.633 145.823L841.559 145.056ZM855.776 108.731L857.739 108.347L857.356 106.384L855.393 106.768L855.776 108.731ZM846.542 110.534L844.58 110.917L844.963 112.88L846.926 112.496L846.542 110.534ZM845.341 104.378L844.957 102.415L842.994 102.798L843.378 104.761L845.341 104.378ZM870.513 99.4628L872.476 99.0796L872.093 97.1166L870.13 97.4999L870.513 99.4628ZM871.715 105.619L872.098 107.582L874.061 107.198L873.678 105.235L871.715 105.619ZM862.482 107.421L862.098 105.459L860.135 105.842L860.519 107.805L862.482 107.421ZM868.792 139.739L869.175 141.702L871.138 141.319L870.754 139.356L868.792 139.739ZM862.086 141.048L860.123 141.432L860.506 143.395L862.469 143.011L862.086 141.048ZM855.393 106.768L846.159 108.571L846.926 112.496L856.159 110.694L855.393 106.768ZM848.505 110.15L847.304 103.995L843.378 104.761L844.58 110.917L848.505 110.15ZM845.724 106.341L870.897 101.426L870.13 97.4999L844.957 102.415L845.724 106.341ZM868.55 99.8461L869.752 106.002L873.678 105.235L872.476 99.0796L868.55 99.8461ZM871.332 103.656L862.098 105.459L862.865 109.384L872.098 107.582L871.332 103.656ZM860.519 107.805L866.829 140.122L870.754 139.356L864.444 107.038L860.519 107.805ZM868.408 137.776L861.703 139.085L862.469 143.011L869.175 141.702L868.408 137.776ZM864.049 140.665L857.739 108.347L853.813 109.114L860.123 141.432L864.049 140.665ZM903.028 93.1143L904.938 93.7075L905.931 90.5097L902.645 91.1514L903.028 93.1143ZM895.671 116.803L893.761 116.21L893.612 116.692L893.708 117.186L895.671 116.803ZM898.998 133.841L899.381 135.804L901.344 135.421L900.961 133.458L898.998 133.841ZM892.348 135.14L890.385 135.523L890.768 137.486L892.731 137.103L892.348 135.14ZM889.021 118.102L890.984 117.718L890.887 117.223L890.567 116.834L889.021 118.102ZM873.294 98.92L872.91 96.957L869.624 97.5987L871.747 100.188L873.294 98.92ZM880.439 97.5249L882.014 96.2929L881.259 95.327L880.055 95.562L880.439 97.5249ZM891.161 111.236L889.585 112.468L892.014 115.574L893.086 111.78L891.161 111.236ZM895.883 94.5094L895.5 92.5465L894.292 92.7822L893.958 93.966L895.883 94.5094ZM901.118 92.5212L893.761 116.21L897.581 117.396L904.938 93.7075L901.118 92.5212ZM893.708 117.186L897.035 134.225L900.961 133.458L897.634 116.42L893.708 117.186ZM898.615 131.878L891.964 133.177L892.731 137.103L899.381 135.804L898.615 131.878ZM894.31 134.757L890.984 117.718L887.058 118.485L890.385 135.523L894.31 134.757ZM890.567 116.834L874.84 97.6519L871.747 100.188L887.474 119.37L890.567 116.834ZM873.677 100.883L880.822 99.4878L880.055 95.562L872.91 96.957L873.677 100.883ZM878.863 98.7569L889.585 112.468L892.736 110.004L882.014 96.2929L878.863 98.7569ZM893.086 111.78L897.808 95.0528L893.958 93.966L889.236 110.693L893.086 111.78ZM896.266 96.4723L903.411 95.0773L902.645 91.1514L895.5 92.5465L896.266 96.4723ZM909.404 111.383L909.021 109.42L907.058 109.803L907.441 111.766L909.404 111.383ZM924.079 108.518L926.042 108.135L925.659 106.172L923.696 106.555L924.079 108.518ZM925.088 113.684L925.471 115.647L927.434 115.264L927.051 113.301L925.088 113.684ZM910.413 116.549L908.45 116.933L908.833 118.896L910.796 118.512L910.413 116.549ZM909.787 113.346L924.462 110.481L923.696 106.555L909.021 109.42L909.787 113.346ZM922.116 108.901L923.125 114.067L927.051 113.301L926.042 108.135L922.116 108.901ZM924.705 111.721L910.03 114.587L910.796 118.512L925.471 115.647L924.705 111.721ZM912.376 116.166L911.367 111L907.441 111.766L908.45 116.933L912.376 116.166ZM942.13 123.651L941.335 125.486L941.351 125.493L941.367 125.5L942.13 123.651ZM934.986 117.743L933.361 118.908L933.366 118.916L934.986 117.743ZM930.897 96.8021L932.839 97.2797L932.841 97.2708L930.897 96.8021ZM935.295 88.6402L936.707 90.056L936.712 90.0513L935.295 88.6402ZM952.157 85.2907L951.381 87.1339L951.394 87.1392L952.157 85.2907ZM959.357 91.1883L957.732 92.3539L957.732 92.3539L959.357 91.1883ZM963.456 112.184L965.401 112.653L963.456 112.184ZM959.004 120.357L957.601 118.931L957.591 118.941L959.004 120.357ZM955.865 112.753L957.718 113.504L957.718 113.504L955.865 112.753ZM952.109 93.5164L953.544 92.1238L953.544 92.1238L952.109 93.5164ZM938.478 96.1778L936.624 95.4274L936.624 95.4274L938.478 96.1778ZM942.234 115.415L943.669 114.022L943.669 114.022L942.234 115.415ZM950.694 122.509C947.906 123.053 945.325 122.807 942.894 121.803L941.367 125.5C944.563 126.82 947.947 127.121 951.461 126.435L950.694 122.509ZM942.926 121.816C940.507 120.768 938.398 119.045 936.606 116.57L933.366 118.916C935.531 121.906 938.186 124.122 941.335 125.486L942.926 121.816ZM936.611 116.577C934.82 114.08 933.538 110.996 932.81 107.269L928.885 108.036C929.702 112.224 931.179 115.867 933.361 118.908L936.611 116.577ZM932.81 107.269C932.083 103.542 932.115 100.225 932.839 97.2797L928.955 96.3245C928.068 99.9326 928.067 103.848 928.885 108.036L932.81 107.269ZM932.841 97.2708C933.565 94.2682 934.868 91.8906 936.707 90.056L933.882 87.2243C931.455 89.6461 929.826 92.7098 928.953 96.3335L932.841 97.2708ZM936.712 90.0513C938.579 88.1763 940.87 86.9648 943.648 86.4222L942.882 82.4963C939.358 83.1843 936.335 84.7601 933.877 87.229L936.712 90.0513ZM943.648 86.4222C946.437 85.8778 948.995 86.1288 951.381 87.1339L952.934 83.4475C949.766 82.1135 946.396 81.8102 942.882 82.4963L943.648 86.4222ZM951.394 87.1392C953.822 88.1423 955.936 89.8508 957.732 92.3539L960.982 90.0227C958.805 86.9871 956.12 84.7639 952.921 83.4422L951.394 87.1392ZM957.732 92.3539C959.522 94.851 960.805 97.9353 961.532 101.662L965.458 100.895C964.64 96.7068 963.164 93.0645 960.982 90.0227L957.732 92.3539ZM961.532 101.662C962.26 105.388 962.232 108.728 961.512 111.715L965.401 112.653C966.278 109.014 966.276 105.083 965.458 100.895L961.532 101.662ZM961.512 111.715C960.79 114.71 959.473 117.088 957.601 118.931L960.407 121.782C962.874 119.354 964.525 116.284 965.401 112.653L961.512 111.715ZM957.591 118.941C955.758 120.77 953.482 121.964 950.694 122.509L951.461 126.435C954.975 125.749 957.983 124.2 960.416 121.772L957.591 118.941ZM950.141 119.674C953.75 118.97 956.353 116.877 957.718 113.504L954.011 112.003C953.17 114.081 951.701 115.294 949.374 115.748L950.141 119.674ZM957.718 113.504C959.013 110.305 959.14 106.524 958.313 102.29L954.387 103.057C955.12 106.811 954.923 109.749 954.011 112.003L957.718 113.504ZM958.313 102.29C957.486 98.0566 955.947 94.6004 953.544 92.1238L950.673 94.9091C952.366 96.6539 953.654 99.3023 954.387 103.057L958.313 102.29ZM953.544 92.1238C951.01 89.5114 947.811 88.552 944.202 89.2567L944.968 93.1826C947.295 92.7282 949.112 93.3001 950.673 94.9091L953.544 92.1238ZM944.202 89.2567C940.593 89.9613 937.99 92.0535 936.624 95.4274L940.332 96.9282C941.173 94.8502 942.641 93.6369 944.968 93.1826L944.202 89.2567ZM936.624 95.4274C935.329 98.626 935.203 102.407 936.03 106.641L939.956 105.874C939.223 102.12 939.42 99.1816 940.332 96.9282L936.624 95.4274ZM936.03 106.641C936.856 110.874 938.396 114.331 940.799 116.807L943.669 114.022C941.977 112.277 940.689 109.629 939.956 105.874L936.03 106.641ZM940.799 116.807C943.333 119.42 946.532 120.379 950.141 119.674L949.374 115.748C947.047 116.203 945.231 115.631 943.669 114.022L940.799 116.807ZM967.78 80.4716L967.397 78.5087L965.434 78.8919L965.817 80.8548L967.78 80.4716ZM974.65 79.1302L976.205 77.8727L975.449 76.9365L974.267 77.1672L974.65 79.1302ZM992.102 100.714L990.547 101.971L994.065 100.331L992.102 100.714ZM987.401 76.6405L987.018 74.6776L985.055 75.0608L985.439 77.0238L987.401 76.6405ZM994.107 75.3313L996.07 74.948L995.687 72.9851L993.724 73.3684L994.107 75.3313ZM1001.62 113.805L1002 115.768L1003.96 115.384L1003.58 113.422L1001.62 113.805ZM995.738 114.953L994.189 116.219L994.947 117.145L996.121 116.916L995.738 114.953ZM976.996 92.0235L978.545 90.7578L975.034 92.4068L976.996 92.0235ZM981.997 117.636L982.381 119.599L984.343 119.216L983.96 117.253L981.997 117.636ZM975.292 118.945L973.329 119.328L973.712 121.291L975.675 120.908L975.292 118.945ZM968.163 82.4345L975.033 81.0931L974.267 77.1672L967.397 78.5087L968.163 82.4345ZM973.095 80.3877L990.547 101.971L993.657 99.4565L976.205 77.8727L973.095 80.3877ZM994.065 100.331L989.364 76.2572L985.439 77.0238L990.139 101.097L994.065 100.331ZM987.785 78.6034L994.49 77.2942L993.724 73.3684L987.018 74.6776L987.785 78.6034ZM992.144 75.7146L999.656 114.188L1003.58 113.422L996.07 74.948L992.144 75.7146ZM1001.24 111.842L995.355 112.99L996.121 116.916L1002 115.768L1001.24 111.842ZM997.286 113.687L978.545 90.7578L975.448 93.2892L994.189 116.219L997.286 113.687ZM975.034 92.4068L980.034 118.019L983.96 117.253L978.959 91.6403L975.034 92.4068ZM981.614 115.673L974.909 116.982L975.675 120.908L982.381 119.599L981.614 115.673ZM977.255 118.562L969.743 80.0883L965.817 80.8548L973.329 119.328L977.255 118.562ZM1004.13 73.3747L1003.74 71.4117L1001.78 71.795L1002.17 73.7579L1004.13 73.3747ZM1025.73 69.1573L1027.69 68.774L1027.31 66.8111L1025.34 67.1943L1025.73 69.1573ZM1026.93 75.313L1027.31 77.276L1029.28 76.8927L1028.89 74.9298L1026.93 75.313ZM1012.04 78.2212L1011.65 76.2583L1009.69 76.6415L1010.07 78.6045L1012.04 78.2212ZM1013.81 87.29L1011.84 87.6732L1012.23 89.6362L1014.19 89.2529L1013.81 87.29ZM1025.29 85.0471L1027.26 84.6639L1026.87 82.7009L1024.91 83.0842L1025.29 85.0471ZM1026.49 91.2029L1026.88 93.1658L1028.84 92.7826L1028.46 90.8196L1026.49 91.2029ZM1015.01 93.4457L1014.62 91.4828L1012.66 91.8661L1013.04 93.829L1015.01 93.4457ZM1017.14 104.383L1015.18 104.766L1015.56 106.729L1017.53 106.346L1017.14 104.383ZM1032.53 101.378L1034.5 100.995L1034.11 99.0322L1032.15 99.4155L1032.53 101.378ZM1033.73 107.534L1034.12 109.497L1036.08 109.114L1035.7 107.151L1033.73 107.534ZM1011.64 111.848L1009.68 112.231L1010.06 114.194L1012.02 113.811L1011.64 111.848ZM1004.51 75.3376L1026.11 71.1202L1025.34 67.1943L1003.74 71.4117L1004.51 75.3376ZM1023.77 69.5405L1024.97 75.6963L1028.89 74.9298L1027.69 68.774L1023.77 69.5405ZM1026.55 73.3501L1011.65 76.2583L1012.42 80.1842L1027.31 77.276L1026.55 73.3501ZM1010.07 78.6045L1011.84 87.6732L1015.77 86.9067L1014 77.838L1010.07 78.6045ZM1014.19 89.2529L1025.68 87.0101L1024.91 83.0842L1013.42 85.327L1014.19 89.2529ZM1023.33 85.4304L1024.53 91.5861L1028.46 90.8196L1027.26 84.6639L1023.33 85.4304ZM1026.11 89.24L1014.62 91.4828L1015.39 95.4087L1026.88 93.1658L1026.11 89.24ZM1013.04 93.829L1015.18 104.766L1019.11 104L1016.97 93.0625L1013.04 93.829ZM1017.53 106.346L1032.92 103.341L1032.15 99.4155L1016.76 102.42L1017.53 106.346ZM1030.57 101.762L1031.77 107.917L1035.7 107.151L1034.5 100.995L1030.57 101.762ZM1033.35 105.571L1011.26 109.885L1012.02 113.811L1034.12 109.497L1033.35 105.571ZM1013.6 111.465L1006.09 72.9914L1002.17 73.7579L1009.68 112.231L1013.6 111.465ZM1081.84 98.9413L1080.76 100.63L1082.41 101.673L1083.49 100.058L1081.84 98.9413ZM1078.12 96.5851L1079.2 94.8965L1077.76 93.9858L1076.63 95.2547L1078.12 96.5851ZM1060.63 100.514L1059.84 102.349L1059.85 102.356L1059.87 102.362L1060.63 100.514ZM1053.49 94.6054L1051.86 95.771L1051.87 95.7785L1053.49 94.6054ZM1049.4 73.6648L1051.34 74.1424L1051.34 74.1335L1049.4 73.6648ZM1053.8 65.5029L1055.21 66.9187L1055.21 66.914L1053.8 65.5029ZM1070.66 62.1534L1069.88 63.9966L1069.9 64.0018L1070.66 62.1534ZM1077.86 68.051L1076.23 69.2166L1076.23 69.2166L1077.86 68.051ZM1081.3 91.2291L1079.42 90.5478L1078.87 92.0671L1080.24 92.9244L1081.3 91.2291ZM1085.33 93.7516L1086.99 94.8686L1088.14 93.1533L1086.39 92.0563L1085.33 93.7516ZM1072.13 92.7906L1073.45 94.2957L1075.46 92.5342L1073.2 91.1017L1072.13 92.7906ZM1067.25 89.6932L1065.59 88.5762L1064.44 90.2813L1066.18 91.3822L1067.25 89.6932ZM1070.74 84.5034L1071.82 82.8189L1070.18 81.7655L1069.08 83.3864L1070.74 84.5034ZM1075.05 87.2577L1073.97 88.9423L1076.47 90.5418L1077.01 87.6251L1075.05 87.2577ZM1070.61 70.3791L1072.05 68.9865L1072.05 68.9865L1070.61 70.3791ZM1056.98 73.0405L1055.13 72.2901L1055.13 72.2901L1056.98 73.0405ZM1060.74 92.2773L1062.17 90.8846L1062.17 90.8846L1060.74 92.2773ZM1082.91 97.2528L1079.2 94.8965L1077.05 98.2737L1080.76 100.63L1082.91 97.2528ZM1076.63 95.2547C1074.73 97.3928 1072.28 98.7698 1069.2 99.3715L1069.96 103.297C1073.84 102.54 1077.09 100.751 1079.62 97.9155L1076.63 95.2547ZM1069.2 99.3715C1066.41 99.9159 1063.83 99.6694 1061.4 98.6653L1059.87 102.362C1063.06 103.683 1066.45 103.984 1069.96 103.297L1069.2 99.3715ZM1061.43 98.6786C1059.01 97.6307 1056.9 95.9078 1055.11 93.4323L1051.87 95.7785C1054.03 98.7685 1056.69 100.984 1059.84 102.349L1061.43 98.6786ZM1055.11 93.4398C1053.32 90.9427 1052.04 87.8584 1051.31 84.1321L1047.39 84.8987C1048.2 89.0869 1049.68 92.7293 1051.86 95.771L1055.11 93.4398ZM1051.31 84.1321C1050.58 80.4051 1050.62 77.0872 1051.34 74.1424L1047.46 73.1872C1046.57 76.7953 1046.57 80.7111 1047.39 84.8987L1051.31 84.1321ZM1051.34 74.1335C1052.07 71.1309 1053.37 68.7533 1055.21 66.9187L1052.38 64.087C1049.96 66.5088 1048.33 69.5725 1047.45 73.1962L1051.34 74.1335ZM1055.21 66.914C1057.08 65.039 1059.37 63.8275 1062.15 63.2849L1061.38 59.359C1057.86 60.047 1054.84 61.6228 1052.38 64.0917L1055.21 66.914ZM1062.15 63.2849C1064.94 62.7405 1067.5 62.9915 1069.88 63.9966L1071.44 60.3102C1068.27 58.9762 1064.9 58.6729 1061.38 59.359L1062.15 63.2849ZM1069.9 64.0018C1072.32 65.005 1074.44 66.7135 1076.23 69.2166L1079.48 66.8854C1077.31 63.8497 1074.62 61.6266 1071.42 60.3049L1069.9 64.0018ZM1076.23 69.2166C1078.02 71.7137 1079.31 74.798 1080.03 78.5243L1083.96 77.7577C1083.14 73.5695 1081.67 69.9271 1079.48 66.8854L1076.23 69.2166ZM1080.03 78.5243C1080.92 83.0737 1080.68 87.0601 1079.42 90.5478L1083.18 91.9104C1084.73 87.6207 1084.96 82.8816 1083.96 77.7577L1080.03 78.5243ZM1080.24 92.9244L1084.27 95.4469L1086.39 92.0563L1082.36 89.5338L1080.24 92.9244ZM1083.67 92.6346L1080.18 97.8243L1083.49 100.058L1086.99 94.8686L1083.67 92.6346ZM1068.64 96.537C1070.49 96.1753 1072.13 95.4518 1073.45 94.2957L1070.82 91.2856C1070.12 91.8922 1069.17 92.3576 1067.88 92.6111L1068.64 96.537ZM1073.2 91.1017L1068.32 88.0042L1066.18 91.3822L1071.06 94.4796L1073.2 91.1017ZM1068.91 90.8102L1072.4 85.6204L1069.08 83.3864L1065.59 88.5762L1068.91 90.8102ZM1069.67 86.1879L1073.97 88.9423L1076.12 85.5732L1071.82 82.8189L1069.67 86.1879ZM1077.01 87.6251C1077.5 85.0337 1077.41 82.1989 1076.81 79.1528L1072.89 79.9193C1073.41 82.5893 1073.45 84.9023 1073.08 86.8904L1077.01 87.6251ZM1076.81 79.1528C1075.99 74.9193 1074.45 71.4631 1072.05 68.9865L1069.17 71.7718C1070.87 73.5166 1072.16 76.165 1072.89 79.9193L1076.81 79.1528ZM1072.05 68.9865C1069.51 66.3741 1066.31 65.4147 1062.7 66.1194L1063.47 70.0453C1065.8 69.5909 1067.61 70.1628 1069.17 71.7718L1072.05 68.9865ZM1062.7 66.1194C1059.09 66.824 1056.49 68.9162 1055.13 72.2901L1058.83 73.7909C1059.67 71.7128 1061.14 70.4996 1063.47 70.0453L1062.7 66.1194ZM1055.13 72.2901C1053.83 75.4886 1053.7 79.2701 1054.53 83.5036L1058.46 82.7371C1057.72 78.9827 1057.92 76.0443 1058.83 73.7909L1055.13 72.2901ZM1054.53 83.5036C1055.36 87.7371 1056.9 91.1933 1059.3 93.6699L1062.17 90.8846C1060.48 89.1398 1059.19 86.4914 1058.46 82.7371L1054.53 83.5036ZM1059.3 93.6699C1061.83 96.2823 1065.03 97.2417 1068.64 96.537L1067.88 92.6111C1065.55 93.0655 1063.73 92.4937 1062.17 90.8846L1059.3 93.6699ZM1096.27 91.8434L1095 93.3913L1095.01 93.3994L1096.27 91.8434ZM1085.95 57.3987L1085.57 55.4358L1083.61 55.819L1083.99 57.782L1085.95 57.3987ZM1092.66 56.0895L1094.62 55.7062L1094.24 53.7433L1092.27 54.1265L1092.66 56.0895ZM1099.96 85.5892L1098.41 86.8591L1098.43 86.8777L1098.44 86.8959L1099.96 85.5892ZM1111.06 83.4215L1112.96 84.0331L1112.97 84.0251L1112.97 84.0169L1111.06 83.4215ZM1106.73 53.3423L1106.34 51.3793L1104.38 51.7626L1104.76 53.7255L1106.73 53.3423ZM1113.43 52.033L1115.4 51.6498L1115.01 49.6868L1113.05 50.0701L1113.43 52.033ZM1116.83 87.8299L1118.58 88.799L1118.58 88.7876L1116.83 87.8299ZM1106.97 91.9959C1102.84 92.8024 1099.8 92.1186 1097.53 90.2874L1095.01 93.3994C1098.44 96.163 1102.78 96.8895 1107.74 95.9218L1106.97 91.9959ZM1097.54 90.2957C1095.15 88.3454 1093.42 85.2242 1092.53 80.6492L1088.6 81.4157C1089.61 86.5873 1091.68 90.6734 1095 93.3912L1097.54 90.2957ZM1092.53 80.6492L1087.91 57.0154L1083.99 57.782L1088.6 81.4157L1092.53 80.6492ZM1086.33 59.3616L1093.04 58.0524L1092.27 54.1265L1085.57 55.4358L1086.33 59.3616ZM1090.69 56.4727L1094.95 78.2927L1098.88 77.5262L1094.62 55.7062L1090.69 56.4727ZM1094.95 78.2927C1095.66 81.9066 1096.76 84.8461 1098.41 86.8591L1101.5 84.3193C1100.46 83.0546 1099.53 80.8742 1098.88 77.5262L1094.95 78.2927ZM1098.44 86.8959C1100.43 89.1962 1103.28 89.7747 1106.42 89.1614L1105.65 85.2356C1103.44 85.6668 1102.24 85.1725 1101.47 84.2826L1098.44 86.8959ZM1106.42 89.1614C1109.58 88.5443 1112.03 86.9401 1112.96 84.0331L1109.16 82.8098C1108.81 83.8801 1107.91 84.7939 1105.65 85.2356L1106.42 89.1614ZM1112.97 84.0169C1113.74 81.5293 1113.66 78.3928 1112.95 74.779L1109.02 75.5455C1109.68 78.8935 1109.64 81.2632 1109.15 82.826L1112.97 84.0169ZM1112.95 74.779L1108.69 52.959L1104.76 53.7255L1109.02 75.5455L1112.95 74.779ZM1107.11 55.3052L1113.82 53.996L1113.05 50.0701L1106.34 51.3793L1107.11 55.3052ZM1111.47 52.4163L1116.08 76.05L1120.01 75.2835L1115.4 51.6498L1111.47 52.4163ZM1116.08 76.05C1116.98 80.6251 1116.55 84.1688 1115.07 86.8723L1118.58 88.7876C1120.64 85.0202 1121.02 80.4551 1120.01 75.2835L1116.08 76.05ZM1115.08 86.8609C1113.67 89.4105 1111.1 91.1894 1106.97 91.9959L1107.74 95.9218C1112.69 94.954 1116.45 92.647 1118.58 88.799L1115.08 86.8609ZM1144.57 76.365L1146.35 75.4544L1145.67 74.1134L1144.19 74.402L1144.57 76.365ZM1133.63 78.5005L1133.25 76.5376L1131.77 76.8262L1131.64 78.3266L1133.63 78.5005ZM1132.79 88.1943L1133.17 90.1572L1134.65 89.8686L1134.78 88.3682L1132.79 88.1943ZM1126.08 89.5035L1124.09 89.2987L1123.82 91.9837L1126.47 91.4664L1126.08 89.5035ZM1130.28 48.7442L1129.89 46.7813L1128.44 47.0653L1128.29 48.5395L1130.28 48.7442ZM1136.43 47.5423L1138.2 46.6019L1137.5 45.2958L1136.05 45.5794L1136.43 47.5423ZM1155.71 83.7193L1156.09 85.6823L1158.74 85.1643L1157.47 82.7789L1155.71 83.7193ZM1149 85.0285L1147.22 85.9391L1147.91 87.2801L1149.38 86.9915L1149 85.0285ZM1141.61 70.5526L1141.99 72.5155L1144.6 72.0068L1143.39 69.6428L1141.61 70.5526ZM1135.33 58.2563L1137.11 57.3465L1133.92 51.0929L1133.34 58.0911L1135.33 58.2563ZM1134.19 72.0013L1132.2 71.8361L1131.98 74.4709L1134.57 73.9643L1134.19 72.0013ZM1144.19 74.402L1133.25 76.5376L1134.02 80.4634L1144.95 78.3279L1144.19 74.402ZM1131.64 78.3266L1130.79 88.0204L1134.78 88.3682L1135.63 78.6744L1131.64 78.3266ZM1132.4 86.2313L1125.7 87.5406L1126.47 91.4664L1133.17 90.1572L1132.4 86.2313ZM1128.07 89.7083L1132.27 48.949L1128.29 48.5395L1124.09 89.2987L1128.07 89.7083ZM1130.66 50.7072L1136.82 49.5052L1136.05 45.5794L1129.89 46.7813L1130.66 50.7072ZM1134.67 48.4827L1153.94 84.6597L1157.47 82.7789L1138.2 46.6019L1134.67 48.4827ZM1155.32 81.7564L1148.62 83.0656L1149.38 86.9915L1156.09 85.6823L1155.32 81.7564ZM1150.78 84.118L1146.35 75.4544L1142.79 77.2756L1147.22 85.9391L1150.78 84.118ZM1143.39 69.6428L1137.11 57.3465L1133.55 59.1661L1139.83 71.4624L1143.39 69.6428ZM1133.34 58.0911L1132.2 71.8361L1136.18 72.1665L1137.32 58.4215L1133.34 58.0911ZM1134.57 73.9643L1141.99 72.5155L1141.23 68.5897L1133.81 70.0384L1134.57 73.9643ZM1154.47 44.0208L1154.09 42.0578L1152.12 42.4411L1152.51 44.404L1154.47 44.0208ZM1161.17 42.7116L1163.14 42.3283L1162.75 40.3654L1160.79 40.7486L1161.17 42.7116ZM1167.48 75.0293L1165.52 75.4126L1165.9 77.3755L1167.87 76.9922L1167.48 75.0293ZM1180.46 72.4967L1182.42 72.1135L1182.03 70.1505L1180.07 70.5338L1180.46 72.4967ZM1181.66 78.6525L1182.04 80.6154L1184 80.2322L1183.62 78.2692L1181.66 78.6525ZM1161.98 82.4943L1160.02 82.8776L1160.4 84.8405L1162.36 84.4572L1161.98 82.4943ZM1154.85 45.9837L1161.56 44.6745L1160.79 40.7486L1154.09 42.0578L1154.85 45.9837ZM1159.21 43.0948L1165.52 75.4126L1169.45 74.646L1163.14 42.3283L1159.21 43.0948ZM1167.87 76.9922L1180.84 74.4597L1180.07 70.5338L1167.1 73.0664L1167.87 76.9922ZM1178.49 72.88L1179.69 79.0357L1183.62 78.2692L1182.42 72.1135L1178.49 72.88ZM1181.27 76.6895L1161.6 80.5314L1162.36 84.4572L1182.04 80.6154L1181.27 76.6895ZM1163.94 82.111L1156.43 43.6375L1152.51 44.404L1160.02 82.8776L1163.94 82.111ZM1180.5 38.9375L1180.12 36.9745L1178.16 37.3578L1178.54 39.3207L1180.5 38.9375ZM1187.21 37.6283L1189.17 37.245L1188.79 35.2821L1186.83 35.6653L1187.21 37.6283ZM1194.72 76.1018L1195.1 78.0647L1197.07 77.6814L1196.68 75.7185L1194.72 76.1018ZM1188.02 77.411L1186.05 77.7943L1186.44 79.7572L1188.4 79.3739L1188.02 77.411ZM1180.89 40.9004L1187.59 39.5912L1186.83 35.6653L1180.12 36.9745L1180.89 40.9004ZM1185.25 38.0115L1192.76 76.485L1196.68 75.7185L1189.17 37.245L1185.25 38.0115ZM1194.34 74.1388L1187.63 75.4481L1188.4 79.3739L1195.1 78.0647L1194.34 74.1388ZM1189.98 77.0277L1182.47 38.5542L1178.54 39.3207L1186.05 77.7943L1189.98 77.0277ZM1204.2 40.7021L1206.16 40.3189L1205.78 38.3559L1203.81 38.7392L1204.2 40.7021ZM1194.96 42.505L1193 42.8882L1193.38 44.8512L1195.35 44.4679L1194.96 42.505ZM1193.76 36.3492L1193.38 34.3863L1191.41 34.7695L1191.8 36.7325L1193.76 36.3492ZM1218.93 31.4343L1220.9 31.051L1220.51 29.0881L1218.55 29.4713L1218.93 31.4343ZM1220.13 37.59L1220.52 39.553L1222.48 39.1697L1222.1 37.2068L1220.13 37.59ZM1210.9 39.3929L1210.52 37.43L1208.55 37.8132L1208.94 39.7762L1210.9 39.3929ZM1217.21 71.7106L1217.59 73.6736L1219.56 73.2903L1219.17 71.3274L1217.21 71.7106ZM1210.51 73.0199L1208.54 73.4031L1208.93 75.3661L1210.89 74.9828L1210.51 73.0199ZM1203.81 38.7392L1194.58 40.542L1195.35 44.4679L1204.58 42.6651L1203.81 38.7392ZM1196.92 42.1217L1195.72 35.966L1191.8 36.7325L1193 42.8882L1196.92 42.1217ZM1194.14 38.3121L1219.32 33.3972L1218.55 29.4713L1193.38 34.3863L1194.14 38.3121ZM1216.97 31.8175L1218.17 37.9733L1222.1 37.2068L1220.9 31.051L1216.97 31.8175ZM1219.75 35.6271L1210.52 37.43L1211.28 41.3558L1220.52 39.553L1219.75 35.6271ZM1208.94 39.7762L1215.25 72.0939L1219.17 71.3274L1212.86 39.0096L1208.94 39.7762ZM1216.83 69.7477L1210.12 71.0569L1210.89 74.9828L1217.59 73.6736L1216.83 69.7477ZM1212.47 72.6366L1206.16 40.3189L1202.23 41.0854L1208.54 73.4031L1212.47 72.6366ZM1251.45 25.0858L1253.36 25.679L1254.35 22.4812L1251.06 23.1229L1251.45 25.0858ZM1244.09 48.7746L1242.18 48.1814L1242.03 48.663L1242.13 49.1579L1244.09 48.7746ZM1247.42 65.8129L1247.8 67.7758L1249.76 67.3926L1249.38 65.4296L1247.42 65.8129ZM1240.77 67.1114L1238.8 67.4946L1239.19 69.4576L1241.15 69.0743L1240.77 67.1114ZM1237.44 50.0731L1239.4 49.6898L1239.31 49.195L1238.99 48.805L1237.44 50.0731ZM1221.71 30.8914L1221.33 28.9285L1218.04 29.5702L1220.17 32.1595L1221.71 30.8914ZM1228.86 29.4964L1230.43 28.2643L1229.68 27.2985L1228.47 27.5334L1228.86 29.4964ZM1239.58 43.2078L1238 44.4398L1240.43 47.5459L1241.5 43.7511L1239.58 43.2078ZM1244.3 26.4809L1243.92 24.5179L1242.71 24.7537L1242.38 25.9375L1244.3 26.4809ZM1249.54 24.4926L1242.18 48.1814L1246 49.3678L1253.36 25.679L1249.54 24.4926ZM1242.13 49.1579L1245.45 66.1961L1249.38 65.4296L1246.05 48.3914L1242.13 49.1579ZM1247.03 63.8499L1240.38 65.1484L1241.15 69.0743L1247.8 67.7758L1247.03 63.8499ZM1242.73 66.7281L1239.4 49.6898L1235.48 50.4564L1238.8 67.4946L1242.73 66.7281ZM1238.99 48.805L1223.26 29.6234L1220.17 32.1595L1235.89 51.3412L1238.99 48.805ZM1222.1 32.8544L1229.24 31.4593L1228.47 27.5334L1221.33 28.9285L1222.1 32.8544ZM1227.28 30.7284L1238 44.4398L1241.16 41.9758L1230.43 28.2643L1227.28 30.7284ZM1241.5 43.7511L1246.23 27.0242L1242.38 25.9375L1237.66 42.6644L1241.5 43.7511ZM1244.69 28.4438L1251.83 27.0487L1251.06 23.1229L1243.92 24.5179L1244.69 28.4438ZM1257.82 43.3545L1257.44 41.3916L1255.48 41.7748L1255.86 43.7378L1257.82 43.3545ZM1272.5 40.4892L1274.46 40.106L1274.08 38.143L1272.12 38.5263L1272.5 40.4892ZM1273.51 45.6557L1273.89 47.6186L1275.85 47.2354L1275.47 45.2724L1273.51 45.6557ZM1258.83 48.5209L1256.87 48.9042L1257.25 50.8671L1259.22 50.4839L1258.83 48.5209ZM1258.21 45.3174L1272.88 42.4522L1272.12 38.5263L1257.44 41.3916L1258.21 45.3174ZM1270.54 40.8725L1271.54 46.0389L1275.47 45.2724L1274.46 40.106L1270.54 40.8725ZM1273.12 43.6927L1258.45 46.558L1259.22 50.4839L1273.89 47.6186L1273.12 43.6927ZM1260.8 48.1377L1259.79 42.9712L1255.86 43.7378L1256.87 48.9042L1260.8 48.1377ZM1290.55 55.6225L1289.75 57.4577L1289.77 57.4645L1289.79 57.471L1290.55 55.6225ZM1283.41 49.7142L1281.78 50.8798L1281.79 50.8872L1283.41 49.7142ZM1279.32 28.7736L1281.26 29.2512L1281.26 29.2422L1279.32 28.7736ZM1283.71 20.6116L1285.13 22.0275L1285.13 22.0227L1283.71 20.6116ZM1300.58 17.2622L1299.8 19.1054L1299.81 19.1106L1300.58 17.2622ZM1307.78 23.1598L1306.15 24.3254L1306.15 24.3254L1307.78 23.1598ZM1311.88 44.1553L1313.82 44.624L1311.88 44.1553ZM1307.42 52.328L1306.02 50.9025L1306.01 50.9122L1307.42 52.328ZM1304.28 44.7247L1306.14 45.4751L1306.14 45.4751L1304.28 44.7247ZM1300.53 25.4879L1301.96 24.0953L1301.96 24.0953L1300.53 25.4879ZM1286.9 28.1493L1285.04 27.3989L1285.04 27.3989L1286.9 28.1493ZM1290.65 47.386L1292.09 45.9934L1292.09 45.9934L1290.65 47.386ZM1299.11 54.4803C1296.33 55.0246 1293.74 54.7782 1291.31 53.7741L1289.79 57.471C1292.98 58.7916 1296.37 59.0923 1299.88 58.4061L1299.11 54.4803ZM1291.34 53.7873C1288.93 52.7394 1286.82 51.0165 1285.02 48.5411L1281.79 50.8872C1283.95 53.8772 1286.61 56.0933 1289.75 57.4577L1291.34 53.7873ZM1285.03 48.5486C1283.24 46.0515 1281.96 42.9672 1281.23 39.2409L1277.3 40.0074C1278.12 44.1957 1279.6 47.838 1281.78 50.8798L1285.03 48.5486ZM1281.23 39.2409C1280.5 35.5139 1280.53 32.196 1281.26 29.2512L1277.37 28.296C1276.49 31.9041 1276.49 35.8199 1277.3 40.0074L1281.23 39.2409ZM1281.26 29.2422C1281.98 26.2397 1283.29 23.8621 1285.13 22.0274L1282.3 19.1958C1279.87 21.6175 1278.25 24.6813 1277.37 28.3049L1281.26 29.2422ZM1285.13 22.0227C1287 20.1477 1289.29 18.9362 1292.07 18.3937L1291.3 14.4678C1287.78 15.1558 1284.75 16.7315 1282.3 19.2005L1285.13 22.0227ZM1292.07 18.3937C1294.86 17.8493 1297.41 18.1003 1299.8 19.1053L1301.35 15.419C1298.19 14.085 1294.82 13.7817 1291.3 14.4678L1292.07 18.3937ZM1299.81 19.1106C1302.24 20.1137 1304.36 21.8223 1306.15 24.3254L1309.4 21.9942C1307.22 18.9585 1304.54 16.7353 1301.34 15.4137L1299.81 19.1106ZM1306.15 24.3254C1307.94 26.8224 1309.22 29.9067 1309.95 33.633L1313.88 32.8665C1313.06 28.6783 1311.58 25.0359 1309.4 21.9942L1306.15 24.3254ZM1309.95 33.633C1310.68 37.3593 1310.65 40.6994 1309.93 43.6867L1313.82 44.624C1314.7 40.9851 1314.7 37.0548 1313.88 32.8665L1309.95 33.633ZM1309.93 43.6867C1309.21 46.6812 1307.89 49.0598 1306.02 50.9026L1308.83 53.7535C1311.29 51.3255 1312.94 48.2557 1313.82 44.624L1309.93 43.6867ZM1306.01 50.9122C1304.18 52.7411 1301.9 53.9359 1299.11 54.4803L1299.88 58.4061C1303.39 57.72 1306.4 56.1713 1308.84 53.7438L1306.01 50.9122ZM1298.56 51.6458C1302.17 50.9411 1304.77 48.8489 1306.14 45.4751L1302.43 43.9743C1301.59 46.0523 1300.12 47.2656 1297.79 47.7199L1298.56 51.6458ZM1306.14 45.4751C1307.43 42.2765 1307.56 38.4951 1306.73 34.2616L1302.81 35.0281C1303.54 38.7824 1303.34 41.7209 1302.43 43.9743L1306.14 45.4751ZM1306.73 34.2616C1305.91 30.0281 1304.37 26.5719 1301.96 24.0953L1299.09 26.8806C1300.79 28.6253 1302.07 31.2738 1302.81 35.0281L1306.73 34.2616ZM1301.96 24.0953C1299.43 21.4829 1296.23 20.5235 1292.62 21.2282L1293.39 25.154C1295.71 24.6997 1297.53 25.2715 1299.09 26.8806L1301.96 24.0953ZM1292.62 21.2282C1289.01 21.9328 1286.41 24.025 1285.04 27.3989L1288.75 28.8997C1289.59 26.8216 1291.06 25.6084 1293.39 25.154L1292.62 21.2282ZM1285.04 27.3989C1283.75 30.5974 1283.62 34.3789 1284.45 38.6124L1288.37 37.8458C1287.64 34.0915 1287.84 31.1531 1288.75 28.8997L1285.04 27.3989ZM1284.45 38.6124C1285.28 42.8459 1286.82 46.3021 1289.22 48.7787L1292.09 45.9934C1290.4 44.2486 1289.11 41.6002 1288.37 37.8458L1284.45 38.6124ZM1289.22 48.7787C1291.75 51.391 1294.95 52.3504 1298.56 51.6458L1297.79 47.7199C1295.47 48.1743 1293.65 47.6024 1292.09 45.9934L1289.22 48.7787ZM1316.2 12.443L1315.82 10.4801L1313.85 10.8634L1314.24 12.8263L1316.2 12.443ZM1323.07 11.1016L1324.62 9.84415L1323.87 8.908L1322.69 9.1387L1323.07 11.1016ZM1340.52 32.6854L1338.97 33.9429L1342.48 32.3021L1340.52 32.6854ZM1335.82 8.61197L1335.44 6.64904L1333.47 7.0323L1333.86 8.99523L1335.82 8.61197ZM1342.53 7.30275L1344.49 6.91949L1344.11 4.95656L1342.14 5.33982L1342.53 7.30275ZM1350.04 45.7763L1350.42 47.7392L1352.38 47.3559L1352 45.393L1350.04 45.7763ZM1344.16 46.9245L1342.61 48.1902L1343.37 49.1168L1344.54 48.8874L1344.16 46.9245ZM1325.42 23.995L1326.96 22.7293L1323.45 24.3782L1325.42 23.995ZM1330.42 49.6073L1330.8 51.5703L1332.76 51.187L1332.38 49.2241L1330.42 49.6073ZM1323.71 50.9166L1321.75 51.2998L1322.13 53.2628L1324.09 52.8795L1323.71 50.9166ZM1316.58 14.406L1323.45 13.0646L1322.69 9.1387L1315.82 10.4801L1316.58 14.406ZM1321.51 12.3591L1338.97 33.9429L1342.08 31.4279L1324.62 9.84415L1321.51 12.3591ZM1342.48 32.3021L1337.78 8.22871L1333.86 8.99523L1338.56 33.0687L1342.48 32.3021ZM1336.2 10.5749L1342.91 9.26569L1342.14 5.33982L1335.44 6.64904L1336.2 10.5749ZM1340.56 7.68601L1348.08 46.1595L1352 45.393L1344.49 6.91949L1340.56 7.68601ZM1349.65 43.8133L1343.77 44.9616L1344.54 48.8874L1350.42 47.7392L1349.65 43.8133ZM1345.71 45.6588L1326.96 22.7293L1323.87 25.2607L1342.61 48.1902L1345.71 45.6588ZM1323.45 24.3782L1328.45 49.9906L1332.38 49.2241L1327.38 23.6117L1323.45 24.3782ZM1330.03 47.6444L1323.33 48.9536L1324.09 52.8795L1330.8 51.5703L1330.03 47.6444ZM1325.67 50.5333L1318.16 12.0598L1314.24 12.8263L1321.75 51.2998L1325.67 50.5333ZM1352.55 5.34612L1352.16 3.38319L1350.2 3.76645L1350.58 5.72938L1352.55 5.34612ZM1374.15 1.12872L1376.11 0.745456L1375.73 -1.21748L1373.76 -0.834217L1374.15 1.12872ZM1375.35 7.28448L1375.73 9.24742L1377.7 8.86415L1377.31 6.90122L1375.35 7.28448ZM1360.45 10.1927L1360.07 8.22973L1358.11 8.61299L1358.49 10.5759L1360.45 10.1927ZM1362.23 19.2614L1360.26 19.6447L1360.65 21.6076L1362.61 21.2244L1362.23 19.2614ZM1373.71 17.0186L1375.68 16.6353L1375.29 14.6724L1373.33 15.0556L1373.71 17.0186ZM1374.91 23.1743L1375.3 25.1373L1377.26 24.754L1376.88 22.7911L1374.91 23.1743ZM1363.43 25.4172L1363.04 23.4542L1361.08 23.8375L1361.46 25.8004L1363.43 25.4172ZM1365.56 36.3547L1363.6 36.7379L1363.98 38.7008L1365.95 38.3176L1365.56 36.3547ZM1380.95 33.3499L1382.92 32.9666L1382.53 31.0037L1380.57 31.387L1380.95 33.3499ZM1382.15 39.5056L1382.54 41.4686L1384.5 41.0853L1384.12 39.1224L1382.15 39.5056ZM1360.06 43.8196L1358.1 44.2029L1358.48 46.1658L1360.44 45.7826L1360.06 43.8196ZM1352.93 7.30906L1374.53 3.09165L1373.76 -0.834217L1352.16 3.38319L1352.93 7.30906ZM1372.18 1.51198L1373.39 7.66774L1377.31 6.90122L1376.11 0.745456L1372.18 1.51198ZM1374.97 5.32155L1360.07 8.22973L1360.84 12.1556L1375.73 9.24742L1374.97 5.32155ZM1358.49 10.5759L1360.26 19.6447L1364.19 18.8782L1362.42 9.80941L1358.49 10.5759ZM1362.61 21.2244L1374.1 18.9815L1373.33 15.0556L1361.84 17.2985L1362.61 21.2244ZM1371.75 17.4018L1372.95 23.5576L1376.88 22.7911L1375.68 16.6353L1371.75 17.4018ZM1374.53 21.2114L1363.04 23.4542L1363.81 27.3801L1375.3 25.1373L1374.53 21.2114ZM1361.46 25.8004L1363.6 36.7379L1367.53 35.9714L1365.39 25.0339L1361.46 25.8004ZM1365.95 38.3176L1381.34 35.3128L1380.57 31.387L1365.18 34.3917L1365.95 38.3176ZM1378.99 33.7331L1380.19 39.8889L1384.12 39.1224L1382.92 32.9666L1378.99 33.7331ZM1381.77 37.5427L1359.68 41.8567L1360.44 45.7826L1382.54 41.4686L1381.77 37.5427ZM1362.02 43.4364L1354.51 4.96286L1350.58 5.72938L1358.1 44.2029L1362.02 43.4364Z" fill="#643617" mask="url(#path-1-outside-1_303_41254)"/>
</g>
</svg>
