<svg width="1405" height="50" viewBox="0 0 1405 50" fill="none" xmlns="http://www.w3.org/2000/svg">
<g opacity="0.3">
<mask id="path-1-outside-1_303_41254" maskUnits="userSpaceOnUse" x="-2.64453" y="-1.99426" width="1405" height="50" fill="black">
<rect fill="white" x="-2.64453" y="-1.99426" width="1405" height="50"/>
<path d="M29.1555 40.7897L25.9635 37.7657C23.3128 39.7817 20.2141 40.7897 16.6675 40.7897C13.4568 40.7897 10.5821 39.9497 8.04347 38.2697C5.54214 36.5524 3.58214 34.1631 2.16347 31.1017C0.744802 28.0031 0.0354687 24.4377 0.0354687 20.4057C0.0354687 16.3737 0.744802 12.8271 2.16347 9.76574C3.58214 6.66707 5.54214 4.27773 8.04347 2.59773C10.5821 0.880401 13.4568 0.0217342 16.6675 0.0217342C19.8781 0.0217342 22.7341 0.861734 25.2355 2.54174C27.7741 4.22174 29.7528 6.61107 31.1715 9.70974C32.5901 12.8084 33.2995 16.3737 33.2995 20.4057C33.2995 25.3337 32.2355 29.5711 30.1075 33.1177L33.5795 36.3657L29.1555 40.7897ZM16.6675 33.9017C18.2728 33.9017 19.6541 33.5657 20.8115 32.8937L16.6115 28.9177L21.0355 24.4937L24.7315 28.0217C25.5901 25.8564 26.0195 23.3177 26.0195 20.4057C26.0195 16.3364 25.2168 13.0697 23.6115 10.6057C22.0061 8.14173 19.6915 6.90974 16.6675 6.90974C13.6435 6.90974 11.3288 8.14173 9.72347 10.6057C8.11814 13.0697 7.31547 16.3364 7.31547 20.4057C7.31547 24.4751 8.11814 27.7417 9.72347 30.2057C11.3288 32.6697 13.6435 33.9017 16.6675 33.9017ZM55.1561 40.7897C50.5268 40.7897 47.0361 39.3897 44.6841 36.5897C42.3321 33.7524 41.1561 29.8511 41.1561 24.8857V0.805734H47.9881V23.0377C47.9881 26.5844 48.4921 29.2911 49.5001 31.1577C50.5454 32.9871 52.4308 33.9017 55.1561 33.9017C57.9188 33.9017 59.8041 32.9871 60.8121 31.1577C61.8201 29.2911 62.3241 26.5844 62.3241 23.0377V0.805734H69.1561V24.8857C69.1561 29.8511 67.9801 33.7524 65.6281 36.5897C63.2761 39.3897 59.7854 40.7897 55.1561 40.7897ZM95.0543 30.6537H83.9103L81.2223 40.0057H74.3903L86.3183 0.805734H92.5903L104.574 40.0057H97.7423L95.0543 30.6537ZM93.2623 24.3817L89.4543 11.1097L85.7023 24.3817H93.2623ZM110.967 0.805734H117.799V33.7337H131.015V40.0057H110.967V0.805734ZM137.494 0.805734H144.326V40.0057H137.494V0.805734ZM160.408 7.07774H151V0.805734H176.648V7.07774H167.24V40.0057H160.408V7.07774ZM209.777 0.805734L198.017 22.6457V40.0057H191.241V22.6457L179.481 0.805734H186.761L194.657 16.3177L202.497 0.805734H209.777ZM212.534 19.9577H227.486V25.2217H212.534V19.9577ZM250.927 40.7897C247.716 40.7897 244.841 39.9497 242.303 38.2697C239.801 36.5524 237.841 34.1631 236.423 31.1017C235.004 28.0031 234.295 24.4377 234.295 20.4057C234.295 16.3737 235.004 12.8271 236.423 9.76574C237.841 6.66707 239.801 4.27773 242.303 2.59773C244.841 0.880401 247.716 0.0217342 250.927 0.0217342C254.137 0.0217342 256.993 0.861734 259.495 2.54174C262.033 4.22174 264.012 6.61107 265.431 9.70974C266.849 12.8084 267.559 16.3737 267.559 20.4057C267.559 24.4377 266.849 28.0031 265.431 31.1017C264.012 34.2004 262.033 36.5897 259.495 38.2697C256.993 39.9497 254.137 40.7897 250.927 40.7897ZM250.927 33.9017C253.951 33.9017 256.265 32.6697 257.871 30.2057C259.476 27.7417 260.279 24.4751 260.279 20.4057C260.279 16.3364 259.476 13.0697 257.871 10.6057C256.265 8.14173 253.951 6.90974 250.927 6.90974C247.903 6.90974 245.588 8.14173 243.983 10.6057C242.377 13.0697 241.575 16.3364 241.575 20.4057C241.575 24.4751 242.377 27.7417 243.983 30.2057C245.588 32.6697 247.903 33.9017 250.927 33.9017ZM275.751 0.805734H282.751L295.743 25.3337V0.805734H302.575V40.0057H296.583L282.583 13.9097V40.0057H275.751V0.805734ZM312.786 0.805734H334.794V7.07774H319.618V16.3177H331.322V22.5897H319.618V33.7337H335.298V40.0057H312.786V0.805734ZM384.154 40.7897L380.962 37.7657C378.311 39.7817 375.213 40.7897 371.666 40.7897C368.455 40.7897 365.581 39.9497 363.042 38.2697C360.541 36.5524 358.581 34.1631 357.162 31.1017C355.743 28.0031 355.034 24.4377 355.034 20.4057C355.034 16.3737 355.743 12.8271 357.162 9.76574C358.581 6.66707 360.541 4.27773 363.042 2.59773C365.581 0.880401 368.455 0.0217342 371.666 0.0217342C374.877 0.0217342 377.733 0.861734 380.234 2.54174C382.773 4.22174 384.751 6.61107 386.17 9.70974C387.589 12.8084 388.298 16.3737 388.298 20.4057C388.298 25.3337 387.234 29.5711 385.106 33.1177L388.578 36.3657L384.154 40.7897ZM371.666 33.9017C373.271 33.9017 374.653 33.5657 375.81 32.8937L371.61 28.9177L376.034 24.4937L379.73 28.0217C380.589 25.8564 381.018 23.3177 381.018 20.4057C381.018 16.3364 380.215 13.0697 378.61 10.6057C377.005 8.14173 374.69 6.90974 371.666 6.90974C368.642 6.90974 366.327 8.14173 364.722 10.6057C363.117 13.0697 362.314 16.3364 362.314 20.4057C362.314 24.4751 363.117 27.7417 364.722 30.2057C366.327 32.6697 368.642 33.9017 371.666 33.9017ZM410.155 40.7897C405.525 40.7897 402.035 39.3897 399.683 36.5897C397.331 33.7524 396.155 29.8511 396.155 24.8857V0.805734H402.987V23.0377C402.987 26.5844 403.491 29.2911 404.499 31.1577C405.544 32.9871 407.429 33.9017 410.155 33.9017C412.917 33.9017 414.803 32.9871 415.811 31.1577C416.819 29.2911 417.323 26.5844 417.323 23.0377V0.805734H424.154V24.8857C424.154 29.8511 422.979 33.7524 420.627 36.5897C418.275 39.3897 414.784 40.7897 410.155 40.7897ZM450.053 30.6537H438.909L436.221 40.0057H429.389L441.317 0.805734H447.589L459.573 40.0057H452.741L450.053 30.6537ZM448.261 24.3817L444.453 11.1097L440.701 24.3817H448.261ZM465.966 0.805734H472.798V33.7337H486.014V40.0057H465.966V0.805734ZM492.492 0.805734H499.324V40.0057H492.492V0.805734ZM515.407 7.07774H505.999V0.805734H531.647V7.07774H522.239V40.0057H515.407V7.07774ZM564.775 0.805734L553.015 22.6457V40.0057H546.239V22.6457L534.479 0.805734H541.759L549.655 16.3177L557.495 0.805734H564.775ZM567.532 19.9577H582.484V25.2217H567.532V19.9577ZM605.925 40.7897C602.715 40.7897 599.84 39.9497 597.301 38.2697C594.8 36.5524 592.84 34.1631 591.421 31.1017C590.003 28.0031 589.293 24.4377 589.293 20.4057C589.293 16.3737 590.003 12.8271 591.421 9.76574C592.84 6.66707 594.8 4.27773 597.301 2.59773C599.84 0.880401 602.715 0.0217342 605.925 0.0217342C609.136 0.0217342 611.992 0.861734 614.493 2.54174C617.032 4.22174 619.011 6.61107 620.429 9.70974C621.848 12.8084 622.557 16.3737 622.557 20.4057C622.557 24.4377 621.848 28.0031 620.429 31.1017C619.011 34.2004 617.032 36.5897 614.493 38.2697C611.992 39.9497 609.136 40.7897 605.925 40.7897ZM605.925 33.9017C608.949 33.9017 611.264 32.6697 612.869 30.2057C614.475 27.7417 615.277 24.4751 615.277 20.4057C615.277 16.3364 614.475 13.0697 612.869 10.6057C611.264 8.14173 608.949 6.90974 605.925 6.90974C602.901 6.90974 600.587 8.14173 598.981 10.6057C597.376 13.0697 596.573 16.3364 596.573 20.4057C596.573 24.4751 597.376 27.7417 598.981 30.2057C600.587 32.6697 602.901 33.9017 605.925 33.9017ZM630.75 0.805734H637.75L650.742 25.3337V0.805734H657.574V40.0057H651.582L637.582 13.9097V40.0057H630.75V0.805734ZM667.784 0.805734H689.792V7.07774H674.616V16.3177H686.32V22.5897H674.616V33.7337H690.296V40.0057H667.784V0.805734ZM739.152 40.7897L735.96 37.7657C733.31 39.7817 730.211 40.7897 726.664 40.7897C723.454 40.7897 720.579 39.9497 718.04 38.2697C715.539 36.5524 713.579 34.1631 712.16 31.1017C710.742 28.0031 710.032 24.4377 710.032 20.4057C710.032 16.3737 710.742 12.8271 712.16 9.76574C713.579 6.66707 715.539 4.27773 718.04 2.59773C720.579 0.880401 723.454 0.0217342 726.664 0.0217342C729.875 0.0217342 732.731 0.861734 735.232 2.54174C737.771 4.22174 739.75 6.61107 741.168 9.70974C742.587 12.8084 743.296 16.3737 743.296 20.4057C743.296 25.3337 742.232 29.5711 740.104 33.1177L743.576 36.3657L739.152 40.7897ZM726.664 33.9017C728.27 33.9017 729.651 33.5657 730.808 32.8937L726.608 28.9177L731.032 24.4937L734.728 28.0217C735.587 25.8564 736.016 23.3177 736.016 20.4057C736.016 16.3364 735.214 13.0697 733.608 10.6057C732.003 8.14173 729.688 6.90974 726.664 6.90974C723.64 6.90974 721.326 8.14173 719.72 10.6057C718.115 13.0697 717.312 16.3364 717.312 20.4057C717.312 24.4751 718.115 27.7417 719.72 30.2057C721.326 32.6697 723.64 33.9017 726.664 33.9017ZM765.153 40.7897C760.524 40.7897 757.033 39.3897 754.681 36.5897C752.329 33.7524 751.153 29.8511 751.153 24.8857V0.805734H757.985V23.0377C757.985 26.5844 758.489 29.2911 759.497 31.1577C760.542 32.9871 762.428 33.9017 765.153 33.9017C767.916 33.9017 769.801 32.9871 770.809 31.1577C771.817 29.2911 772.321 26.5844 772.321 23.0377V0.805734H779.153V24.8857C779.153 29.8511 777.977 33.7524 775.625 36.5897C773.273 39.3897 769.782 40.7897 765.153 40.7897ZM805.051 30.6537H793.907L791.219 40.0057H784.387L796.315 0.805734H802.587L814.571 40.0057H807.739L805.051 30.6537ZM803.259 24.3817L799.451 11.1097L795.699 24.3817H803.259ZM820.964 0.805734H827.796V33.7337H841.012V40.0057H820.964V0.805734ZM847.49 0.805734H854.322V40.0057H847.49V0.805734ZM870.405 7.07774H860.997V0.805734H886.645V7.07774H877.237V40.0057H870.405V7.07774ZM919.774 0.805734L908.014 22.6457V40.0057H901.238V22.6457L889.478 0.805734H896.758L904.654 16.3177L912.494 0.805734H919.774ZM922.531 19.9577H937.483V25.2217H922.531V19.9577ZM960.924 40.7897C957.713 40.7897 954.838 39.9497 952.3 38.2697C949.798 36.5524 947.838 34.1631 946.42 31.1017C945.001 28.0031 944.292 24.4377 944.292 20.4057C944.292 16.3737 945.001 12.8271 946.42 9.76574C947.838 6.66707 949.798 4.27773 952.3 2.59773C954.838 0.880401 957.713 0.0217342 960.924 0.0217342C964.134 0.0217342 966.99 0.861734 969.492 2.54174C972.03 4.22174 974.009 6.61107 975.428 9.70974C976.846 12.8084 977.556 16.3737 977.556 20.4057C977.556 24.4377 976.846 28.0031 975.428 31.1017C974.009 34.2004 972.03 36.5897 969.492 38.2697C966.99 39.9497 964.134 40.7897 960.924 40.7897ZM960.924 33.9017C963.948 33.9017 966.262 32.6697 967.868 30.2057C969.473 27.7417 970.276 24.4751 970.276 20.4057C970.276 16.3364 969.473 13.0697 967.868 10.6057C966.262 8.14173 963.948 6.90974 960.924 6.90974C957.9 6.90974 955.585 8.14173 953.98 10.6057C952.374 13.0697 951.572 16.3364 951.572 20.4057C951.572 24.4751 952.374 27.7417 953.98 30.2057C955.585 32.6697 957.9 33.9017 960.924 33.9017ZM985.748 0.805734H992.748L1005.74 25.3337V0.805734H1012.57V40.0057H1006.58L992.58 13.9097V40.0057H985.748V0.805734ZM1022.78 0.805734H1044.79V7.07774H1029.61V16.3177H1041.32V22.5897H1029.61V33.7337H1045.29V40.0057H1022.78V0.805734ZM1094.15 40.7897L1090.96 37.7657C1088.31 39.7817 1085.21 40.7897 1081.66 40.7897C1078.45 40.7897 1075.58 39.9497 1073.04 38.2697C1070.54 36.5524 1068.58 34.1631 1067.16 31.1017C1065.74 28.0031 1065.03 24.4377 1065.03 20.4057C1065.03 16.3737 1065.74 12.8271 1067.16 9.76574C1068.58 6.66707 1070.54 4.27773 1073.04 2.59773C1075.58 0.880401 1078.45 0.0217342 1081.66 0.0217342C1084.87 0.0217342 1087.73 0.861734 1090.23 2.54174C1092.77 4.22174 1094.75 6.61107 1096.17 9.70974C1097.59 12.8084 1098.29 16.3737 1098.29 20.4057C1098.29 25.3337 1097.23 29.5711 1095.1 33.1177L1098.57 36.3657L1094.15 40.7897ZM1081.66 33.9017C1083.27 33.9017 1084.65 33.5657 1085.81 32.8937L1081.61 28.9177L1086.03 24.4937L1089.73 28.0217C1090.59 25.8564 1091.01 23.3177 1091.01 20.4057C1091.01 16.3364 1090.21 13.0697 1088.61 10.6057C1087 8.14173 1084.69 6.90974 1081.66 6.90974C1078.64 6.90974 1076.32 8.14173 1074.72 10.6057C1073.11 13.0697 1072.31 16.3364 1072.31 20.4057C1072.31 24.4751 1073.11 27.7417 1074.72 30.2057C1076.32 32.6697 1078.64 33.9017 1081.66 33.9017ZM1120.15 40.7897C1115.52 40.7897 1112.03 39.3897 1109.68 36.5897C1107.33 33.7524 1106.15 29.8511 1106.15 24.8857V0.805734H1112.98V23.0377C1112.98 26.5844 1113.49 29.2911 1114.5 31.1577C1115.54 32.9871 1117.43 33.9017 1120.15 33.9017C1122.91 33.9017 1124.8 32.9871 1125.81 31.1577C1126.82 29.2911 1127.32 26.5844 1127.32 23.0377V0.805734H1134.15V24.8857C1134.15 29.8511 1132.98 33.7524 1130.62 36.5897C1128.27 39.3897 1124.78 40.7897 1120.15 40.7897ZM1160.05 30.6537H1148.91L1146.22 40.0057H1139.39L1151.31 0.805734H1157.59L1169.57 40.0057H1162.74L1160.05 30.6537ZM1158.26 24.3817L1154.45 11.1097L1150.7 24.3817H1158.26ZM1175.96 0.805734H1182.79V33.7337H1196.01V40.0057H1175.96V0.805734ZM1202.49 0.805734H1209.32V40.0057H1202.49V0.805734ZM1225.4 7.07774H1216V0.805734H1241.64V7.07774H1232.24V40.0057H1225.4V7.07774ZM1274.77 0.805734L1263.01 22.6457V40.0057H1256.24V22.6457L1244.48 0.805734H1251.76L1259.65 16.3177L1267.49 0.805734H1274.77ZM1277.53 19.9577H1292.48V25.2217H1277.53V19.9577ZM1315.92 40.7897C1312.71 40.7897 1309.84 39.9497 1307.3 38.2697C1304.8 36.5524 1302.84 34.1631 1301.42 31.1017C1300 28.0031 1299.29 24.4377 1299.29 20.4057C1299.29 16.3737 1300 12.8271 1301.42 9.76574C1302.84 6.66707 1304.8 4.27773 1307.3 2.59773C1309.84 0.880401 1312.71 0.0217342 1315.92 0.0217342C1319.13 0.0217342 1321.99 0.861734 1324.49 2.54174C1327.03 4.22174 1329.01 6.61107 1330.43 9.70974C1331.84 12.8084 1332.55 16.3737 1332.55 20.4057C1332.55 24.4377 1331.84 28.0031 1330.43 31.1017C1329.01 34.2004 1327.03 36.5897 1324.49 38.2697C1321.99 39.9497 1319.13 40.7897 1315.92 40.7897ZM1315.92 33.9017C1318.95 33.9017 1321.26 32.6697 1322.87 30.2057C1324.47 27.7417 1325.27 24.4751 1325.27 20.4057C1325.27 16.3364 1324.47 13.0697 1322.87 10.6057C1321.26 8.14173 1318.95 6.90974 1315.92 6.90974C1312.9 6.90974 1310.58 8.14173 1308.98 10.6057C1307.37 13.0697 1306.57 16.3364 1306.57 20.4057C1306.57 24.4751 1307.37 27.7417 1308.98 30.2057C1310.58 32.6697 1312.9 33.9017 1315.92 33.9017ZM1340.75 0.805734H1347.75L1360.74 25.3337V0.805734H1367.57V40.0057H1361.58L1347.58 13.9097V40.0057H1340.75V0.805734ZM1377.78 0.805734H1399.79V7.07774H1384.61V16.3177H1396.32V22.5897H1384.61V33.7337H1400.29V40.0057H1377.78V0.805734Z"/>
</mask>
<path d="M29.1555 40.7897L27.78 42.2416L29.1932 43.5805L30.5697 42.2039L29.1555 40.7897ZM25.9635 37.7657L27.339 36.3138L26.1053 35.1451L24.7527 36.1738L25.9635 37.7657ZM8.04347 38.2697L6.91146 39.9185L6.92551 39.9282L6.93973 39.9376L8.04347 38.2697ZM2.16347 31.1017L0.344974 31.9343L0.348848 31.9427L2.16347 31.1017ZM2.16347 9.76574L3.97811 10.6067L3.98194 10.5983L2.16347 9.76574ZM8.04347 2.59773L9.15859 4.25802L9.16409 4.2543L8.04347 2.59773ZM25.2355 2.54174L24.1203 4.20205L24.1317 4.2096L25.2355 2.54174ZM31.1715 9.70974L29.353 10.5423L29.353 10.5423L31.1715 9.70974ZM30.1075 33.1177L28.3925 32.0887L27.5611 33.4744L28.7412 34.5783L30.1075 33.1177ZM33.5795 36.3657L34.9937 37.7799L36.4558 36.3178L34.9458 34.9052L33.5795 36.3657ZM20.8115 32.8937L21.8157 34.6233L24.1289 33.2802L22.1864 31.4413L20.8115 32.8937ZM16.6115 28.9177L15.1973 27.5035L13.7438 28.957L15.2365 30.3701L16.6115 28.9177ZM21.0355 24.4937L22.4164 23.047L21.003 21.6978L19.6213 23.0795L21.0355 24.4937ZM24.7315 28.0217L23.3505 29.4684L25.4968 31.5172L26.5906 28.759L24.7315 28.0217ZM23.6115 10.6057L25.2872 9.51397L25.2872 9.51397L23.6115 10.6057ZM9.72347 10.6057L8.04774 9.51397L8.04774 9.51397L9.72347 10.6057ZM9.72347 30.2057L11.3992 29.114L11.3992 29.114L9.72347 30.2057ZM30.531 39.3378L27.339 36.3138L24.588 39.2176L27.78 42.2416L30.531 39.3378ZM24.7527 36.1738C22.4736 37.9073 19.8071 38.7897 16.6675 38.7897V42.7897C20.6212 42.7897 24.152 41.6562 27.1742 39.3576L24.7527 36.1738ZM16.6675 38.7897C13.8267 38.7897 11.3402 38.0531 9.1472 36.6019L6.93973 39.9376C9.8241 41.8464 13.0869 42.7897 16.6675 42.7897V38.7897ZM9.17548 36.6209C7.00233 35.1289 5.26319 33.0339 3.97809 30.2608L0.348848 31.9427C1.90108 35.2922 4.08194 37.9759 6.91146 39.9185L9.17548 36.6209ZM3.98194 30.2692C2.70279 27.4752 2.03547 24.2024 2.03547 20.4057H-1.96453C-1.96453 24.6731 -1.21319 28.5309 0.344994 31.9343L3.98194 30.2692ZM2.03547 20.4057C2.03547 16.6083 2.70303 13.3581 3.97809 10.6067L0.348848 8.92481C-1.21342 12.296 -1.96453 16.1391 -1.96453 20.4057H2.03547ZM3.98194 10.5983C5.26763 7.79009 7.00224 5.7063 9.15858 4.25801L6.92836 0.937456C4.08203 2.84917 1.89664 5.54405 0.344994 8.93318L3.98194 10.5983ZM9.16409 4.2543C11.3556 2.77178 13.8362 2.02173 16.6675 2.02173V-1.97827C13.0774 -1.97827 9.80862 -1.01097 6.92285 0.941168L9.16409 4.2543ZM16.6675 2.02173C19.5083 2.02173 21.9708 2.75826 24.1204 4.20201L26.3506 0.881457C23.4975 -1.03479 20.2479 -1.97827 16.6675 -1.97827V2.02173ZM24.1317 4.2096C26.3226 5.65943 28.0707 7.74158 29.353 10.5423L32.9899 8.87718C31.4349 5.48056 29.2257 2.78404 26.3392 0.873871L24.1317 4.2096ZM29.353 10.5423C30.6321 13.3362 31.2995 16.6091 31.2995 20.4057H35.2995C35.2995 16.1384 34.5481 12.2806 32.9899 8.87718L29.353 10.5423ZM31.2995 20.4057C31.2995 25.0411 30.301 28.9078 28.3925 32.0887L31.8225 34.1467C34.1699 30.2343 35.2995 25.6264 35.2995 20.4057H31.2995ZM28.7412 34.5783L32.2132 37.8263L34.9458 34.9052L31.4738 31.6572L28.7412 34.5783ZM32.1653 34.9515L27.7413 39.3755L30.5697 42.2039L34.9937 37.7799L32.1653 34.9515ZM16.6675 35.9017C18.555 35.9017 20.2977 35.5048 21.8157 34.6233L19.8072 31.1642C19.0106 31.6267 17.9906 31.9017 16.6675 31.9017V35.9017ZM22.1864 31.4413L17.9864 27.4653L15.2365 30.3701L19.4365 34.3461L22.1864 31.4413ZM18.0257 30.3319L22.4497 25.9079L19.6213 23.0795L15.1973 27.5035L18.0257 30.3319ZM19.6545 25.9404L23.3505 29.4684L26.1124 26.575L22.4164 23.047L19.6545 25.9404ZM26.5906 28.759C27.5624 26.3084 28.0195 23.5093 28.0195 20.4057H24.0195C24.0195 23.1261 23.6179 25.4044 22.8723 27.2845L26.5906 28.759ZM28.0195 20.4057C28.0195 16.0923 27.1708 12.4051 25.2872 9.51397L21.9357 11.6975C23.2628 13.7343 24.0195 16.5805 24.0195 20.4057H28.0195ZM25.2872 9.51397C23.3003 6.46434 20.3446 4.90974 16.6675 4.90974V8.90974C19.0384 8.90974 20.712 9.81913 21.9357 11.6975L25.2872 9.51397ZM16.6675 4.90974C12.9904 4.90974 10.0346 6.46434 8.04774 9.51397L11.3992 11.6975C12.623 9.81913 14.2966 8.90974 16.6675 8.90974V4.90974ZM8.04774 9.51397C6.1641 12.4051 5.31547 16.0923 5.31547 20.4057H9.31547C9.31547 16.5805 10.0722 13.7343 11.3992 11.6975L8.04774 9.51397ZM5.31547 20.4057C5.31547 24.7192 6.1641 28.4063 8.04774 31.2975L11.3992 29.114C10.0722 27.0771 9.31547 24.231 9.31547 20.4057H5.31547ZM8.04774 31.2975C10.0346 34.3471 12.9904 35.9017 16.6675 35.9017V31.9017C14.2966 31.9017 12.623 30.9923 11.3992 29.114L8.04774 31.2975ZM44.6841 36.5897L43.1443 37.8661L43.1527 37.8761L44.6841 36.5897ZM41.1561 0.805734V-1.19427H39.1561V0.805734H41.1561ZM47.9881 0.805734H49.9881V-1.19427H47.9881V0.805734ZM49.5001 31.1577L47.7403 32.108L47.7517 32.1292L47.7636 32.15L49.5001 31.1577ZM60.8121 31.1577L62.5638 32.1229L62.5679 32.1155L62.5719 32.108L60.8121 31.1577ZM62.3241 0.805734V-1.19427H60.3241V0.805734H62.3241ZM69.1561 0.805734H71.1561V-1.19427H69.1561V0.805734ZM65.6281 36.5897L67.1595 37.8761L67.1678 37.8661L65.6281 36.5897ZM55.1561 38.7897C50.9475 38.7897 48.0902 37.5351 46.2155 35.3034L43.1527 37.8761C45.982 41.2443 50.106 42.7897 55.1561 42.7897V38.7897ZM46.2238 35.3134C44.2586 32.9425 43.1561 29.5472 43.1561 24.8857H39.1561C39.1561 30.155 40.4056 34.5623 43.1443 37.8661L46.2238 35.3134ZM43.1561 24.8857V0.805734H39.1561V24.8857H43.1561ZM41.1561 2.80573H47.9881V-1.19427H41.1561V2.80573ZM45.9881 0.805734V23.0377H49.9881V0.805734H45.9881ZM45.9881 23.0377C45.9881 26.7198 46.5022 29.8152 47.7403 32.108L51.2599 30.2074C50.482 28.7669 49.9881 26.449 49.9881 23.0377H45.9881ZM47.7636 32.15C49.2711 34.7881 51.956 35.9017 55.1561 35.9017V31.9017C52.9055 31.9017 51.8198 31.1861 51.2366 30.1655L47.7636 32.15ZM55.1561 35.9017C58.3767 35.9017 61.0902 34.7971 62.5638 32.1229L59.0604 30.1925C58.5179 31.177 57.4608 31.9017 55.1561 31.9017V35.9017ZM62.5719 32.108C63.81 29.8152 64.3241 26.7198 64.3241 23.0377H60.3241C60.3241 26.449 59.8302 28.7669 59.0523 30.2074L62.5719 32.108ZM64.3241 23.0377V0.805734H60.3241V23.0377H64.3241ZM62.3241 2.80573H69.1561V-1.19427H62.3241V2.80573ZM67.1561 0.805734V24.8857H71.1561V0.805734H67.1561ZM67.1561 24.8857C67.1561 29.5472 66.0536 32.9425 64.0883 35.3134L67.1678 37.8661C69.9066 34.5623 71.1561 30.155 71.1561 24.8857H67.1561ZM64.0967 35.3034C62.222 37.5351 59.3647 38.7897 55.1561 38.7897V42.7897C60.2061 42.7897 64.3302 41.2443 67.1595 37.8761L64.0967 35.3034ZM95.0543 30.6537L96.9765 30.1013L96.5605 28.6537H95.0543V30.6537ZM83.9103 30.6537V28.6537H82.4042L81.9882 30.1013L83.9103 30.6537ZM81.2223 40.0057V42.0057H82.7285L83.1445 40.5582L81.2223 40.0057ZM74.3903 40.0057L72.477 39.4235L71.6912 42.0057H74.3903V40.0057ZM86.3183 0.805734V-1.19427H84.8364L84.405 0.22352L86.3183 0.805734ZM92.5903 0.805734L94.503 0.221019L94.0703 -1.19427H92.5903V0.805734ZM104.574 40.0057V42.0057H107.277L106.487 39.421L104.574 40.0057ZM97.7423 40.0057L95.8202 40.5582L96.2362 42.0057H97.7423V40.0057ZM93.2623 24.3817V26.3817H95.9169L95.1848 23.8302L93.2623 24.3817ZM89.4543 11.1097L91.3768 10.5581L89.4401 3.80824L87.5298 10.5657L89.4543 11.1097ZM85.7023 24.3817L83.7778 23.8377L83.0586 26.3817H85.7023V24.3817ZM95.0543 28.6537H83.9103V32.6537H95.0543V28.6537ZM81.9882 30.1013L79.3002 39.4533L83.1445 40.5582L85.8325 31.2062L81.9882 30.1013ZM81.2223 38.0057H74.3903V42.0057H81.2223V38.0057ZM76.3037 40.5879L88.2317 1.38795L84.405 0.22352L72.477 39.4235L76.3037 40.5879ZM86.3183 2.80573H92.5903V-1.19427H86.3183V2.80573ZM90.6777 1.39045L102.662 40.5904L106.487 39.421L94.503 0.221019L90.6777 1.39045ZM104.574 38.0057H97.7423V42.0057H104.574V38.0057ZM99.6645 39.4533L96.9765 30.1013L93.1322 31.2062L95.8202 40.5582L99.6645 39.4533ZM95.1848 23.8302L91.3768 10.5581L87.5319 11.6613L91.3399 24.9333L95.1848 23.8302ZM87.5298 10.5657L83.7778 23.8377L87.6269 24.9258L91.3789 11.6538L87.5298 10.5657ZM85.7023 26.3817H93.2623V22.3817H85.7023V26.3817ZM110.967 0.805734V-1.19427H108.967V0.805734H110.967ZM117.799 0.805734H119.799V-1.19427H117.799V0.805734ZM117.799 33.7337H115.799V35.7337H117.799V33.7337ZM131.015 33.7337H133.015V31.7337H131.015V33.7337ZM131.015 40.0057V42.0057H133.015V40.0057H131.015ZM110.967 40.0057H108.967V42.0057H110.967V40.0057ZM110.967 2.80573H117.799V-1.19427H110.967V2.80573ZM115.799 0.805734V33.7337H119.799V0.805734H115.799ZM117.799 35.7337H131.015V31.7337H117.799V35.7337ZM129.015 33.7337V40.0057H133.015V33.7337H129.015ZM131.015 38.0057H110.967V42.0057H131.015V38.0057ZM112.967 40.0057V0.805734H108.967V40.0057H112.967ZM137.494 0.805734V-1.19427H135.494V0.805734H137.494ZM144.326 0.805734H146.326V-1.19427H144.326V0.805734ZM144.326 40.0057V42.0057H146.326V40.0057H144.326ZM137.494 40.0057H135.494V42.0057H137.494V40.0057ZM137.494 2.80573H144.326V-1.19427H137.494V2.80573ZM142.326 0.805734V40.0057H146.326V0.805734H142.326ZM144.326 38.0057H137.494V42.0057H144.326V38.0057ZM139.494 40.0057V0.805734H135.494V40.0057H139.494ZM160.408 7.07774H162.408V5.07774H160.408V7.07774ZM151 7.07774H149V9.07774H151V7.07774ZM151 0.805734V-1.19427H149V0.805734H151ZM176.648 0.805734H178.648V-1.19427H176.648V0.805734ZM176.648 7.07774V9.07774H178.648V7.07774H176.648ZM167.24 7.07774V5.07774H165.24V7.07774H167.24ZM167.24 40.0057V42.0057H169.24V40.0057H167.24ZM160.408 40.0057H158.408V42.0057H160.408V40.0057ZM160.408 5.07774H151V9.07774H160.408V5.07774ZM153 7.07774V0.805734H149V7.07774H153ZM151 2.80573H176.648V-1.19427H151V2.80573ZM174.648 0.805734V7.07774H178.648V0.805734H174.648ZM176.648 5.07774H167.24V9.07774H176.648V5.07774ZM165.24 7.07774V40.0057H169.24V7.07774H165.24ZM167.24 38.0057H160.408V42.0057H167.24V38.0057ZM162.408 40.0057V7.07774H158.408V40.0057H162.408ZM209.777 0.805734L211.538 1.75393L213.125 -1.19427H209.777V0.805734ZM198.017 22.6457L196.256 21.6975L196.017 22.1415V22.6457H198.017ZM198.017 40.0057V42.0057H200.017V40.0057H198.017ZM191.241 40.0057H189.241V42.0057H191.241V40.0057ZM191.241 22.6457H193.241V22.1415L193.002 21.6975L191.241 22.6457ZM179.481 0.805734V-1.19427H176.132L177.72 1.75393L179.481 0.805734ZM186.761 0.805734L188.543 -0.101539L187.987 -1.19427H186.761V0.805734ZM194.657 16.3177L192.875 17.225L194.663 20.739L196.442 17.2199L194.657 16.3177ZM202.497 0.805734V-1.19427H201.267L200.712 -0.0964174L202.497 0.805734ZM208.016 -0.142466L196.256 21.6975L199.778 23.5939L211.538 1.75393L208.016 -0.142466ZM196.017 22.6457V40.0057H200.017V22.6457H196.017ZM198.017 38.0057H191.241V42.0057H198.017V38.0057ZM193.241 40.0057V22.6457H189.241V40.0057H193.241ZM193.002 21.6975L181.242 -0.142465L177.72 1.75393L189.48 23.5939L193.002 21.6975ZM179.481 2.80573H186.761V-1.19427H179.481V2.80573ZM184.979 1.71301L192.875 17.225L196.439 15.4105L188.543 -0.101539L184.979 1.71301ZM196.442 17.2199L204.282 1.70789L200.712 -0.0964174L192.872 15.4156L196.442 17.2199ZM202.497 2.80573H209.777V-1.19427H202.497V2.80573ZM212.534 19.9577V17.9577H210.534V19.9577H212.534ZM227.486 19.9577H229.486V17.9577H227.486V19.9577ZM227.486 25.2217V27.2217H229.486V25.2217H227.486ZM212.534 25.2217H210.534V27.2217H212.534V25.2217ZM212.534 21.9577H227.486V17.9577H212.534V21.9577ZM225.486 19.9577V25.2217H229.486V19.9577H225.486ZM227.486 23.2217H212.534V27.2217H227.486V23.2217ZM214.534 25.2217V19.9577H210.534V25.2217H214.534ZM242.303 38.2697L241.171 39.9185L241.185 39.9282L241.199 39.9376L242.303 38.2697ZM236.423 31.1017L234.604 31.9343L234.608 31.9427L236.423 31.1017ZM236.423 9.76574L238.237 10.6067L238.241 10.5983L236.423 9.76574ZM242.303 2.59773L243.418 4.25802L243.423 4.2543L242.303 2.59773ZM259.495 2.54174L258.38 4.20205L258.391 4.2096L259.495 2.54174ZM265.431 9.70974L263.612 10.5423L263.612 10.5423L265.431 9.70974ZM265.431 31.1017L267.249 31.9343L265.431 31.1017ZM259.495 38.2697L258.391 36.6018L258.38 36.6095L259.495 38.2697ZM257.871 30.2057L259.547 31.2975L259.547 31.2975L257.871 30.2057ZM257.871 10.6057L259.547 9.51397L259.547 9.51397L257.871 10.6057ZM243.983 10.6057L242.307 9.51397L242.307 9.51397L243.983 10.6057ZM243.983 30.2057L245.659 29.114L245.659 29.114L243.983 30.2057ZM250.927 38.7897C248.086 38.7897 245.6 38.0531 243.407 36.6019L241.199 39.9376C244.083 41.8464 247.346 42.7897 250.927 42.7897V38.7897ZM243.435 36.6209C241.262 35.1289 239.523 33.0339 238.237 30.2608L234.608 31.9427C236.16 35.2922 238.341 37.9759 241.171 39.9185L243.435 36.6209ZM238.241 30.2692C236.962 27.4752 236.295 24.2024 236.295 20.4057H232.295C232.295 24.6731 233.046 28.5309 234.604 31.9343L238.241 30.2692ZM236.295 20.4057C236.295 16.6083 236.962 13.3581 238.237 10.6067L234.608 8.92481C233.046 12.296 232.295 16.1391 232.295 20.4057H236.295ZM238.241 10.5983C239.527 7.79009 241.262 5.7063 243.418 4.25801L241.188 0.937456C238.341 2.84917 236.156 5.54405 234.604 8.93318L238.241 10.5983ZM243.423 4.2543C245.615 2.77178 248.096 2.02173 250.927 2.02173V-1.97827C247.337 -1.97827 244.068 -1.01097 241.182 0.941168L243.423 4.2543ZM250.927 2.02173C253.768 2.02173 256.23 2.75826 258.38 4.20201L260.61 0.881457C257.757 -1.03479 254.507 -1.97827 250.927 -1.97827V2.02173ZM258.391 4.2096C260.582 5.65943 262.33 7.74158 263.612 10.5423L267.249 8.87718C265.694 5.48056 263.485 2.78404 260.599 0.873871L258.391 4.2096ZM263.612 10.5423C264.892 13.3362 265.559 16.6091 265.559 20.4057H269.559C269.559 16.1384 268.807 12.2806 267.249 8.87718L263.612 10.5423ZM265.559 20.4057C265.559 24.2024 264.892 27.4752 263.612 30.2692L267.249 31.9343C268.807 28.5309 269.559 24.6731 269.559 20.4057H265.559ZM263.612 30.2692C262.33 33.0699 260.582 35.152 258.391 36.6019L260.599 39.9376C263.485 38.0274 265.694 35.3309 267.249 31.9343L263.612 30.2692ZM258.38 36.6095C256.23 38.0532 253.768 38.7897 250.927 38.7897V42.7897C254.507 42.7897 257.757 41.8463 260.61 39.93L258.38 36.6095ZM250.927 35.9017C254.604 35.9017 257.56 34.3471 259.547 31.2975L256.195 29.114C254.971 30.9923 253.298 31.9017 250.927 31.9017V35.9017ZM259.547 31.2975C261.43 28.4063 262.279 24.7192 262.279 20.4057H258.279C258.279 24.231 257.522 27.0771 256.195 29.114L259.547 31.2975ZM262.279 20.4057C262.279 16.0923 261.43 12.4051 259.547 9.51397L256.195 11.6975C257.522 13.7343 258.279 16.5805 258.279 20.4057H262.279ZM259.547 9.51397C257.56 6.46434 254.604 4.90974 250.927 4.90974V8.90974C253.298 8.90974 254.971 9.81913 256.195 11.6975L259.547 9.51397ZM250.927 4.90974C247.25 4.90974 244.294 6.46434 242.307 9.51397L245.659 11.6975C246.882 9.81913 248.556 8.90974 250.927 8.90974V4.90974ZM242.307 9.51397C240.423 12.4051 239.575 16.0923 239.575 20.4057H243.575C243.575 16.5805 244.332 13.7343 245.659 11.6975L242.307 9.51397ZM239.575 20.4057C239.575 24.7192 240.423 28.4063 242.307 31.2975L245.659 29.114C244.332 27.0771 243.575 24.231 243.575 20.4057H239.575ZM242.307 31.2975C244.294 34.3471 247.25 35.9017 250.927 35.9017V31.9017C248.556 31.9017 246.882 30.9923 245.659 29.114L242.307 31.2975ZM275.751 0.805734V-1.19427H273.751V0.805734H275.751ZM282.751 0.805734L284.519 -0.130412L283.955 -1.19427H282.751V0.805734ZM295.743 25.3337L293.976 26.2699L297.743 25.3337H295.743ZM295.743 0.805734V-1.19427H293.743V0.805734H295.743ZM302.575 0.805734H304.575V-1.19427H302.575V0.805734ZM302.575 40.0057V42.0057H304.575V40.0057H302.575ZM296.583 40.0057L294.821 40.9512L295.387 42.0057H296.583V40.0057ZM282.583 13.9097L284.346 12.9642L280.583 13.9097H282.583ZM282.583 40.0057V42.0057H284.583V40.0057H282.583ZM275.751 40.0057H273.751V42.0057H275.751V40.0057ZM275.751 2.80573H282.751V-1.19427H275.751V2.80573ZM280.984 1.74188L293.976 26.2699L297.511 24.3976L284.519 -0.130412L280.984 1.74188ZM297.743 25.3337V0.805734H293.743V25.3337H297.743ZM295.743 2.80573H302.575V-1.19427H295.743V2.80573ZM300.575 0.805734V40.0057H304.575V0.805734H300.575ZM302.575 38.0057H296.583V42.0057H302.575V38.0057ZM298.346 39.0602L284.346 12.9642L280.821 14.8552L294.821 40.9512L298.346 39.0602ZM280.583 13.9097V40.0057H284.583V13.9097H280.583ZM282.583 38.0057H275.751V42.0057H282.583V38.0057ZM277.751 40.0057V0.805734H273.751V40.0057H277.751ZM312.786 0.805734V-1.19427H310.786V0.805734H312.786ZM334.794 0.805734H336.794V-1.19427H334.794V0.805734ZM334.794 7.07774V9.07774H336.794V7.07774H334.794ZM319.618 7.07774V5.07774H317.618V7.07774H319.618ZM319.618 16.3177H317.618V18.3177H319.618V16.3177ZM331.322 16.3177H333.322V14.3177H331.322V16.3177ZM331.322 22.5897V24.5897H333.322V22.5897H331.322ZM319.618 22.5897V20.5897H317.618V22.5897H319.618ZM319.618 33.7337H317.618V35.7337H319.618V33.7337ZM335.298 33.7337H337.298V31.7337H335.298V33.7337ZM335.298 40.0057V42.0057H337.298V40.0057H335.298ZM312.786 40.0057H310.786V42.0057H312.786V40.0057ZM312.786 2.80573H334.794V-1.19427H312.786V2.80573ZM332.794 0.805734V7.07774H336.794V0.805734H332.794ZM334.794 5.07774H319.618V9.07774H334.794V5.07774ZM317.618 7.07774V16.3177H321.618V7.07774H317.618ZM319.618 18.3177H331.322V14.3177H319.618V18.3177ZM329.322 16.3177V22.5897H333.322V16.3177H329.322ZM331.322 20.5897H319.618V24.5897H331.322V20.5897ZM317.618 22.5897V33.7337H321.618V22.5897H317.618ZM319.618 35.7337H335.298V31.7337H319.618V35.7337ZM333.298 33.7337V40.0057H337.298V33.7337H333.298ZM335.298 38.0057H312.786V42.0057H335.298V38.0057ZM314.786 40.0057V0.805734H310.786V40.0057H314.786ZM384.154 40.7897L382.778 42.2416L384.192 43.5805L385.568 42.2039L384.154 40.7897ZM380.962 37.7657L382.337 36.3138L381.104 35.1451L379.751 36.1738L380.962 37.7657ZM363.042 38.2697L361.91 39.9185L361.924 39.9282L361.938 39.9376L363.042 38.2697ZM357.162 31.1017L355.343 31.9343L355.347 31.9427L357.162 31.1017ZM357.162 9.76574L358.977 10.6067L358.98 10.5983L357.162 9.76574ZM363.042 2.59773L364.157 4.25802L364.163 4.2543L363.042 2.59773ZM380.234 2.54174L379.119 4.20205L379.13 4.2096L380.234 2.54174ZM386.17 9.70974L384.351 10.5423L384.351 10.5423L386.17 9.70974ZM385.106 33.1177L383.391 32.0887L382.56 33.4744L383.74 34.5783L385.106 33.1177ZM388.578 36.3657L389.992 37.7799L391.454 36.3178L389.944 34.9052L388.578 36.3657ZM375.81 32.8937L376.814 34.6233L379.127 33.2802L377.185 31.4413L375.81 32.8937ZM371.61 28.9177L370.196 27.5035L368.742 28.957L370.235 30.3701L371.61 28.9177ZM376.034 24.4937L377.415 23.047L376.001 21.6978L374.62 23.0795L376.034 24.4937ZM379.73 28.0217L378.349 29.4684L380.495 31.5172L381.589 28.759L379.73 28.0217ZM378.61 10.6057L380.286 9.51397L380.286 9.51397L378.61 10.6057ZM364.722 10.6057L363.046 9.51397L363.046 9.51397L364.722 10.6057ZM364.722 30.2057L366.398 29.114L366.398 29.114L364.722 30.2057ZM385.529 39.3378L382.337 36.3138L379.586 39.2176L382.778 42.2416L385.529 39.3378ZM379.751 36.1738C377.472 37.9073 374.806 38.7897 371.666 38.7897V42.7897C375.62 42.7897 379.15 41.6562 382.173 39.3576L379.751 36.1738ZM371.666 38.7897C368.825 38.7897 366.339 38.0531 364.146 36.6019L361.938 39.9376C364.823 41.8464 368.085 42.7897 371.666 42.7897V38.7897ZM364.174 36.6209C362.001 35.1289 360.262 33.0339 358.977 30.2608L355.347 31.9427C356.899 35.2922 359.08 37.9759 361.91 39.9185L364.174 36.6209ZM358.98 30.2692C357.701 27.4752 357.034 24.2024 357.034 20.4057H353.034C353.034 24.6731 353.785 28.5309 355.343 31.9343L358.98 30.2692ZM357.034 20.4057C357.034 16.6083 357.701 13.3581 358.977 10.6067L355.347 8.92481C353.785 12.296 353.034 16.1391 353.034 20.4057H357.034ZM358.98 10.5983C360.266 7.79009 362.001 5.7063 364.157 4.25801L361.927 0.937456C359.08 2.84917 356.895 5.54405 355.343 8.93318L358.98 10.5983ZM364.163 4.2543C366.354 2.77178 368.835 2.02173 371.666 2.02173V-1.97827C368.076 -1.97827 364.807 -1.01097 361.921 0.941168L364.163 4.2543ZM371.666 2.02173C374.507 2.02173 376.969 2.75826 379.119 4.20201L381.349 0.881457C378.496 -1.03479 375.246 -1.97827 371.666 -1.97827V2.02173ZM379.13 4.2096C381.321 5.65943 383.069 7.74158 384.351 10.5423L387.988 8.87718C386.433 5.48056 384.224 2.78404 381.338 0.873871L379.13 4.2096ZM384.351 10.5423C385.631 13.3362 386.298 16.6091 386.298 20.4057H390.298C390.298 16.1384 389.547 12.2806 387.988 8.87718L384.351 10.5423ZM386.298 20.4057C386.298 25.0411 385.299 28.9078 383.391 32.0887L386.821 34.1467C389.168 30.2343 390.298 25.6264 390.298 20.4057H386.298ZM383.74 34.5783L387.212 37.8263L389.944 34.9052L386.472 31.6572L383.74 34.5783ZM387.164 34.9515L382.74 39.3755L385.568 42.2039L389.992 37.7799L387.164 34.9515ZM371.666 35.9017C373.553 35.9017 375.296 35.5048 376.814 34.6233L374.806 31.1642C374.009 31.6267 372.989 31.9017 371.666 31.9017V35.9017ZM377.185 31.4413L372.985 27.4653L370.235 30.3701L374.435 34.3461L377.185 31.4413ZM373.024 30.3319L377.448 25.9079L374.62 23.0795L370.196 27.5035L373.024 30.3319ZM374.653 25.9404L378.349 29.4684L381.111 26.575L377.415 23.047L374.653 25.9404ZM381.589 28.759C382.561 26.3084 383.018 23.5093 383.018 20.4057H379.018C379.018 23.1261 378.616 25.4044 377.871 27.2845L381.589 28.759ZM383.018 20.4057C383.018 16.0923 382.169 12.4051 380.286 9.51397L376.934 11.6975C378.261 13.7343 379.018 16.5805 379.018 20.4057H383.018ZM380.286 9.51397C378.299 6.46434 375.343 4.90974 371.666 4.90974V8.90974C374.037 8.90974 375.71 9.81913 376.934 11.6975L380.286 9.51397ZM371.666 4.90974C367.989 4.90974 365.033 6.46434 363.046 9.51397L366.398 11.6975C367.621 9.81913 369.295 8.90974 371.666 8.90974V4.90974ZM363.046 9.51397C361.163 12.4051 360.314 16.0923 360.314 20.4057H364.314C364.314 16.5805 365.071 13.7343 366.398 11.6975L363.046 9.51397ZM360.314 20.4057C360.314 24.7192 361.163 28.4063 363.046 31.2975L366.398 29.114C365.071 27.0771 364.314 24.231 364.314 20.4057H360.314ZM363.046 31.2975C365.033 34.3471 367.989 35.9017 371.666 35.9017V31.9017C369.295 31.9017 367.621 30.9923 366.398 29.114L363.046 31.2975ZM399.683 36.5897L398.143 37.8661L398.151 37.8761L399.683 36.5897ZM396.155 0.805734V-1.19427H394.155V0.805734H396.155ZM402.987 0.805734H404.987V-1.19427H402.987V0.805734ZM404.499 31.1577L402.739 32.108L402.75 32.1292L402.762 32.15L404.499 31.1577ZM415.811 31.1577L417.562 32.1229L417.566 32.1155L417.57 32.108L415.811 31.1577ZM417.323 0.805734V-1.19427H415.323V0.805734H417.323ZM424.154 0.805734H426.154V-1.19427H424.154V0.805734ZM420.627 36.5897L422.158 37.8761L422.166 37.8661L420.627 36.5897ZM410.155 38.7897C405.946 38.7897 403.089 37.5351 401.214 35.3034L398.151 37.8761C400.98 41.2443 405.104 42.7897 410.155 42.7897V38.7897ZM401.222 35.3134C399.257 32.9425 398.155 29.5472 398.155 24.8857H394.155C394.155 30.155 395.404 34.5623 398.143 37.8661L401.222 35.3134ZM398.155 24.8857V0.805734H394.155V24.8857H398.155ZM396.155 2.80573H402.987V-1.19427H396.155V2.80573ZM400.987 0.805734V23.0377H404.987V0.805734H400.987ZM400.987 23.0377C400.987 26.7198 401.501 29.8152 402.739 32.108L406.258 30.2074C405.48 28.7669 404.987 26.449 404.987 23.0377H400.987ZM402.762 32.15C404.269 34.7881 406.954 35.9017 410.155 35.9017V31.9017C407.904 31.9017 406.818 31.1861 406.235 30.1655L402.762 32.15ZM410.155 35.9017C413.375 35.9017 416.089 34.7971 417.562 32.1229L414.059 30.1925C413.516 31.177 412.459 31.9017 410.155 31.9017V35.9017ZM417.57 32.108C418.808 29.8152 419.323 26.7198 419.323 23.0377H415.323C415.323 26.449 414.829 28.7669 414.051 30.2074L417.57 32.108ZM419.323 23.0377V0.805734H415.323V23.0377H419.323ZM417.323 2.80573H424.154V-1.19427H417.323V2.80573ZM422.155 0.805734V24.8857H426.154V0.805734H422.155ZM422.155 24.8857C422.155 29.5472 421.052 32.9425 419.087 35.3134L422.166 37.8661C424.905 34.5623 426.154 30.155 426.154 24.8857H422.155ZM419.095 35.3034C417.22 37.5351 414.363 38.7897 410.155 38.7897V42.7897C415.205 42.7897 419.329 41.2443 422.158 37.8761L419.095 35.3034ZM450.053 30.6537L451.975 30.1013L451.559 28.6537H450.053V30.6537ZM438.909 30.6537V28.6537H437.403L436.987 30.1013L438.909 30.6537ZM436.221 40.0057V42.0057H437.727L438.143 40.5582L436.221 40.0057ZM429.389 40.0057L427.475 39.4235L426.69 42.0057H429.389V40.0057ZM441.317 0.805734V-1.19427H439.835L439.403 0.22352L441.317 0.805734ZM447.589 0.805734L449.501 0.221019L449.069 -1.19427H447.589V0.805734ZM459.573 40.0057V42.0057H462.276L461.485 39.421L459.573 40.0057ZM452.741 40.0057L450.819 40.5582L451.235 42.0057H452.741V40.0057ZM448.261 24.3817V26.3817H450.915L450.183 23.8302L448.261 24.3817ZM444.453 11.1097L446.375 10.5581L444.439 3.80824L442.528 10.5657L444.453 11.1097ZM440.701 24.3817L438.776 23.8377L438.057 26.3817H440.701V24.3817ZM450.053 28.6537H438.909V32.6537H450.053V28.6537ZM436.987 30.1013L434.299 39.4533L438.143 40.5582L440.831 31.2062L436.987 30.1013ZM436.221 38.0057H429.389V42.0057H436.221V38.0057ZM431.302 40.5879L443.23 1.38795L439.403 0.22352L427.475 39.4235L431.302 40.5879ZM441.317 2.80573H447.589V-1.19427H441.317V2.80573ZM445.676 1.39045L457.66 40.5904L461.485 39.421L449.501 0.221019L445.676 1.39045ZM459.573 38.0057H452.741V42.0057H459.573V38.0057ZM454.663 39.4533L451.975 30.1013L448.131 31.2062L450.819 40.5582L454.663 39.4533ZM450.183 23.8302L446.375 10.5581L442.53 11.6613L446.338 24.9333L450.183 23.8302ZM442.528 10.5657L438.776 23.8377L442.625 24.9258L446.377 11.6538L442.528 10.5657ZM440.701 26.3817H448.261V22.3817H440.701V26.3817ZM465.966 0.805734V-1.19427H463.966V0.805734H465.966ZM472.798 0.805734H474.798V-1.19427H472.798V0.805734ZM472.798 33.7337H470.798V35.7337H472.798V33.7337ZM486.014 33.7337H488.014V31.7337H486.014V33.7337ZM486.014 40.0057V42.0057H488.014V40.0057H486.014ZM465.966 40.0057H463.966V42.0057H465.966V40.0057ZM465.966 2.80573H472.798V-1.19427H465.966V2.80573ZM470.798 0.805734V33.7337H474.798V0.805734H470.798ZM472.798 35.7337H486.014V31.7337H472.798V35.7337ZM484.014 33.7337V40.0057H488.014V33.7337H484.014ZM486.014 38.0057H465.966V42.0057H486.014V38.0057ZM467.966 40.0057V0.805734H463.966V40.0057H467.966ZM492.492 0.805734V-1.19427H490.492V0.805734H492.492ZM499.324 0.805734H501.324V-1.19427H499.324V0.805734ZM499.324 40.0057V42.0057H501.324V40.0057H499.324ZM492.492 40.0057H490.492V42.0057H492.492V40.0057ZM492.492 2.80573H499.324V-1.19427H492.492V2.80573ZM497.324 0.805734V40.0057H501.324V0.805734H497.324ZM499.324 38.0057H492.492V42.0057H499.324V38.0057ZM494.492 40.0057V0.805734H490.492V40.0057H494.492ZM515.407 7.07774H517.407V5.07774H515.407V7.07774ZM505.999 7.07774H503.999V9.07774H505.999V7.07774ZM505.999 0.805734V-1.19427H503.999V0.805734H505.999ZM531.647 0.805734H533.647V-1.19427H531.647V0.805734ZM531.647 7.07774V9.07774H533.647V7.07774H531.647ZM522.239 7.07774V5.07774H520.239V7.07774H522.239ZM522.239 40.0057V42.0057H524.239V40.0057H522.239ZM515.407 40.0057H513.407V42.0057H515.407V40.0057ZM515.407 5.07774H505.999V9.07774H515.407V5.07774ZM507.999 7.07774V0.805734H503.999V7.07774H507.999ZM505.999 2.80573H531.647V-1.19427H505.999V2.80573ZM529.647 0.805734V7.07774H533.647V0.805734H529.647ZM531.647 5.07774H522.239V9.07774H531.647V5.07774ZM520.239 7.07774V40.0057H524.239V7.07774H520.239ZM522.239 38.0057H515.407V42.0057H522.239V38.0057ZM517.407 40.0057V7.07774H513.407V40.0057H517.407ZM564.775 0.805734L566.536 1.75393L568.124 -1.19427H564.775V0.805734ZM553.015 22.6457L551.254 21.6975L551.015 22.1415V22.6457H553.015ZM553.015 40.0057V42.0057H555.015V40.0057H553.015ZM546.239 40.0057H544.239V42.0057H546.239V40.0057ZM546.239 22.6457H548.239V22.1415L548 21.6975L546.239 22.6457ZM534.479 0.805734V-1.19427H531.131L532.718 1.75393L534.479 0.805734ZM541.759 0.805734L543.542 -0.101539L542.985 -1.19427H541.759V0.805734ZM549.655 16.3177L547.873 17.225L549.662 20.739L551.44 17.2199L549.655 16.3177ZM557.495 0.805734V-1.19427H556.265L555.71 -0.0964174L557.495 0.805734ZM563.014 -0.142466L551.254 21.6975L554.776 23.5939L566.536 1.75393L563.014 -0.142466ZM551.015 22.6457V40.0057H555.015V22.6457H551.015ZM553.015 38.0057H546.239V42.0057H553.015V38.0057ZM548.239 40.0057V22.6457H544.239V40.0057H548.239ZM548 21.6975L536.24 -0.142465L532.718 1.75393L544.478 23.5939L548 21.6975ZM534.479 2.80573H541.759V-1.19427H534.479V2.80573ZM539.977 1.71301L547.873 17.225L551.438 15.4105L543.542 -0.101539L539.977 1.71301ZM551.44 17.2199L559.28 1.70789L555.71 -0.0964174L547.87 15.4156L551.44 17.2199ZM557.495 2.80573H564.775V-1.19427H557.495V2.80573ZM567.532 19.9577V17.9577H565.532V19.9577H567.532ZM582.484 19.9577H584.484V17.9577H582.484V19.9577ZM582.484 25.2217V27.2217H584.484V25.2217H582.484ZM567.532 25.2217H565.532V27.2217H567.532V25.2217ZM567.532 21.9577H582.484V17.9577H567.532V21.9577ZM580.484 19.9577V25.2217H584.484V19.9577H580.484ZM582.484 23.2217H567.532V27.2217H582.484V23.2217ZM569.532 25.2217V19.9577H565.532V25.2217H569.532ZM597.301 38.2697L596.169 39.9185L596.183 39.9282L596.198 39.9376L597.301 38.2697ZM591.421 31.1017L589.603 31.9343L589.607 31.9427L591.421 31.1017ZM591.421 9.76574L593.236 10.6067L593.24 10.5983L591.421 9.76574ZM597.301 2.59773L598.416 4.25802L598.422 4.2543L597.301 2.59773ZM614.493 2.54174L613.378 4.20205L613.39 4.2096L614.493 2.54174ZM620.429 9.70974L618.611 10.5423L618.611 10.5423L620.429 9.70974ZM620.429 31.1017L622.248 31.9343L620.429 31.1017ZM614.493 38.2697L613.389 36.6018L613.378 36.6095L614.493 38.2697ZM612.869 30.2057L614.545 31.2975L614.545 31.2975L612.869 30.2057ZM612.869 10.6057L614.545 9.51397L614.545 9.51397L612.869 10.6057ZM598.981 10.6057L597.306 9.51397L597.306 9.51397L598.981 10.6057ZM598.981 30.2057L600.657 29.114L600.657 29.114L598.981 30.2057ZM605.925 38.7897C603.085 38.7897 600.598 38.0531 598.405 36.6019L596.198 39.9376C599.082 41.8464 602.345 42.7897 605.925 42.7897V38.7897ZM598.433 36.6209C596.26 35.1289 594.521 33.0339 593.236 30.2608L589.607 31.9427C591.159 35.2922 593.34 37.9759 596.169 39.9185L598.433 36.6209ZM593.24 30.2692C591.961 27.4752 591.293 24.2024 591.293 20.4057H587.293C587.293 24.6731 588.045 28.5309 589.603 31.9343L593.24 30.2692ZM591.293 20.4057C591.293 16.6083 591.961 13.3581 593.236 10.6067L589.607 8.92481C588.044 12.296 587.293 16.1391 587.293 20.4057H591.293ZM593.24 10.5983C594.525 7.79009 596.26 5.7063 598.416 4.25801L596.186 0.937456C593.34 2.84917 591.154 5.54405 589.603 8.93318L593.24 10.5983ZM598.422 4.2543C600.613 2.77178 603.094 2.02173 605.925 2.02173V-1.97827C602.335 -1.97827 599.066 -1.01097 596.181 0.941168L598.422 4.2543ZM605.925 2.02173C608.766 2.02173 611.229 2.75826 613.378 4.20201L615.608 0.881457C612.755 -1.03479 609.506 -1.97827 605.925 -1.97827V2.02173ZM613.39 4.2096C615.58 5.65943 617.329 7.74158 618.611 10.5423L622.248 8.87718C620.693 5.48056 618.483 2.78404 615.597 0.873871L613.39 4.2096ZM618.611 10.5423C619.89 13.3362 620.557 16.6091 620.557 20.4057H624.557C624.557 16.1384 623.806 12.2806 622.248 8.87718L618.611 10.5423ZM620.557 20.4057C620.557 24.2024 619.89 27.4752 618.611 30.2692L622.248 31.9343C623.806 28.5309 624.557 24.6731 624.557 20.4057H620.557ZM618.611 30.2692C617.329 33.0699 615.58 35.152 613.39 36.6019L615.597 39.9376C618.483 38.0274 620.693 35.3309 622.248 31.9343L618.611 30.2692ZM613.378 36.6095C611.229 38.0532 608.766 38.7897 605.925 38.7897V42.7897C609.506 42.7897 612.755 41.8463 615.608 39.93L613.378 36.6095ZM605.925 35.9017C609.602 35.9017 612.558 34.3471 614.545 31.2975L611.194 29.114C609.97 30.9923 608.296 31.9017 605.925 31.9017V35.9017ZM614.545 31.2975C616.429 28.4063 617.277 24.7192 617.277 20.4057H613.277C613.277 24.231 612.521 27.0771 611.194 29.114L614.545 31.2975ZM617.277 20.4057C617.277 16.0923 616.429 12.4051 614.545 9.51397L611.194 11.6975C612.521 13.7343 613.277 16.5805 613.277 20.4057H617.277ZM614.545 9.51397C612.558 6.46434 609.602 4.90974 605.925 4.90974V8.90974C608.296 8.90974 609.97 9.81913 611.194 11.6975L614.545 9.51397ZM605.925 4.90974C602.248 4.90974 599.292 6.46434 597.306 9.51397L600.657 11.6975C601.881 9.81913 603.554 8.90974 605.925 8.90974V4.90974ZM597.306 9.51397C595.422 12.4051 594.573 16.0923 594.573 20.4057H598.573C598.573 16.5805 599.33 13.7343 600.657 11.6975L597.306 9.51397ZM594.573 20.4057C594.573 24.7192 595.422 28.4063 597.306 31.2975L600.657 29.114C599.33 27.0771 598.573 24.231 598.573 20.4057H594.573ZM597.306 31.2975C599.292 34.3471 602.248 35.9017 605.925 35.9017V31.9017C603.554 31.9017 601.881 30.9923 600.657 29.114L597.306 31.2975ZM630.75 0.805734V-1.19427H628.75V0.805734H630.75ZM637.75 0.805734L639.517 -0.130412L638.954 -1.19427H637.75V0.805734ZM650.742 25.3337L648.974 26.2699L652.742 25.3337H650.742ZM650.742 0.805734V-1.19427H648.742V0.805734H650.742ZM657.574 0.805734H659.574V-1.19427H657.574V0.805734ZM657.574 40.0057V42.0057H659.574V40.0057H657.574ZM651.582 40.0057L649.819 40.9512L650.385 42.0057H651.582V40.0057ZM637.582 13.9097L639.344 12.9642L635.582 13.9097H637.582ZM637.582 40.0057V42.0057H639.582V40.0057H637.582ZM630.75 40.0057H628.75V42.0057H630.75V40.0057ZM630.75 2.80573H637.75V-1.19427H630.75V2.80573ZM635.982 1.74188L648.974 26.2699L652.509 24.3976L639.517 -0.130412L635.982 1.74188ZM652.742 25.3337V0.805734H648.742V25.3337H652.742ZM650.742 2.80573H657.574V-1.19427H650.742V2.80573ZM655.574 0.805734V40.0057H659.574V0.805734H655.574ZM657.574 38.0057H651.582V42.0057H657.574V38.0057ZM653.344 39.0602L639.344 12.9642L635.819 14.8552L649.819 40.9512L653.344 39.0602ZM635.582 13.9097V40.0057H639.582V13.9097H635.582ZM637.582 38.0057H630.75V42.0057H637.582V38.0057ZM632.75 40.0057V0.805734H628.75V40.0057H632.75ZM667.784 0.805734V-1.19427H665.784V0.805734H667.784ZM689.792 0.805734H691.792V-1.19427H689.792V0.805734ZM689.792 7.07774V9.07774H691.792V7.07774H689.792ZM674.616 7.07774V5.07774H672.616V7.07774H674.616ZM674.616 16.3177H672.616V18.3177H674.616V16.3177ZM686.32 16.3177H688.32V14.3177H686.32V16.3177ZM686.32 22.5897V24.5897H688.32V22.5897H686.32ZM674.616 22.5897V20.5897H672.616V22.5897H674.616ZM674.616 33.7337H672.616V35.7337H674.616V33.7337ZM690.296 33.7337H692.296V31.7337H690.296V33.7337ZM690.296 40.0057V42.0057H692.296V40.0057H690.296ZM667.784 40.0057H665.784V42.0057H667.784V40.0057ZM667.784 2.80573H689.792V-1.19427H667.784V2.80573ZM687.792 0.805734V7.07774H691.792V0.805734H687.792ZM689.792 5.07774H674.616V9.07774H689.792V5.07774ZM672.616 7.07774V16.3177H676.616V7.07774H672.616ZM674.616 18.3177H686.32V14.3177H674.616V18.3177ZM684.32 16.3177V22.5897H688.32V16.3177H684.32ZM686.32 20.5897H674.616V24.5897H686.32V20.5897ZM672.616 22.5897V33.7337H676.616V22.5897H672.616ZM674.616 35.7337H690.296V31.7337H674.616V35.7337ZM688.296 33.7337V40.0057H692.296V33.7337H688.296ZM690.296 38.0057H667.784V42.0057H690.296V38.0057ZM669.784 40.0057V0.805734H665.784V40.0057H669.784ZM739.152 40.7897L737.777 42.2416L739.19 43.5805L740.567 42.2039L739.152 40.7897ZM735.96 37.7657L737.336 36.3138L736.102 35.1451L734.75 36.1738L735.96 37.7657ZM718.04 38.2697L716.908 39.9185L716.922 39.9282L716.937 39.9376L718.04 38.2697ZM712.16 31.1017L710.342 31.9343L710.346 31.9427L712.16 31.1017ZM712.16 9.76574L713.975 10.6067L713.979 10.5983L712.16 9.76574ZM718.04 2.59773L719.155 4.25802L719.161 4.2543L718.04 2.59773ZM735.232 2.54174L734.117 4.20205L734.129 4.2096L735.232 2.54174ZM741.168 9.70974L739.35 10.5423L739.35 10.5423L741.168 9.70974ZM740.104 33.1177L738.389 32.0887L737.558 33.4744L738.738 34.5783L740.104 33.1177ZM743.576 36.3657L744.991 37.7799L746.453 36.3178L744.943 34.9052L743.576 36.3657ZM730.808 32.8937L731.813 34.6233L734.126 33.2802L732.183 31.4413L730.808 32.8937ZM726.608 28.9177L725.194 27.5035L723.741 28.957L725.233 30.3701L726.608 28.9177ZM731.032 24.4937L732.413 23.047L731 21.6978L729.618 23.0795L731.032 24.4937ZM734.728 28.0217L733.347 29.4684L735.494 31.5172L736.587 28.759L734.728 28.0217ZM733.608 10.6057L735.284 9.51397L735.284 9.51397L733.608 10.6057ZM719.72 10.6057L718.045 9.51397L718.045 9.51397L719.72 10.6057ZM719.72 30.2057L721.396 29.114L721.396 29.114L719.72 30.2057ZM740.528 39.3378L737.336 36.3138L734.585 39.2176L737.777 42.2416L740.528 39.3378ZM734.75 36.1738C732.47 37.9073 729.804 38.7897 726.664 38.7897V42.7897C730.618 42.7897 734.149 41.6562 737.171 39.3576L734.75 36.1738ZM726.664 38.7897C723.824 38.7897 721.337 38.0531 719.144 36.6019L716.937 39.9376C719.821 41.8464 723.084 42.7897 726.664 42.7897V38.7897ZM719.172 36.6209C716.999 35.1289 715.26 33.0339 713.975 30.2608L710.346 31.9427C711.898 35.2922 714.079 37.9759 716.908 39.9185L719.172 36.6209ZM713.979 30.2692C712.7 27.4752 712.032 24.2024 712.032 20.4057H708.032C708.032 24.6731 708.784 28.5309 710.342 31.9343L713.979 30.2692ZM712.032 20.4057C712.032 16.6083 712.7 13.3581 713.975 10.6067L710.346 8.92481C708.783 12.296 708.032 16.1391 708.032 20.4057H712.032ZM713.979 10.5983C715.264 7.79009 716.999 5.7063 719.155 4.25801L716.925 0.937456C714.079 2.84917 711.893 5.54405 710.342 8.93318L713.979 10.5983ZM719.161 4.2543C721.352 2.77178 723.833 2.02173 726.664 2.02173V-1.97827C723.074 -1.97827 719.805 -1.01097 716.92 0.941168L719.161 4.2543ZM726.664 2.02173C729.505 2.02173 731.968 2.75826 734.117 4.20201L736.347 0.881457C733.494 -1.03479 730.245 -1.97827 726.664 -1.97827V2.02173ZM734.129 4.2096C736.319 5.65943 738.068 7.74158 739.35 10.5423L742.987 8.87718C741.432 5.48056 739.223 2.78404 736.336 0.873871L734.129 4.2096ZM739.35 10.5423C740.629 13.3362 741.296 16.6091 741.296 20.4057H745.296C745.296 16.1384 744.545 12.2806 742.987 8.87718L739.35 10.5423ZM741.296 20.4057C741.296 25.0411 740.298 28.9078 738.389 32.0887L741.819 34.1467C744.167 30.2343 745.296 25.6264 745.296 20.4057H741.296ZM738.738 34.5783L742.21 37.8263L744.943 34.9052L741.471 31.6572L738.738 34.5783ZM742.162 34.9515L737.738 39.3755L740.567 42.2039L744.991 37.7799L742.162 34.9515ZM726.664 35.9017C728.552 35.9017 730.295 35.5048 731.813 34.6233L729.804 31.1642C729.007 31.6267 727.987 31.9017 726.664 31.9017V35.9017ZM732.183 31.4413L727.983 27.4653L725.233 30.3701L729.433 34.3461L732.183 31.4413ZM728.023 30.3319L732.447 25.9079L729.618 23.0795L725.194 27.5035L728.023 30.3319ZM729.651 25.9404L733.347 29.4684L736.109 26.575L732.413 23.047L729.651 25.9404ZM736.587 28.759C737.559 26.3084 738.016 23.5093 738.016 20.4057H734.016C734.016 23.1261 733.615 25.4044 732.869 27.2845L736.587 28.759ZM738.016 20.4057C738.016 16.0923 737.168 12.4051 735.284 9.51397L731.933 11.6975C733.26 13.7343 734.016 16.5805 734.016 20.4057H738.016ZM735.284 9.51397C733.297 6.46434 730.341 4.90974 726.664 4.90974V8.90974C729.035 8.90974 730.709 9.81913 731.933 11.6975L735.284 9.51397ZM726.664 4.90974C722.987 4.90974 720.031 6.46434 718.045 9.51397L721.396 11.6975C722.62 9.81913 724.293 8.90974 726.664 8.90974V4.90974ZM718.045 9.51397C716.161 12.4051 715.312 16.0923 715.312 20.4057H719.312C719.312 16.5805 720.069 13.7343 721.396 11.6975L718.045 9.51397ZM715.312 20.4057C715.312 24.7192 716.161 28.4063 718.045 31.2975L721.396 29.114C720.069 27.0771 719.312 24.231 719.312 20.4057H715.312ZM718.045 31.2975C720.031 34.3471 722.987 35.9017 726.664 35.9017V31.9017C724.293 31.9017 722.62 30.9923 721.396 29.114L718.045 31.2975ZM754.681 36.5897L753.141 37.8661L753.15 37.8761L754.681 36.5897ZM751.153 0.805734V-1.19427H749.153V0.805734H751.153ZM757.985 0.805734H759.985V-1.19427H757.985V0.805734ZM759.497 31.1577L757.737 32.108L757.749 32.1292L757.76 32.15L759.497 31.1577ZM770.809 31.1577L772.561 32.1229L772.565 32.1155L772.569 32.108L770.809 31.1577ZM772.321 0.805734V-1.19427H770.321V0.805734H772.321ZM779.153 0.805734H781.153V-1.19427H779.153V0.805734ZM775.625 36.5897L777.156 37.8761L777.165 37.8661L775.625 36.5897ZM765.153 38.7897C760.944 38.7897 758.087 37.5351 756.212 35.3034L753.15 37.8761C755.979 41.2443 760.103 42.7897 765.153 42.7897V38.7897ZM756.221 35.3134C754.255 32.9425 753.153 29.5472 753.153 24.8857H749.153C749.153 30.155 750.402 34.5623 753.141 37.8661L756.221 35.3134ZM753.153 24.8857V0.805734H749.153V24.8857H753.153ZM751.153 2.80573H757.985V-1.19427H751.153V2.80573ZM755.985 0.805734V23.0377H759.985V0.805734H755.985ZM755.985 23.0377C755.985 26.7198 756.499 29.8152 757.737 32.108L761.257 30.2074C760.479 28.7669 759.985 26.449 759.985 23.0377H755.985ZM757.76 32.15C759.268 34.7881 761.953 35.9017 765.153 35.9017V31.9017C762.902 31.9017 761.817 31.1861 761.233 30.1655L757.76 32.15ZM765.153 35.9017C768.373 35.9017 771.087 34.7971 772.561 32.1229L769.057 30.1925C768.515 31.177 767.458 31.9017 765.153 31.9017V35.9017ZM772.569 32.108C773.807 29.8152 774.321 26.7198 774.321 23.0377H770.321C770.321 26.449 769.827 28.7669 769.049 30.2074L772.569 32.108ZM774.321 23.0377V0.805734H770.321V23.0377H774.321ZM772.321 2.80573H779.153V-1.19427H772.321V2.80573ZM777.153 0.805734V24.8857H781.153V0.805734H777.153ZM777.153 24.8857C777.153 29.5472 776.05 32.9425 774.085 35.3134L777.165 37.8661C779.903 34.5623 781.153 30.155 781.153 24.8857H777.153ZM774.094 35.3034C772.219 37.5351 769.362 38.7897 765.153 38.7897V42.7897C770.203 42.7897 774.327 41.2443 777.156 37.8761L774.094 35.3034ZM805.051 30.6537L806.973 30.1013L806.557 28.6537H805.051V30.6537ZM793.907 30.6537V28.6537H792.401L791.985 30.1013L793.907 30.6537ZM791.219 40.0057V42.0057H792.725L793.141 40.5582L791.219 40.0057ZM784.387 40.0057L782.474 39.4235L781.688 42.0057H784.387V40.0057ZM796.315 0.805734V-1.19427H794.833L794.402 0.22352L796.315 0.805734ZM802.587 0.805734L804.5 0.221019L804.067 -1.19427H802.587V0.805734ZM814.571 40.0057V42.0057H817.274L816.484 39.421L814.571 40.0057ZM807.739 40.0057L805.817 40.5582L806.233 42.0057H807.739V40.0057ZM803.259 24.3817V26.3817H805.914L805.182 23.8302L803.259 24.3817ZM799.451 11.1097L801.374 10.5581L799.437 3.80824L797.527 10.5657L799.451 11.1097ZM795.699 24.3817L793.775 23.8377L793.055 26.3817H795.699V24.3817ZM805.051 28.6537H793.907V32.6537H805.051V28.6537ZM791.985 30.1013L789.297 39.4533L793.141 40.5582L795.829 31.2062L791.985 30.1013ZM791.219 38.0057H784.387V42.0057H791.219V38.0057ZM786.301 40.5879L798.229 1.38795L794.402 0.22352L782.474 39.4235L786.301 40.5879ZM796.315 2.80573H802.587V-1.19427H796.315V2.80573ZM800.675 1.39045L812.659 40.5904L816.484 39.421L804.5 0.221019L800.675 1.39045ZM814.571 38.0057H807.739V42.0057H814.571V38.0057ZM809.661 39.4533L806.973 30.1013L803.129 31.2062L805.817 40.5582L809.661 39.4533ZM805.182 23.8302L801.374 10.5581L797.529 11.6613L801.337 24.9333L805.182 23.8302ZM797.527 10.5657L793.775 23.8377L797.624 24.9258L801.376 11.6538L797.527 10.5657ZM795.699 26.3817H803.259V22.3817H795.699V26.3817ZM820.964 0.805734V-1.19427H818.964V0.805734H820.964ZM827.796 0.805734H829.796V-1.19427H827.796V0.805734ZM827.796 33.7337H825.796V35.7337H827.796V33.7337ZM841.012 33.7337H843.012V31.7337H841.012V33.7337ZM841.012 40.0057V42.0057H843.012V40.0057H841.012ZM820.964 40.0057H818.964V42.0057H820.964V40.0057ZM820.964 2.80573H827.796V-1.19427H820.964V2.80573ZM825.796 0.805734V33.7337H829.796V0.805734H825.796ZM827.796 35.7337H841.012V31.7337H827.796V35.7337ZM839.012 33.7337V40.0057H843.012V33.7337H839.012ZM841.012 38.0057H820.964V42.0057H841.012V38.0057ZM822.964 40.0057V0.805734H818.964V40.0057H822.964ZM847.49 0.805734V-1.19427H845.49V0.805734H847.49ZM854.322 0.805734H856.322V-1.19427H854.322V0.805734ZM854.322 40.0057V42.0057H856.322V40.0057H854.322ZM847.49 40.0057H845.49V42.0057H847.49V40.0057ZM847.49 2.80573H854.322V-1.19427H847.49V2.80573ZM852.322 0.805734V40.0057H856.322V0.805734H852.322ZM854.322 38.0057H847.49V42.0057H854.322V38.0057ZM849.49 40.0057V0.805734H845.49V40.0057H849.49ZM870.405 7.07774H872.405V5.07774H870.405V7.07774ZM860.997 7.07774H858.997V9.07774H860.997V7.07774ZM860.997 0.805734V-1.19427H858.997V0.805734H860.997ZM886.645 0.805734H888.645V-1.19427H886.645V0.805734ZM886.645 7.07774V9.07774H888.645V7.07774H886.645ZM877.237 7.07774V5.07774H875.237V7.07774H877.237ZM877.237 40.0057V42.0057H879.237V40.0057H877.237ZM870.405 40.0057H868.405V42.0057H870.405V40.0057ZM870.405 5.07774H860.997V9.07774H870.405V5.07774ZM862.997 7.07774V0.805734H858.997V7.07774H862.997ZM860.997 2.80573H886.645V-1.19427H860.997V2.80573ZM884.645 0.805734V7.07774H888.645V0.805734H884.645ZM886.645 5.07774H877.237V9.07774H886.645V5.07774ZM875.237 7.07774V40.0057H879.237V7.07774H875.237ZM877.237 38.0057H870.405V42.0057H877.237V38.0057ZM872.405 40.0057V7.07774H868.405V40.0057H872.405ZM919.774 0.805734L921.535 1.75393L923.122 -1.19427H919.774V0.805734ZM908.014 22.6457L906.253 21.6975L906.014 22.1415V22.6457H908.014ZM908.014 40.0057V42.0057H910.014V40.0057H908.014ZM901.238 40.0057H899.238V42.0057H901.238V40.0057ZM901.238 22.6457H903.238V22.1415L902.999 21.6975L901.238 22.6457ZM889.478 0.805734V-1.19427H886.129L887.717 1.75393L889.478 0.805734ZM896.758 0.805734L898.54 -0.101539L897.984 -1.19427H896.758V0.805734ZM904.654 16.3177L902.871 17.225L904.66 20.739L906.439 17.2199L904.654 16.3177ZM912.494 0.805734V-1.19427H911.264L910.709 -0.0964174L912.494 0.805734ZM918.013 -0.142466L906.253 21.6975L909.775 23.5939L921.535 1.75393L918.013 -0.142466ZM906.014 22.6457V40.0057H910.014V22.6457H906.014ZM908.014 38.0057H901.238V42.0057H908.014V38.0057ZM903.238 40.0057V22.6457H899.238V40.0057H903.238ZM902.999 21.6975L891.239 -0.142465L887.717 1.75393L899.477 23.5939L902.999 21.6975ZM889.478 2.80573H896.758V-1.19427H889.478V2.80573ZM894.975 1.71301L902.871 17.225L906.436 15.4105L898.54 -0.101539L894.975 1.71301ZM906.439 17.2199L914.279 1.70789L910.709 -0.0964174L902.869 15.4156L906.439 17.2199ZM912.494 2.80573H919.774V-1.19427H912.494V2.80573ZM922.531 19.9577V17.9577H920.531V19.9577H922.531ZM937.483 19.9577H939.483V17.9577H937.483V19.9577ZM937.483 25.2217V27.2217H939.483V25.2217H937.483ZM922.531 25.2217H920.531V27.2217H922.531V25.2217ZM922.531 21.9577H937.483V17.9577H922.531V21.9577ZM935.483 19.9577V25.2217H939.483V19.9577H935.483ZM937.483 23.2217H922.531V27.2217H937.483V23.2217ZM924.531 25.2217V19.9577H920.531V25.2217H924.531ZM952.3 38.2697L951.168 39.9185L951.182 39.9282L951.196 39.9376L952.3 38.2697ZM946.42 31.1017L944.601 31.9343L944.605 31.9427L946.42 31.1017ZM946.42 9.76574L948.234 10.6067L948.238 10.5983L946.42 9.76574ZM952.3 2.59773L953.415 4.25802L953.42 4.2543L952.3 2.59773ZM969.492 2.54174L968.376 4.20205L968.388 4.2096L969.492 2.54174ZM975.428 9.70974L973.609 10.5423L973.609 10.5423L975.428 9.70974ZM975.428 31.1017L977.246 31.9343L975.428 31.1017ZM969.492 38.2697L968.388 36.6018L968.377 36.6095L969.492 38.2697ZM967.868 30.2057L969.543 31.2975L969.543 31.2975L967.868 30.2057ZM967.868 10.6057L969.543 9.51397L969.543 9.51397L967.868 10.6057ZM953.98 10.6057L952.304 9.51397L952.304 9.51397L953.98 10.6057ZM953.98 30.2057L955.655 29.114L955.655 29.114L953.98 30.2057ZM960.924 38.7897C958.083 38.7897 955.596 38.0531 953.403 36.6019L951.196 39.9376C954.08 41.8464 957.343 42.7897 960.924 42.7897V38.7897ZM953.432 36.6209C951.258 35.1289 949.519 33.0339 948.234 30.2608L944.605 31.9427C946.157 35.2922 948.338 37.9759 951.168 39.9185L953.432 36.6209ZM948.238 30.2692C946.959 27.4752 946.292 24.2024 946.292 20.4057H942.292C942.292 24.6731 943.043 28.5309 944.601 31.9343L948.238 30.2692ZM946.292 20.4057C946.292 16.6083 946.959 13.3581 948.234 10.6067L944.605 8.92481C943.043 12.296 942.292 16.1391 942.292 20.4057H946.292ZM948.238 10.5983C949.524 7.79009 951.258 5.7063 953.415 4.25801L951.185 0.937456C948.338 2.84917 946.153 5.54405 944.601 8.93318L948.238 10.5983ZM953.42 4.2543C955.612 2.77178 958.092 2.02173 960.924 2.02173V-1.97827C957.334 -1.97827 954.065 -1.01097 951.179 0.941168L953.42 4.2543ZM960.924 2.02173C963.764 2.02173 966.227 2.75826 968.377 4.20201L970.607 0.881457C967.754 -1.03479 964.504 -1.97827 960.924 -1.97827V2.02173ZM968.388 4.2096C970.579 5.65943 972.327 7.74158 973.609 10.5423L977.246 8.87718C975.691 5.48056 973.482 2.78404 970.595 0.873871L968.388 4.2096ZM973.609 10.5423C974.888 13.3362 975.556 16.6091 975.556 20.4057H979.556C979.556 16.1384 978.804 12.2806 977.246 8.87718L973.609 10.5423ZM975.556 20.4057C975.556 24.2024 974.888 27.4752 973.609 30.2692L977.246 31.9343C978.804 28.5309 979.556 24.6731 979.556 20.4057H975.556ZM973.609 30.2692C972.327 33.0699 970.579 35.152 968.388 36.6019L970.595 39.9376C973.482 38.0274 975.691 35.3309 977.246 31.9343L973.609 30.2692ZM968.377 36.6095C966.227 38.0532 963.764 38.7897 960.924 38.7897V42.7897C964.504 42.7897 967.754 41.8463 970.607 39.93L968.377 36.6095ZM960.924 35.9017C964.601 35.9017 967.556 34.3471 969.543 31.2975L966.192 29.114C964.968 30.9923 963.295 31.9017 960.924 31.9017V35.9017ZM969.543 31.2975C971.427 28.4063 972.276 24.7192 972.276 20.4057H968.276C968.276 24.231 967.519 27.0771 966.192 29.114L969.543 31.2975ZM972.276 20.4057C972.276 16.0923 971.427 12.4051 969.543 9.51397L966.192 11.6975C967.519 13.7343 968.276 16.5805 968.276 20.4057H972.276ZM969.543 9.51397C967.556 6.46434 964.601 4.90974 960.924 4.90974V8.90974C963.295 8.90974 964.968 9.81913 966.192 11.6975L969.543 9.51397ZM960.924 4.90974C957.247 4.90974 954.291 6.46434 952.304 9.51397L955.655 11.6975C956.879 9.81913 958.553 8.90974 960.924 8.90974V4.90974ZM952.304 9.51397C950.42 12.4051 949.572 16.0923 949.572 20.4057H953.572C953.572 16.5805 954.328 13.7343 955.655 11.6975L952.304 9.51397ZM949.572 20.4057C949.572 24.7192 950.42 28.4063 952.304 31.2975L955.655 29.114C954.328 27.0771 953.572 24.231 953.572 20.4057H949.572ZM952.304 31.2975C954.291 34.3471 957.247 35.9017 960.924 35.9017V31.9017C958.553 31.9017 956.879 30.9923 955.655 29.114L952.304 31.2975ZM985.748 0.805734V-1.19427H983.748V0.805734H985.748ZM992.748 0.805734L994.516 -0.130412L993.952 -1.19427H992.748V0.805734ZM1005.74 25.3337L1003.97 26.2699L1007.74 25.3337H1005.74ZM1005.74 0.805734V-1.19427H1003.74V0.805734H1005.74ZM1012.57 0.805734H1014.57V-1.19427H1012.57V0.805734ZM1012.57 40.0057V42.0057H1014.57V40.0057H1012.57ZM1006.58 40.0057L1004.82 40.9512L1005.38 42.0057H1006.58V40.0057ZM992.58 13.9097L994.343 12.9642L990.58 13.9097H992.58ZM992.58 40.0057V42.0057H994.58V40.0057H992.58ZM985.748 40.0057H983.748V42.0057H985.748V40.0057ZM985.748 2.80573H992.748V-1.19427H985.748V2.80573ZM990.981 1.74188L1003.97 26.2699L1007.51 24.3976L994.516 -0.130412L990.981 1.74188ZM1007.74 25.3337V0.805734H1003.74V25.3337H1007.74ZM1005.74 2.80573H1012.57V-1.19427H1005.74V2.80573ZM1010.57 0.805734V40.0057H1014.57V0.805734H1010.57ZM1012.57 38.0057H1006.58V42.0057H1012.57V38.0057ZM1008.34 39.0602L994.343 12.9642L990.818 14.8552L1004.82 40.9512L1008.34 39.0602ZM990.58 13.9097V40.0057H994.58V13.9097H990.58ZM992.58 38.0057H985.748V42.0057H992.58V38.0057ZM987.748 40.0057V0.805734H983.748V40.0057H987.748ZM1022.78 0.805734V-1.19427H1020.78V0.805734H1022.78ZM1044.79 0.805734H1046.79V-1.19427H1044.79V0.805734ZM1044.79 7.07774V9.07774H1046.79V7.07774H1044.79ZM1029.61 7.07774V5.07774H1027.61V7.07774H1029.61ZM1029.61 16.3177H1027.61V18.3177H1029.61V16.3177ZM1041.32 16.3177H1043.32V14.3177H1041.32V16.3177ZM1041.32 22.5897V24.5897H1043.32V22.5897H1041.32ZM1029.61 22.5897V20.5897H1027.61V22.5897H1029.61ZM1029.61 33.7337H1027.61V35.7337H1029.61V33.7337ZM1045.29 33.7337H1047.29V31.7337H1045.29V33.7337ZM1045.29 40.0057V42.0057H1047.29V40.0057H1045.29ZM1022.78 40.0057H1020.78V42.0057H1022.78V40.0057ZM1022.78 2.80573H1044.79V-1.19427H1022.78V2.80573ZM1042.79 0.805734V7.07774H1046.79V0.805734H1042.79ZM1044.79 5.07774H1029.61V9.07774H1044.79V5.07774ZM1027.61 7.07774V16.3177H1031.61V7.07774H1027.61ZM1029.61 18.3177H1041.32V14.3177H1029.61V18.3177ZM1039.32 16.3177V22.5897H1043.32V16.3177H1039.32ZM1041.32 20.5897H1029.61V24.5897H1041.32V20.5897ZM1027.61 22.5897V33.7337H1031.61V22.5897H1027.61ZM1029.61 35.7337H1045.29V31.7337H1029.61V35.7337ZM1043.29 33.7337V40.0057H1047.29V33.7337H1043.29ZM1045.29 38.0057H1022.78V42.0057H1045.29V38.0057ZM1024.78 40.0057V0.805734H1020.78V40.0057H1024.78ZM1094.15 40.7897L1092.78 42.2416L1094.19 43.5805L1095.56 42.2039L1094.15 40.7897ZM1090.96 37.7657L1092.33 36.3138L1091.1 35.1451L1089.75 36.1738L1090.96 37.7657ZM1073.04 38.2697L1071.91 39.9185L1071.92 39.9282L1071.94 39.9376L1073.04 38.2697ZM1067.16 31.1017L1065.34 31.9343L1065.34 31.9427L1067.16 31.1017ZM1067.16 9.76574L1068.97 10.6067L1068.98 10.5983L1067.16 9.76574ZM1073.04 2.59773L1074.15 4.25802L1074.16 4.2543L1073.04 2.59773ZM1090.23 2.54174L1089.12 4.20205L1089.13 4.2096L1090.23 2.54174ZM1096.17 9.70974L1094.35 10.5423L1094.35 10.5423L1096.17 9.70974ZM1095.1 33.1177L1093.39 32.0887L1092.56 33.4744L1093.74 34.5783L1095.1 33.1177ZM1098.57 36.3657L1099.99 37.7799L1101.45 36.3178L1099.94 34.9052L1098.57 36.3657ZM1085.81 32.8937L1086.81 34.6233L1089.12 33.2802L1087.18 31.4413L1085.81 32.8937ZM1081.61 28.9177L1080.19 27.5035L1078.74 28.957L1080.23 30.3701L1081.61 28.9177ZM1086.03 24.4937L1087.41 23.047L1086 21.6978L1084.62 23.0795L1086.03 24.4937ZM1089.73 28.0217L1088.35 29.4684L1090.49 31.5172L1091.59 28.759L1089.73 28.0217ZM1088.61 10.6057L1090.28 9.51397L1090.28 9.51397L1088.61 10.6057ZM1074.72 10.6057L1073.04 9.51397L1073.04 9.51397L1074.72 10.6057ZM1074.72 30.2057L1076.39 29.114L1076.39 29.114L1074.72 30.2057ZM1095.53 39.3378L1092.33 36.3138L1089.58 39.2176L1092.78 42.2416L1095.53 39.3378ZM1089.75 36.1738C1087.47 37.9073 1084.8 38.7897 1081.66 38.7897V42.7897C1085.62 42.7897 1089.15 41.6562 1092.17 39.3576L1089.75 36.1738ZM1081.66 38.7897C1078.82 38.7897 1076.34 38.0531 1074.14 36.6019L1071.94 39.9376C1074.82 41.8464 1078.08 42.7897 1081.66 42.7897V38.7897ZM1074.17 36.6209C1072 35.1289 1070.26 33.0339 1068.97 30.2608L1065.34 31.9427C1066.9 35.2922 1069.08 37.9759 1071.91 39.9185L1074.17 36.6209ZM1068.98 30.2692C1067.7 27.4752 1067.03 24.2024 1067.03 20.4057H1063.03C1063.03 24.6731 1063.78 28.5309 1065.34 31.9343L1068.98 30.2692ZM1067.03 20.4057C1067.03 16.6083 1067.7 13.3581 1068.97 10.6067L1065.34 8.92481C1063.78 12.296 1063.03 16.1391 1063.03 20.4057H1067.03ZM1068.98 10.5983C1070.26 7.79009 1072 5.7063 1074.15 4.25801L1071.92 0.937456C1069.08 2.84917 1066.89 5.54405 1065.34 8.93318L1068.98 10.5983ZM1074.16 4.2543C1076.35 2.77178 1078.83 2.02173 1081.66 2.02173V-1.97827C1078.07 -1.97827 1074.8 -1.01097 1071.92 0.941168L1074.16 4.2543ZM1081.66 2.02173C1084.5 2.02173 1086.97 2.75826 1089.12 4.20201L1091.35 0.881457C1088.49 -1.03479 1085.24 -1.97827 1081.66 -1.97827V2.02173ZM1089.13 4.2096C1091.32 5.65943 1093.07 7.74158 1094.35 10.5423L1097.99 8.87718C1096.43 5.48056 1094.22 2.78404 1091.33 0.873871L1089.13 4.2096ZM1094.35 10.5423C1095.63 13.3362 1096.29 16.6091 1096.29 20.4057H1100.29C1100.29 16.1384 1099.54 12.2806 1097.99 8.87718L1094.35 10.5423ZM1096.29 20.4057C1096.29 25.0411 1095.3 28.9078 1093.39 32.0887L1096.82 34.1467C1099.17 30.2343 1100.29 25.6264 1100.29 20.4057H1096.29ZM1093.74 34.5783L1097.21 37.8263L1099.94 34.9052L1096.47 31.6572L1093.74 34.5783ZM1097.16 34.9515L1092.74 39.3755L1095.56 42.2039L1099.99 37.7799L1097.16 34.9515ZM1081.66 35.9017C1083.55 35.9017 1085.29 35.5048 1086.81 34.6233L1084.8 31.1642C1084.01 31.6267 1082.99 31.9017 1081.66 31.9017V35.9017ZM1087.18 31.4413L1082.98 27.4653L1080.23 30.3701L1084.43 34.3461L1087.18 31.4413ZM1083.02 30.3319L1087.44 25.9079L1084.62 23.0795L1080.19 27.5035L1083.02 30.3319ZM1084.65 25.9404L1088.35 29.4684L1091.11 26.575L1087.41 23.047L1084.65 25.9404ZM1091.59 28.759C1092.56 26.3084 1093.01 23.5093 1093.01 20.4057H1089.01C1089.01 23.1261 1088.61 25.4044 1087.87 27.2845L1091.59 28.759ZM1093.01 20.4057C1093.01 16.0923 1092.17 12.4051 1090.28 9.51397L1086.93 11.6975C1088.26 13.7343 1089.01 16.5805 1089.01 20.4057H1093.01ZM1090.28 9.51397C1088.3 6.46434 1085.34 4.90974 1081.66 4.90974V8.90974C1084.03 8.90974 1085.71 9.81913 1086.93 11.6975L1090.28 9.51397ZM1081.66 4.90974C1077.99 4.90974 1075.03 6.46434 1073.04 9.51397L1076.39 11.6975C1077.62 9.81913 1079.29 8.90974 1081.66 8.90974V4.90974ZM1073.04 9.51397C1071.16 12.4051 1070.31 16.0923 1070.31 20.4057H1074.31C1074.31 16.5805 1075.07 13.7343 1076.39 11.6975L1073.04 9.51397ZM1070.31 20.4057C1070.31 24.7192 1071.16 28.4063 1073.04 31.2975L1076.39 29.114C1075.07 27.0771 1074.31 24.231 1074.31 20.4057H1070.31ZM1073.04 31.2975C1075.03 34.3471 1077.99 35.9017 1081.66 35.9017V31.9017C1079.29 31.9017 1077.62 30.9923 1076.39 29.114L1073.04 31.2975ZM1109.68 36.5897L1108.14 37.8661L1108.15 37.8761L1109.68 36.5897ZM1106.15 0.805734V-1.19427H1104.15V0.805734H1106.15ZM1112.98 0.805734H1114.98V-1.19427H1112.98V0.805734ZM1114.5 31.1577L1112.74 32.108L1112.75 32.1292L1112.76 32.15L1114.5 31.1577ZM1125.81 31.1577L1127.56 32.1229L1127.56 32.1155L1127.57 32.108L1125.81 31.1577ZM1127.32 0.805734V-1.19427H1125.32V0.805734H1127.32ZM1134.15 0.805734H1136.15V-1.19427H1134.15V0.805734ZM1130.62 36.5897L1132.15 37.8761L1132.16 37.8661L1130.62 36.5897ZM1120.15 38.7897C1115.94 38.7897 1113.09 37.5351 1111.21 35.3034L1108.15 37.8761C1110.98 41.2443 1115.1 42.7897 1120.15 42.7897V38.7897ZM1111.22 35.3134C1109.25 32.9425 1108.15 29.5472 1108.15 24.8857H1104.15C1104.15 30.155 1105.4 34.5623 1108.14 37.8661L1111.22 35.3134ZM1108.15 24.8857V0.805734H1104.15V24.8857H1108.15ZM1106.15 2.80573H1112.98V-1.19427H1106.15V2.80573ZM1110.98 0.805734V23.0377H1114.98V0.805734H1110.98ZM1110.98 23.0377C1110.98 26.7198 1111.5 29.8152 1112.74 32.108L1116.26 30.2074C1115.48 28.7669 1114.98 26.449 1114.98 23.0377H1110.98ZM1112.76 32.15C1114.27 34.7881 1116.95 35.9017 1120.15 35.9017V31.9017C1117.9 31.9017 1116.81 31.1861 1116.23 30.1655L1112.76 32.15ZM1120.15 35.9017C1123.37 35.9017 1126.09 34.7971 1127.56 32.1229L1124.06 30.1925C1123.51 31.177 1122.46 31.9017 1120.15 31.9017V35.9017ZM1127.57 32.108C1128.81 29.8152 1129.32 26.7198 1129.32 23.0377H1125.32C1125.32 26.449 1124.83 28.7669 1124.05 30.2074L1127.57 32.108ZM1129.32 23.0377V0.805734H1125.32V23.0377H1129.32ZM1127.32 2.80573H1134.15V-1.19427H1127.32V2.80573ZM1132.15 0.805734V24.8857H1136.15V0.805734H1132.15ZM1132.15 24.8857C1132.15 29.5472 1131.05 32.9425 1129.08 35.3134L1132.16 37.8661C1134.9 34.5623 1136.15 30.155 1136.15 24.8857H1132.15ZM1129.09 35.3034C1127.22 37.5351 1124.36 38.7897 1120.15 38.7897V42.7897C1125.2 42.7897 1129.33 41.2443 1132.15 37.8761L1129.09 35.3034ZM1160.05 30.6537L1161.97 30.1013L1161.56 28.6537H1160.05V30.6537ZM1148.91 30.6537V28.6537H1147.4L1146.98 30.1013L1148.91 30.6537ZM1146.22 40.0057V42.0057H1147.72L1148.14 40.5582L1146.22 40.0057ZM1139.39 40.0057L1137.47 39.4235L1136.69 42.0057H1139.39V40.0057ZM1151.31 0.805734V-1.19427H1149.83L1149.4 0.22352L1151.31 0.805734ZM1157.59 0.805734L1159.5 0.221019L1159.07 -1.19427H1157.59V0.805734ZM1169.57 40.0057V42.0057H1172.27L1171.48 39.421L1169.57 40.0057ZM1162.74 40.0057L1160.82 40.5582L1161.23 42.0057H1162.74V40.0057ZM1158.26 24.3817V26.3817H1160.91L1160.18 23.8302L1158.26 24.3817ZM1154.45 11.1097L1156.37 10.5581L1154.44 3.80824L1152.53 10.5657L1154.45 11.1097ZM1150.7 24.3817L1148.77 23.8377L1148.05 26.3817H1150.7V24.3817ZM1160.05 28.6537H1148.91V32.6537H1160.05V28.6537ZM1146.98 30.1013L1144.3 39.4533L1148.14 40.5582L1150.83 31.2062L1146.98 30.1013ZM1146.22 38.0057H1139.39V42.0057H1146.22V38.0057ZM1141.3 40.5879L1153.23 1.38795L1149.4 0.22352L1137.47 39.4235L1141.3 40.5879ZM1151.31 2.80573H1157.59V-1.19427H1151.31V2.80573ZM1155.67 1.39045L1167.66 40.5904L1171.48 39.421L1159.5 0.221019L1155.67 1.39045ZM1169.57 38.0057H1162.74V42.0057H1169.57V38.0057ZM1164.66 39.4533L1161.97 30.1013L1158.13 31.2062L1160.82 40.5582L1164.66 39.4533ZM1160.18 23.8302L1156.37 10.5581L1152.53 11.6613L1156.34 24.9333L1160.18 23.8302ZM1152.53 10.5657L1148.77 23.8377L1152.62 24.9258L1156.37 11.6538L1152.53 10.5657ZM1150.7 26.3817H1158.26V22.3817H1150.7V26.3817ZM1175.96 0.805734V-1.19427H1173.96V0.805734H1175.96ZM1182.79 0.805734H1184.79V-1.19427H1182.79V0.805734ZM1182.79 33.7337H1180.79V35.7337H1182.79V33.7337ZM1196.01 33.7337H1198.01V31.7337H1196.01V33.7337ZM1196.01 40.0057V42.0057H1198.01V40.0057H1196.01ZM1175.96 40.0057H1173.96V42.0057H1175.96V40.0057ZM1175.96 2.80573H1182.79V-1.19427H1175.96V2.80573ZM1180.79 0.805734V33.7337H1184.79V0.805734H1180.79ZM1182.79 35.7337H1196.01V31.7337H1182.79V35.7337ZM1194.01 33.7337V40.0057H1198.01V33.7337H1194.01ZM1196.01 38.0057H1175.96V42.0057H1196.01V38.0057ZM1177.96 40.0057V0.805734H1173.96V40.0057H1177.96ZM1202.49 0.805734V-1.19427H1200.49V0.805734H1202.49ZM1209.32 0.805734H1211.32V-1.19427H1209.32V0.805734ZM1209.32 40.0057V42.0057H1211.32V40.0057H1209.32ZM1202.49 40.0057H1200.49V42.0057H1202.49V40.0057ZM1202.49 2.80573H1209.32V-1.19427H1202.49V2.80573ZM1207.32 0.805734V40.0057H1211.32V0.805734H1207.32ZM1209.32 38.0057H1202.49V42.0057H1209.32V38.0057ZM1204.49 40.0057V0.805734H1200.49V40.0057H1204.49ZM1225.4 7.07774H1227.4V5.07774H1225.4V7.07774ZM1216 7.07774H1214V9.07774H1216V7.07774ZM1216 0.805734V-1.19427H1214V0.805734H1216ZM1241.64 0.805734H1243.64V-1.19427H1241.64V0.805734ZM1241.64 7.07774V9.07774H1243.64V7.07774H1241.64ZM1232.24 7.07774V5.07774H1230.24V7.07774H1232.24ZM1232.24 40.0057V42.0057H1234.24V40.0057H1232.24ZM1225.4 40.0057H1223.4V42.0057H1225.4V40.0057ZM1225.4 5.07774H1216V9.07774H1225.4V5.07774ZM1218 7.07774V0.805734H1214V7.07774H1218ZM1216 2.80573H1241.64V-1.19427H1216V2.80573ZM1239.64 0.805734V7.07774H1243.64V0.805734H1239.64ZM1241.64 5.07774H1232.24V9.07774H1241.64V5.07774ZM1230.24 7.07774V40.0057H1234.24V7.07774H1230.24ZM1232.24 38.0057H1225.4V42.0057H1232.24V38.0057ZM1227.4 40.0057V7.07774H1223.4V40.0057H1227.4ZM1274.77 0.805734L1276.53 1.75393L1278.12 -1.19427H1274.77V0.805734ZM1263.01 22.6457L1261.25 21.6975L1261.01 22.1415V22.6457H1263.01ZM1263.01 40.0057V42.0057H1265.01V40.0057H1263.01ZM1256.24 40.0057H1254.24V42.0057H1256.24V40.0057ZM1256.24 22.6457H1258.24V22.1415L1258 21.6975L1256.24 22.6457ZM1244.48 0.805734V-1.19427H1241.13L1242.72 1.75393L1244.48 0.805734ZM1251.76 0.805734L1253.54 -0.101539L1252.98 -1.19427H1251.76V0.805734ZM1259.65 16.3177L1257.87 17.225L1259.66 20.739L1261.44 17.2199L1259.65 16.3177ZM1267.49 0.805734V-1.19427H1266.26L1265.71 -0.0964174L1267.49 0.805734ZM1273.01 -0.142466L1261.25 21.6975L1264.77 23.5939L1276.53 1.75393L1273.01 -0.142466ZM1261.01 22.6457V40.0057H1265.01V22.6457H1261.01ZM1263.01 38.0057H1256.24V42.0057H1263.01V38.0057ZM1258.24 40.0057V22.6457H1254.24V40.0057H1258.24ZM1258 21.6975L1246.24 -0.142465L1242.72 1.75393L1254.48 23.5939L1258 21.6975ZM1244.48 2.80573H1251.76V-1.19427H1244.48V2.80573ZM1249.97 1.71301L1257.87 17.225L1261.43 15.4105L1253.54 -0.101539L1249.97 1.71301ZM1261.44 17.2199L1269.28 1.70789L1265.71 -0.0964174L1257.87 15.4156L1261.44 17.2199ZM1267.49 2.80573H1274.77V-1.19427H1267.49V2.80573ZM1277.53 19.9577V17.9577H1275.53V19.9577H1277.53ZM1292.48 19.9577H1294.48V17.9577H1292.48V19.9577ZM1292.48 25.2217V27.2217H1294.48V25.2217H1292.48ZM1277.53 25.2217H1275.53V27.2217H1277.53V25.2217ZM1277.53 21.9577H1292.48V17.9577H1277.53V21.9577ZM1290.48 19.9577V25.2217H1294.48V19.9577H1290.48ZM1292.48 23.2217H1277.53V27.2217H1292.48V23.2217ZM1279.53 25.2217V19.9577H1275.53V25.2217H1279.53ZM1307.3 38.2697L1306.17 39.9185L1306.18 39.9282L1306.19 39.9376L1307.3 38.2697ZM1301.42 31.1017L1299.6 31.9343L1299.6 31.9427L1301.42 31.1017ZM1301.42 9.76574L1303.23 10.6067L1303.24 10.5983L1301.42 9.76574ZM1307.3 2.59773L1308.41 4.25802L1308.42 4.2543L1307.3 2.59773ZM1324.49 2.54174L1323.37 4.20205L1323.39 4.2096L1324.49 2.54174ZM1330.43 9.70974L1328.61 10.5423L1328.61 10.5423L1330.43 9.70974ZM1330.43 31.1017L1332.24 31.9343L1330.43 31.1017ZM1324.49 38.2697L1323.39 36.6018L1323.37 36.6095L1324.49 38.2697ZM1322.87 30.2057L1324.54 31.2975L1324.54 31.2975L1322.87 30.2057ZM1322.87 10.6057L1324.54 9.51397L1324.54 9.51397L1322.87 10.6057ZM1308.98 10.6057L1307.3 9.51397L1307.3 9.51397L1308.98 10.6057ZM1308.98 30.2057L1310.65 29.114L1310.65 29.114L1308.98 30.2057ZM1315.92 38.7897C1313.08 38.7897 1310.59 38.0531 1308.4 36.6019L1306.19 39.9376C1309.08 41.8464 1312.34 42.7897 1315.92 42.7897V38.7897ZM1308.43 36.6209C1306.26 35.1289 1304.52 33.0339 1303.23 30.2608L1299.6 31.9427C1301.16 35.2922 1303.34 37.9759 1306.17 39.9185L1308.43 36.6209ZM1303.24 30.2692C1301.96 27.4752 1301.29 24.2024 1301.29 20.4057H1297.29C1297.29 24.6731 1298.04 28.5309 1299.6 31.9343L1303.24 30.2692ZM1301.29 20.4057C1301.29 16.6083 1301.96 13.3581 1303.23 10.6067L1299.6 8.92481C1298.04 12.296 1297.29 16.1391 1297.29 20.4057H1301.29ZM1303.24 10.5983C1304.52 7.79009 1306.26 5.7063 1308.41 4.25801L1306.18 0.937456C1303.34 2.84917 1301.15 5.54405 1299.6 8.93318L1303.24 10.5983ZM1308.42 4.2543C1310.61 2.77178 1313.09 2.02173 1315.92 2.02173V-1.97827C1312.33 -1.97827 1309.06 -1.01097 1306.18 0.941168L1308.42 4.2543ZM1315.92 2.02173C1318.76 2.02173 1321.23 2.75826 1323.37 4.20201L1325.61 0.881457C1322.75 -1.03479 1319.5 -1.97827 1315.92 -1.97827V2.02173ZM1323.39 4.2096C1325.58 5.65943 1327.33 7.74158 1328.61 10.5423L1332.24 8.87718C1330.69 5.48056 1328.48 2.78404 1325.59 0.873871L1323.39 4.2096ZM1328.61 10.5423C1329.89 13.3362 1330.55 16.6091 1330.55 20.4057H1334.55C1334.55 16.1384 1333.8 12.2806 1332.24 8.87718L1328.61 10.5423ZM1330.55 20.4057C1330.55 24.2024 1329.89 27.4752 1328.61 30.2692L1332.24 31.9343C1333.8 28.5309 1334.55 24.6731 1334.55 20.4057H1330.55ZM1328.61 30.2692C1327.33 33.0699 1325.58 35.152 1323.39 36.6019L1325.59 39.9376C1328.48 38.0274 1330.69 35.3309 1332.24 31.9343L1328.61 30.2692ZM1323.37 36.6095C1321.23 38.0532 1318.76 38.7897 1315.92 38.7897V42.7897C1319.5 42.7897 1322.75 41.8463 1325.61 39.93L1323.37 36.6095ZM1315.92 35.9017C1319.6 35.9017 1322.55 34.3471 1324.54 31.2975L1321.19 29.114C1319.97 30.9923 1318.29 31.9017 1315.92 31.9017V35.9017ZM1324.54 31.2975C1326.43 28.4063 1327.27 24.7192 1327.27 20.4057H1323.27C1323.27 24.231 1322.52 27.0771 1321.19 29.114L1324.54 31.2975ZM1327.27 20.4057C1327.27 16.0923 1326.43 12.4051 1324.54 9.51397L1321.19 11.6975C1322.52 13.7343 1323.27 16.5805 1323.27 20.4057H1327.27ZM1324.54 9.51397C1322.55 6.46434 1319.6 4.90974 1315.92 4.90974V8.90974C1318.29 8.90974 1319.97 9.81913 1321.19 11.6975L1324.54 9.51397ZM1315.92 4.90974C1312.24 4.90974 1309.29 6.46434 1307.3 9.51397L1310.65 11.6975C1311.88 9.81913 1313.55 8.90974 1315.92 8.90974V4.90974ZM1307.3 9.51397C1305.42 12.4051 1304.57 16.0923 1304.57 20.4057H1308.57C1308.57 16.5805 1309.33 13.7343 1310.65 11.6975L1307.3 9.51397ZM1304.57 20.4057C1304.57 24.7192 1305.42 28.4063 1307.3 31.2975L1310.65 29.114C1309.33 27.0771 1308.57 24.231 1308.57 20.4057H1304.57ZM1307.3 31.2975C1309.29 34.3471 1312.24 35.9017 1315.92 35.9017V31.9017C1313.55 31.9017 1311.88 30.9923 1310.65 29.114L1307.3 31.2975ZM1340.75 0.805734V-1.19427H1338.75V0.805734H1340.75ZM1347.75 0.805734L1349.51 -0.130412L1348.95 -1.19427H1347.75V0.805734ZM1360.74 25.3337L1358.97 26.2699L1362.74 25.3337H1360.74ZM1360.74 0.805734V-1.19427H1358.74V0.805734H1360.74ZM1367.57 0.805734H1369.57V-1.19427H1367.57V0.805734ZM1367.57 40.0057V42.0057H1369.57V40.0057H1367.57ZM1361.58 40.0057L1359.82 40.9512L1360.38 42.0057H1361.58V40.0057ZM1347.58 13.9097L1349.34 12.9642L1345.58 13.9097H1347.58ZM1347.58 40.0057V42.0057H1349.58V40.0057H1347.58ZM1340.75 40.0057H1338.75V42.0057H1340.75V40.0057ZM1340.75 2.80573H1347.75V-1.19427H1340.75V2.80573ZM1345.98 1.74188L1358.97 26.2699L1362.51 24.3976L1349.51 -0.130412L1345.98 1.74188ZM1362.74 25.3337V0.805734H1358.74V25.3337H1362.74ZM1360.74 2.80573H1367.57V-1.19427H1360.74V2.80573ZM1365.57 0.805734V40.0057H1369.57V0.805734H1365.57ZM1367.57 38.0057H1361.58V42.0057H1367.57V38.0057ZM1363.34 39.0602L1349.34 12.9642L1345.82 14.8552L1359.82 40.9512L1363.34 39.0602ZM1345.58 13.9097V40.0057H1349.58V13.9097H1345.58ZM1347.58 38.0057H1340.75V42.0057H1347.58V38.0057ZM1342.75 40.0057V0.805734H1338.75V40.0057H1342.75ZM1377.78 0.805734V-1.19427H1375.78V0.805734H1377.78ZM1399.79 0.805734H1401.79V-1.19427H1399.79V0.805734ZM1399.79 7.07774V9.07774H1401.79V7.07774H1399.79ZM1384.61 7.07774V5.07774H1382.61V7.07774H1384.61ZM1384.61 16.3177H1382.61V18.3177H1384.61V16.3177ZM1396.32 16.3177H1398.32V14.3177H1396.32V16.3177ZM1396.32 22.5897V24.5897H1398.32V22.5897H1396.32ZM1384.61 22.5897V20.5897H1382.61V22.5897H1384.61ZM1384.61 33.7337H1382.61V35.7337H1384.61V33.7337ZM1400.29 33.7337H1402.29V31.7337H1400.29V33.7337ZM1400.29 40.0057V42.0057H1402.29V40.0057H1400.29ZM1377.78 40.0057H1375.78V42.0057H1377.78V40.0057ZM1377.78 2.80573H1399.79V-1.19427H1377.78V2.80573ZM1397.79 0.805734V7.07774H1401.79V0.805734H1397.79ZM1399.79 5.07774H1384.61V9.07774H1399.79V5.07774ZM1382.61 7.07774V16.3177H1386.61V7.07774H1382.61ZM1384.61 18.3177H1396.32V14.3177H1384.61V18.3177ZM1394.32 16.3177V22.5897H1398.32V16.3177H1394.32ZM1396.32 20.5897H1384.61V24.5897H1396.32V20.5897ZM1382.61 22.5897V33.7337H1386.61V22.5897H1382.61ZM1384.61 35.7337H1400.29V31.7337H1384.61V35.7337ZM1398.29 33.7337V40.0057H1402.29V33.7337H1398.29ZM1400.29 38.0057H1377.78V42.0057H1400.29V38.0057ZM1379.78 40.0057V0.805734H1375.78V40.0057H1379.78Z" fill="#643617" mask="url(#path-1-outside-1_303_41254)"/>
</g>
</svg>
