<svg width="172" height="43" viewBox="0 0 172 43" fill="none" xmlns="http://www.w3.org/2000/svg">
<g clip-path="url(#clip0_416_10797)">
<path fill-rule="evenodd" clip-rule="evenodd" d="M85.9798 1.16027C86.3666 1.24029 86.4199 1.01356 86.6867 1.05357C87.6069 1.17361 87.6336 3.57427 86.6867 3.66763C86.3266 3.70764 86.0998 3.20084 85.7397 3.52093C85.7931 4.08108 86.4066 4.1611 86.7267 4.46786C87.3268 5.05469 87.4202 5.86825 87.3669 6.97522C87.8737 7.34866 88.5939 7.28197 89.234 7.36199C90.5677 7.53538 91.7414 7.74877 93.0084 8.06886C93.5286 8.20223 94.2621 8.57566 94.8089 8.49564C95.1557 8.44229 95.6225 7.88214 95.9692 7.64207C96.356 7.38867 96.9162 7.16194 97.2763 6.93521C97.6097 6.72182 97.7697 6.41506 98.2232 6.33504C98.5566 6.84185 98.5833 7.46869 98.7167 8.06886C98.7834 8.36227 98.85 8.66902 98.8901 8.98911C98.9434 9.29586 98.8901 9.68264 98.9968 9.97605C99.1168 10.3628 99.8903 10.6696 100.157 10.8563C100.344 10.9897 100.571 11.123 100.757 11.2831C100.944 11.4431 101.117 11.6832 101.357 11.7099C101.718 11.7499 101.998 11.4565 102.278 11.2831C102.584 11.083 102.878 10.9497 103.118 10.8296C103.758 10.5095 104.225 10.0961 104.878 10.0161C104.838 10.8696 104.372 11.5765 104.025 12.35C103.865 12.6968 103.705 13.1103 103.531 13.4837C103.358 13.8571 103.131 14.2439 103.078 14.6173C102.971 15.3375 103.105 15.8444 102.718 16.2045C102.544 16.3645 102.158 16.3778 101.878 16.5512C101.691 16.6712 101.491 17.0313 101.317 17.3248C100.971 17.8983 100.651 18.3651 100.264 18.9519C100.09 19.2053 99.8103 19.5387 99.7703 19.8055C99.6769 20.3123 99.837 20.659 99.7036 21.0058C99.5169 21.4726 99.0768 21.5126 98.65 21.846C98.0765 22.2861 97.9565 23.7799 97.383 23.8866C96.9829 23.9666 96.4094 23.6999 95.9026 23.6465C94.3421 23.4465 92.4216 23.7265 90.9679 23.4731C89.034 23.1264 87.1268 22.6863 84.9395 22.5929C81.2718 22.4328 78.4844 22.993 75.5502 23.5798C74.6033 23.7666 73.4963 24.0466 72.5094 23.9666C72.336 23.9533 72.0559 23.8999 71.9492 23.8599C71.189 23.5532 70.949 22.2995 70.3221 22.0194C70.0287 21.886 69.7219 21.9527 69.4685 21.7393C68.9351 21.2725 69.4152 20.8324 69.2551 19.9788C69.1618 19.4587 68.615 18.9519 68.2682 18.4317C67.9214 17.8983 67.6947 17.2181 67.2413 16.9513C66.9078 16.7646 66.5744 16.7779 66.321 16.6046C66.0809 16.4312 65.8409 16.1111 65.7875 15.7243C65.7342 15.3642 65.8675 15.2175 65.8275 14.7774C65.7875 14.3906 65.5074 13.9905 65.3341 13.6171C64.974 12.8569 64.7206 12.0833 64.3071 11.3631C64.1204 11.0163 63.7736 10.6696 63.8803 10.2295C64.6539 10.2828 65.214 10.6162 65.8942 11.003C66.1343 11.1497 66.441 11.3764 66.7344 11.6032C66.9879 11.8032 67.2946 12.1367 67.6147 12.1367C68.0548 12.1367 68.5216 11.4565 68.8817 11.1897C69.2151 10.9363 69.9353 10.6829 70.1221 10.2428C70.2288 9.96272 70.2421 9.48258 70.3355 9.08247C70.4155 8.6957 70.5222 8.26891 70.5488 7.94882C70.5889 7.45535 70.4421 6.93521 70.7622 6.5351C71.3091 6.64179 71.2957 7.02857 71.6425 7.34866C71.9759 7.64207 72.4827 7.81545 72.9095 8.09553C73.3496 8.38895 73.4563 8.78906 74.1765 8.73571C74.7633 8.68236 75.3902 8.36227 75.977 8.20223C77.4708 7.80212 79.0045 7.49536 80.845 7.32198C81.0851 7.29531 81.6453 7.33532 81.7253 7.06858C81.832 6.73515 81.4852 6.25502 81.4852 5.97494C81.4719 5.38811 81.792 4.89464 82.0854 4.60123C82.4055 4.28114 83.0723 4.1611 83.0323 3.57427C82.5789 3.45424 82.6589 3.97439 82.2588 3.96105C81.4319 3.93437 81.2451 1.29364 82.1921 1.1336C82.4855 1.08025 82.5522 1.36032 83.0056 1.24029C83.099 0.866854 82.6989 0.826843 82.7656 0.533428C82.9256 -0.200109 85.6597 -0.0400644 85.9398 0.493417C86.0865 0.733484 85.7931 1.0269 85.9798 1.20028V1.16027ZM86.0865 9.52259C86.1799 8.41562 85.9131 7.70876 85.4863 7.05524C85.1929 6.60178 84.7261 5.80156 84.246 6.10831C83.6325 6.49509 82.8723 7.53538 82.7656 8.54899C82.6589 9.49592 83.0323 10.1494 82.8723 10.7763C82.0187 10.7629 81.0318 10.2028 80.1515 10.5629C78.6444 11.1764 79.2579 13.7371 80.2582 14.444C80.2849 13.8171 80.0982 13.6571 80.1115 13.1103C80.1515 11.9899 80.8317 11.3231 81.8453 11.2697C82.1787 11.2564 82.6055 11.4565 83.0056 11.3764C83.6191 11.2564 83.8725 10.3228 84.8461 10.6696C85.2596 10.8163 85.4063 11.3098 85.7931 11.3764C86.1132 11.4298 86.3932 11.2164 86.6733 11.163C87.807 10.9497 88.7139 11.6032 88.7139 12.6034C88.7139 13.0436 88.5805 13.6838 88.2204 13.9505C87.927 13.4704 88.2204 12.4167 87.8336 12.0433C87.6469 11.8699 87.1001 11.8699 86.8867 11.8966C86.5533 11.9366 86.0465 12.1633 85.7931 12.3901C85.5263 12.6168 85.473 13.0036 85.2596 13.2436C84.8728 13.6971 84.0059 13.8438 83.5258 13.457C83.1924 13.1903 83.1924 12.6568 82.7789 12.2967C82.2188 11.7899 81.0318 12.03 80.845 12.6568C80.565 13.5104 81.2585 14.3639 80.885 14.9908C80.765 15.1242 80.4716 14.8574 80.4583 15.0975C80.5516 15.3776 80.5516 16.1911 80.9117 16.2311C81.4852 16.2845 81.4319 14.5106 81.5786 14.1505C81.7253 13.8038 82.1254 13.2703 82.6322 13.297C82.979 13.3103 83.259 13.6437 83.4058 13.9638C83.8459 14.8974 83.3257 16.1244 82.9123 16.6846C82.2188 17.6315 81.0051 18.245 79.5647 18.3384C77.3774 18.4851 75.2301 17.098 74.9101 15.3109C74.8167 14.7907 75.0701 14.1505 75.5769 14.0705C76.4038 13.9505 76.6572 14.7641 76.8173 15.2308C76.964 15.6843 77.044 16.3645 77.7375 16.3645C77.8309 16.1511 77.8442 15.6176 77.7375 15.3776C77.6575 15.2042 77.3907 15.1242 77.284 14.9108C77.0707 14.524 77.0707 13.9905 76.8573 13.6037C76.6305 13.2036 75.937 12.6034 75.2035 12.9369C74.83 13.0969 74.87 13.7238 74.67 14.0972C74.4166 14.5773 73.7097 14.724 73.1896 14.444C72.8295 14.2572 72.6828 13.7371 72.2693 13.6971C71.0957 13.5904 72.216 15.1242 71.9226 15.3509C71.4691 15.3509 71.0957 14.7374 71.0423 14.2973C70.949 13.6304 71.3757 13.2303 71.7759 13.0569C71.9759 12.9769 72.256 12.9902 72.4427 12.8435C72.6561 12.6835 72.6561 12.2834 72.8295 12.07C72.9362 11.9366 73.1496 11.7499 73.363 11.7232C73.9631 11.6165 74.2299 12.1633 74.63 12.2567C75.0168 12.35 75.3635 12.1367 75.6836 12.15C76.3638 12.1767 76.8973 12.6435 77.204 13.1369C77.3507 13.3637 77.3641 13.7104 77.6575 13.8438C77.8442 12.4167 76.8306 10.923 75.1501 11.2297C74.87 11.2831 74.6833 11.5365 74.3099 11.5498C73.8431 10.9497 73.8431 9.93604 73.2829 9.32254C73.0829 9.09581 72.8028 8.92243 72.4294 8.72237C72.176 8.57566 71.6958 8.21556 71.4024 8.29559C71.1357 8.37561 71.0023 9.20251 70.9756 9.45591C70.8556 10.7629 71.4691 11.2831 71.8159 12.07C71.4158 12.5101 70.5755 12.4034 70.3755 12.9902C70.2821 13.2436 70.2954 13.5637 70.3355 13.8705C70.4955 14.8841 71.5758 15.7243 72.136 16.4445C72.3227 16.6846 72.4827 17.0447 72.7761 16.978C73.0162 16.2178 72.2827 16.0311 72.3894 15.3242C72.416 15.0841 72.5894 14.8307 72.9228 14.7907C73.7897 14.6974 74.5366 16.0311 74.4032 17.018C74.3366 17.4981 73.9898 18.1116 73.7631 18.3651C73.3896 18.7785 72.6027 19.2853 71.8159 19.2853C70.5622 19.2853 69.5886 18.3384 68.9617 17.5915C68.6683 17.2447 68.0548 16.0844 68.9884 16.0711C69.8553 16.0711 69.6819 17.2714 70.4688 17.4848C70.5088 17.0047 70.2421 16.4312 70.1221 15.8977C69.922 15.0708 69.5352 13.8305 68.6683 13.7771C68.3749 13.7638 68.1215 14.0572 67.8281 13.9905C67.588 13.9372 67.5213 13.4837 67.3746 13.217C67.2279 12.9636 66.9212 12.6968 66.6678 12.4701C66.3877 12.23 66.1076 11.9366 65.7208 12.0433C65.6275 12.4968 65.8942 12.7635 66.0409 13.1369C66.1743 13.4704 66.2543 13.9905 66.4944 14.1639C66.7611 14.3373 67.1079 14.2306 67.4146 14.3373C67.9748 14.5507 68.3082 15.1908 68.2949 15.7777C68.2949 16.0978 68.0682 16.4045 68.1215 16.8046C68.1882 17.2314 68.855 17.9383 69.0684 18.245C69.3218 18.6051 69.7353 19.4454 70.0954 19.6587C70.5755 19.9388 71.229 19.8321 71.6825 20.2189C71.6291 20.8191 71.0557 21.1525 71.1223 21.766C71.2024 22.6062 72.176 22.3262 72.8828 22.1528C73.6697 21.9661 74.4966 21.7927 75.2835 21.6593C76.017 21.5259 76.7239 21.5926 76.9106 21.0591C77.0573 21.2192 77.0573 21.2325 77.2574 21.2725C77.8175 21.3792 78.5377 21.2459 79.1646 21.1658C84.2593 20.5657 90.0343 20.8724 94.6222 21.6993C95.6492 21.886 96.6361 22.2061 97.623 22.1261C98.0365 21.6993 97.623 20.9658 97.6897 20.4723C97.7431 20.0188 98.1165 19.6721 98.4633 19.4854C98.6633 19.3787 98.9301 19.3787 99.1301 19.2453C99.5836 18.9385 99.7303 18.245 99.9704 17.7916C99.7036 17.7249 99.5836 18.005 99.4369 18.1383C98.9567 18.5784 98.2766 18.9919 97.463 19.0186C96.6228 19.0586 95.5291 18.7118 95.0623 18.1383C94.3021 17.1914 94.5689 15.671 95.3824 14.9641C95.5825 14.7907 95.8359 14.6307 96.1293 14.684C97.1963 14.8974 95.7692 16.4445 96.196 16.9113C96.5294 16.8846 96.6894 16.5112 96.9028 16.2445C97.463 15.5376 98.3299 14.6307 98.53 13.7371C98.61 13.4037 98.5833 12.9769 98.4899 12.7902C98.2766 12.27 97.2496 12.2567 97.1829 11.8032C97.1296 11.4431 97.583 11.0964 97.7431 10.8163C97.8898 10.5495 98.0632 10.0961 98.0898 9.76266C98.1565 9.09581 98.0498 7.85546 97.5564 7.78878C97.2229 7.73543 96.8228 8.16222 96.6094 8.32226C95.8759 8.84241 95.3824 9.17583 95.089 10.1228C94.9556 10.5629 94.9156 11.3364 94.5288 11.3898C94.2621 11.4298 93.942 11.1764 93.6886 11.1364C93.1685 11.0697 92.5816 11.1364 92.2349 11.3498C91.7281 11.6699 91.1946 12.4167 91.3546 13.1503C91.6881 12.9369 91.8481 12.5501 92.1682 12.2967C92.4749 12.0566 92.8617 11.8566 93.3685 11.8699C93.782 11.8699 94.1954 12.15 94.6355 12.0833C94.969 12.03 95.2757 11.6965 95.6625 11.7632C96.1426 11.8432 96.1026 12.3901 96.4094 12.6435C96.6494 12.8435 97.1296 12.7768 97.3963 13.0302C97.623 13.2436 97.7431 13.6704 97.7431 13.9772C97.7564 14.484 97.623 15.2709 97.0095 15.3909C96.6494 14.9508 97.583 13.6171 96.7961 13.457C95.9959 13.297 96.1026 14.3639 95.3824 14.5507C94.7822 14.7107 94.2754 14.3906 94.1821 13.8838C94.1154 13.4437 94.3821 13.3503 94.1821 12.8969C94.022 12.5234 93.2485 12.4301 92.7684 12.6168C92.0081 12.9235 91.9148 13.9905 91.6747 14.6307C91.5547 14.7374 91.2613 14.6707 91.1812 14.8041C91.1812 15.2842 90.9278 16.0177 91.1812 16.4312C92.4749 16.3378 91.9548 14.2039 93.1285 14.0705C93.7553 14.0038 94.1821 14.644 94.0754 15.2709C93.9554 16.0311 92.8884 16.978 92.4216 17.3514C90.7945 18.6318 88.2338 18.5118 86.6733 17.2447C85.9131 16.6312 85.1529 15.8177 85.1929 14.7107C85.2463 13.4303 86.8467 12.7902 87.3135 13.9638C87.4735 14.3906 87.3135 16.3512 88.0204 16.2178C88.2471 16.1778 88.3271 15.5776 88.4472 15.2308C88.5805 14.8041 88.7406 14.4706 88.8739 14.2039C89.194 13.5504 89.6608 12.8969 89.7542 12.23C89.9142 11.0163 89.114 10.5095 88.2071 10.4295C87.2335 10.3495 86.6867 10.7096 85.9798 10.7496C85.7664 10.4028 86.0198 10.0027 86.0465 9.54927L86.0865 9.52259ZM81.3919 7.8688C80.3116 7.96216 79.1246 8.24224 78.0042 8.42896C77.4441 8.52232 76.8706 8.61568 76.3505 8.74905C75.8303 8.88242 75.2968 9.04246 74.8967 9.3092C75.9904 9.17583 77.1507 8.81573 78.351 8.60234C79.2579 8.44229 80.2049 8.29559 81.1385 8.21556C81.4052 8.18889 81.8587 8.29559 81.9787 7.96216C81.872 7.80212 81.5386 7.84213 81.3785 7.85546L81.3919 7.8688ZM86.9667 7.90881C86.9667 7.90881 86.9267 8.00217 86.9267 8.08219C87.4335 8.24224 88.1804 8.17555 88.8339 8.18889C88.3805 7.93549 87.6069 7.84213 86.9667 7.90881ZM75.6836 9.81601C75.2968 9.89603 74.4833 10.0294 74.63 10.4829C74.75 10.8563 75.5769 10.5495 75.8703 10.5495C77.4708 10.5629 78.4444 11.9633 78.5511 13.5904C78.6044 14.3506 78.4577 15.0841 78.5111 15.8444C78.5377 16.1644 78.8178 16.6712 78.7511 17.0047C78.6978 17.2981 78.4577 17.1514 78.3643 17.4981C79.4313 17.8182 80.5116 17.4981 81.1518 17.1514C81.9653 16.6979 82.7389 16.0577 82.8456 15.0708C82.8723 14.8041 82.8989 14.1772 82.6055 14.1906C82.3121 14.1906 82.2321 15.4442 82.1121 15.7777C81.7653 16.6712 81.2718 17.2581 80.1648 17.1514C79.8714 16.898 79.9915 16.3912 79.9515 15.951C79.8181 14.4973 78.5644 13.3637 78.5777 11.9233C78.5911 10.6829 79.4446 9.68264 80.8317 9.69598C81.1518 9.69598 81.5119 9.92271 81.8587 9.73599C81.952 9.48258 81.8587 9.17583 81.7253 9.06914C79.4446 8.88242 77.5775 9.4159 75.6969 9.81601H75.6836ZM99.6103 11.4031C99.5302 11.4031 99.4769 11.4031 99.4636 11.4698C99.8103 11.7499 100.117 12.0833 100.557 12.2834C100.517 11.8566 99.9303 11.6699 99.6103 11.4031ZM68.9884 12.2167C68.775 12.3767 68.4283 12.5101 68.3482 12.8168C68.655 12.8435 68.9084 12.5768 69.1218 12.3901C69.3485 12.2033 69.5886 11.9899 69.762 11.7632C69.802 11.7632 69.7886 11.7099 69.7219 11.7232C69.4685 11.8699 69.2285 12.0433 68.9751 12.2167H68.9884ZM101.664 13.0302C101.464 13.377 101.464 13.6304 101.211 13.6971C100.877 13.7904 100.45 13.537 100.077 13.6971C99.3302 14.0172 99.0368 15.4709 98.77 16.2045C98.6633 16.4979 98.4633 16.858 98.5966 17.1914C99.2368 17.0847 99.3035 15.751 100.117 15.9244C100.531 16.0044 100.491 16.4979 100.437 17.018C100.944 17.0447 101.477 15.4042 100.931 15.0041C100.33 14.5773 100.024 15.4309 99.5969 15.4976C99.3435 14.8974 99.8637 14.3773 100.37 14.2973C100.757 14.2306 101.144 14.4306 101.531 14.3639C101.784 14.3239 102.198 14.2039 102.384 14.0839C102.691 13.8971 102.784 13.337 102.918 13.0302C103.078 12.6435 103.385 12.3367 103.265 11.8699C102.758 11.8032 101.931 12.5901 101.677 13.0302H101.664ZM69.5219 13.3503C69.7353 13.3237 69.8553 12.9636 69.7753 12.6835C69.2285 12.4701 69.0151 13.417 69.5219 13.3503ZM75.737 15.0441C75.6436 15.6843 75.9237 16.2578 76.4438 16.4178C76.3905 15.9644 76.2704 15.2709 75.9503 14.9641C75.8436 14.9508 75.817 15.0175 75.737 15.0308V15.0441ZM71.0023 16.0311H70.9356C70.9356 16.0311 70.8689 16.0844 70.8689 16.1378C70.9223 16.6179 71.1623 17.1914 71.4291 17.6582C71.6692 18.0583 72.0159 18.7385 72.5627 18.4051C72.3093 17.3514 71.7492 16.6046 71.0023 16.0444V16.0311ZM73.6564 17.0847C73.8964 16.9513 73.8164 16.2578 73.5897 16.1644C73.4563 16.3912 73.6564 16.7646 73.6564 17.0847ZM84.6594 9.85602C85.2463 9.78934 85.2996 7.10859 84.5127 7.21529C83.7125 7.32198 83.9792 9.94938 84.6594 9.85602ZM72.7361 11.0964C73.5097 10.9497 72.6561 8.96244 71.8559 9.29586C71.1623 9.58928 72.2827 11.1897 72.7361 11.0964ZM96.3827 11.2431C97.1296 11.7632 97.8498 9.21584 96.9162 9.44257C96.6094 9.52259 95.9026 10.8963 96.3827 11.2431ZM84.6728 19.8188C86.1665 19.7921 86.3532 17.7249 85.1662 17.2848C84.9395 17.2047 84.6861 17.1914 84.3927 17.2181C82.6856 17.3781 83.1257 19.8588 84.6728 19.8321V19.8188ZM92.5816 18.5784C92.2749 18.9119 92.0081 19.8455 92.4083 20.3123C92.8484 20.8191 93.6219 20.6724 94.062 20.2722C94.929 19.512 94.5555 18.085 93.5019 18.1517C93.1151 18.1783 92.8084 18.325 92.5816 18.5784ZM81.9653 18.5784C81.9653 18.5784 82.0454 18.6185 82.1121 18.6185C82.1121 18.5784 82.1521 18.5651 82.1787 18.5518C82.1787 18.4584 82.1121 18.4051 82.0054 18.4051C81.9787 18.4451 81.952 18.4984 81.9653 18.5784ZM89.0873 19.432C89.6208 19.472 89.7408 18.4451 89.0473 18.6185C88.6205 18.7252 88.6339 19.392 89.0873 19.432ZM75.5369 20.9124C75.9904 20.9658 76.6839 20.699 76.8439 20.2056C77.1507 19.2453 76.3238 18.5651 75.4702 18.7252C74.3366 18.9385 74.3099 20.7791 75.5369 20.9124ZM80.3382 19.7788C80.845 19.6854 80.8317 18.6451 80.1248 18.8318C79.4847 18.9919 79.8448 19.8855 80.3382 19.7788ZM95.9292 20.3123C96.4094 20.3389 96.5294 19.3387 95.9292 19.472C95.5158 19.552 95.4491 20.2989 95.9292 20.3123ZM78.1776 20.1389C78.3377 20.2322 78.5911 20.1656 78.6044 19.9922C78.5244 19.7521 78.0176 19.8588 78.1776 20.1389ZM73.523 20.4856C73.3363 19.7388 72.256 20.659 72.9628 21.1258C73.3763 21.1658 73.603 20.8324 73.523 20.4856ZM79.0979 20.5257C79.1912 20.6057 79.3646 20.5523 79.3513 20.419C79.2713 20.3123 79.0712 20.3389 79.0979 20.5257ZM74.2966 21.0191V20.8724H74.1498C74.1232 20.9924 74.1632 21.0458 74.2966 21.0191ZM72.7761 21.5126C72.9762 21.5926 73.0162 21.2859 72.8161 21.3392C72.7895 21.3792 72.7628 21.4326 72.7761 21.5126Z" fill="#F9D20E"/>
</g>
<path d="M66.756 33.1621L2.09175 36.2996C0.721991 36.6461 0.0371094 36.6461 0.0371094 36.6461C0.0371094 36.9926 0.721991 36.9926 2.09175 36.9926L67.0984 40.4766C67.0984 39.4372 68.1257 37.3583 69.1531 36.9926C68.1257 36.2996 66.7369 34.5673 66.7369 33.1621H66.756Z" fill="#F9D20E"/>
<path d="M100.468 37.3389C98.7556 37.6854 97.7093 37.6854 97.7093 36.9924C97.7093 36.2995 98.7366 35.953 100.468 36.2995C101.495 36.646 102.884 35.953 103.207 34.8943C103.55 33.8549 103.892 32.8155 103.55 32.1225C103.55 31.776 103.207 31.4296 103.207 31.4296C102.865 31.4296 102.18 31.776 102.18 32.469C101.838 32.469 101.153 33.1619 100.125 32.8155C99.4215 32.469 98.3942 32.469 97.7093 32.469C96.3395 32.469 95.2932 32.9887 94.6083 33.7009C93.9234 34.3939 93.4097 35.2601 93.2385 35.953H91.5263C91.1839 33.5277 88.7678 31.4296 86.3707 31.4296C83.6121 31.4296 81.5575 33.5277 81.215 35.953H79.5028C79.1604 34.5671 77.7906 32.469 75.0321 32.469C74.3472 32.469 73.3199 32.469 72.635 32.8155C71.6077 33.1619 70.9038 32.8155 70.5804 32.469C70.2379 32.1225 69.8955 31.4296 69.553 31.4296C69.2106 31.4296 69.2106 31.776 69.2106 32.1225C68.8682 32.469 68.8682 34.2014 69.553 34.8943C69.8955 35.9338 70.9228 36.646 71.9692 36.646C74.7277 36.2995 75.4126 36.2995 75.4126 36.9924C75.4126 37.6854 74.7277 38.0319 71.9692 37.6854C70.9418 37.3389 69.9145 37.6854 69.2106 38.3783C68.8682 39.4178 68.8682 40.8037 68.8682 41.8624C69.2106 42.2088 69.553 42.5553 69.8955 42.5553C70.2379 42.5553 70.2379 41.8624 70.5804 41.1694C70.9228 40.8229 71.2652 40.8229 72.2926 40.8229C72.9775 40.8229 74.0048 41.1694 75.0511 41.1694C76.2497 41.1694 77.277 40.6497 77.9809 40.13C78.837 39.437 79.1794 38.5516 79.1794 37.6854H81.2341C81.2341 40.13 83.6502 42.2088 86.3897 42.2088C87.7595 42.2088 88.958 41.6891 89.8331 40.8229C90.8605 39.9567 91.3741 38.8981 91.5453 37.6854H93.2575C93.6 39.0905 94.9888 41.1694 97.7283 41.1694C98.7556 41.1694 99.4405 40.8229 100.487 40.8229C101.172 40.8229 101.857 40.8229 102.199 41.1694C102.199 41.8624 102.542 42.5553 102.884 42.5553C103.226 42.5553 103.569 42.2088 103.569 41.5159C103.911 40.8229 103.911 39.4178 103.226 38.3976C102.884 37.7046 101.514 37.3582 100.487 37.3582L100.468 37.3389Z" fill="#F9D20E"/>
<path d="M170.268 36.6461L105.28 33.1621C105.28 34.548 104.253 36.2996 102.864 36.9926C103.892 37.3391 104.919 39.0907 104.919 40.4766L170.268 36.9926C171.409 36.9926 171.98 36.8771 171.98 36.6461H170.268Z" fill="#F9D20E"/>
<path d="M66.756 33.1621C66.756 34.548 68.1257 36.2996 69.1721 36.9926C68.1448 37.339 67.1174 39.4179 67.1174 40.4766L2.09175 36.9926C0.721991 36.9926 0.0371094 36.9926 0.0371094 36.6461C0.0371094 36.6461 0.721991 36.6461 2.09175 36.2996L66.756 33.1621ZM65.3862 39.0907C65.3862 38.3977 66.0711 37.339 66.756 36.6461H32.7021C31.3324 36.6461 30.9899 36.9926 30.9899 36.9926C30.9899 36.9926 31.3324 37.339 32.3597 37.339L65.3672 39.0907H65.3862ZM91.5258 37.6855C91.3546 38.8982 90.841 39.9569 89.8136 40.823C88.9575 41.6892 87.759 42.209 86.3702 42.209C83.6117 42.209 81.2146 40.1301 81.2146 37.6855H79.1599C79.1599 38.5517 78.8175 39.4179 77.9614 40.1301C77.2765 40.6498 76.2492 41.1695 75.0316 41.1695C74.0043 41.1695 72.977 40.823 72.2731 40.823C71.2458 40.823 70.9033 40.823 70.5609 41.1695C70.2184 41.8625 70.2184 42.5554 69.876 42.5554C69.5335 42.5554 69.1911 42.209 68.8487 41.8625C68.8487 40.823 68.8487 39.4179 69.1911 38.3785C69.876 37.6855 70.9033 37.339 71.9497 37.6855C74.7082 38.032 75.3931 37.6855 75.3931 36.9926C75.3931 36.2996 74.7082 36.2996 71.9497 36.6461C70.9223 36.6461 69.895 35.9531 69.5335 34.8945C68.8487 34.2015 68.8487 32.4691 69.1911 32.1226C69.1911 31.7762 69.1911 31.4297 69.5335 31.4297C69.876 31.4297 70.2184 32.1226 70.5609 32.4691C70.9033 32.8156 71.5882 33.1621 72.6155 32.8156C73.3004 32.4691 74.3277 32.4691 75.0126 32.4691C77.7711 32.4691 79.1409 34.5672 79.4833 35.9531H81.1956C81.538 33.5278 83.6117 31.4297 86.3512 31.4297C88.7483 31.4297 91.1644 33.5278 91.5068 35.9531H93.219C93.3902 35.2602 93.9039 34.394 94.5888 33.701C95.2737 33.0081 96.301 32.4691 97.6898 32.4691C98.3747 32.4691 99.402 32.4691 100.106 32.8156C101.133 33.1621 101.818 32.4691 102.161 32.4691C102.161 31.7762 102.845 31.4297 103.188 31.4297C103.188 31.4297 103.53 31.7762 103.53 32.1226C103.873 32.8156 103.53 33.855 103.188 34.8945C102.845 35.9339 101.476 36.6461 100.448 36.2996C98.7361 35.9531 97.6898 36.2996 97.6898 36.9926C97.6898 37.6855 98.7171 37.6855 100.448 37.339C101.476 37.339 102.864 37.6855 103.188 38.3785C103.873 39.4179 103.873 40.8038 103.53 41.4967C103.53 42.1897 103.188 42.5362 102.845 42.5362C102.503 42.5362 102.161 41.8432 102.161 41.1503C101.818 40.8038 101.133 40.8038 100.448 40.8038C99.421 40.8038 98.7361 41.1503 97.6898 41.1503C94.9312 41.1503 93.5615 39.0714 93.219 37.6663H91.5068L91.5258 37.6855ZM76.4014 38.3785C75.7165 39.4179 74.6892 39.4179 72.958 39.4179H72.2731C72.2731 39.5911 72.4443 39.5911 72.4443 39.7644H72.958C74.6702 40.1108 76.0399 40.1108 77.4287 39.4179C77.7711 39.0714 77.7711 38.3785 77.7711 38.3785C77.4287 38.032 77.0863 38.032 76.4014 38.3785ZM83.6307 39.4179C83.9731 40.1108 85.3429 40.823 86.7317 40.823C87.759 40.823 88.7863 40.1301 89.4902 39.0907L89.8327 38.7442C89.4902 38.3977 89.4902 38.7442 89.1478 38.7442C88.8053 39.0907 87.778 39.4371 87.0741 39.4371C86.0468 39.4371 85.3619 39.0907 84.677 38.3977C83.9922 37.7048 83.6497 37.7048 83.3073 38.0512C82.9648 38.3977 82.9648 38.7442 83.6497 39.4371L83.6307 39.4179ZM95.3117 39.4179C96.6815 40.1108 98.0703 40.1108 99.7825 39.7644C100.125 39.7644 100.467 39.7644 100.467 39.4179H99.7825C97.7088 39.4179 97.0239 39.4179 95.9966 38.3785C95.6542 38.032 95.3117 38.032 94.9693 38.3785C94.9693 38.3785 94.9693 39.0714 95.3117 39.4179ZM170.287 36.6461H171.999C171.999 36.8771 171.429 36.9926 170.287 36.9926L104.938 40.4766C104.938 39.0907 103.911 37.3583 102.883 36.9926C104.253 36.2996 105.3 34.5672 105.3 33.1621L170.287 36.6461ZM140.019 37.339C141.047 37.339 141.389 36.9926 141.389 36.9926C141.389 36.9926 141.047 36.6461 139.677 36.6461H105.965C106.65 37.339 107.335 38.3977 107.335 39.0907L140 37.339H140.019Z" fill="#F9D20E"/>
<defs>
<clipPath id="clip0_416_10797">
<rect width="41.0247" height="23.98" fill="white" transform="translate(63.8672)"/>
</clipPath>
</defs>
</svg>
