<svg width="116" height="93" viewBox="0 0 116 93" fill="none" xmlns="http://www.w3.org/2000/svg">
<circle cx="46" cy="46" r="46" fill="#F9D20E"/>
<circle cx="107" cy="84" r="9" fill="#F9D20E"/>
<path d="M21.7948 69.3447V56.6786C20.6755 57.479 19.8204 58.0888 18.6256 58.9399C18.8646 58.2158 18.9148 57.733 19.1664 57.4027C19.4934 56.9962 19.9713 56.704 20.4114 56.3737C23.0399 54.4045 22.9644 54.4427 21.5433 51.635C20.7384 50.047 20.1976 48.3192 19.5311 46.655C19.0783 45.5116 18.525 44.4063 18.2106 43.2248C17.9842 42.3864 17.959 41.4462 18.0471 40.5824C18.2232 38.9181 19.1161 37.3428 18.6004 35.5642C18.4873 35.1704 18.8897 34.5225 19.2041 34.1032C20.9271 31.9054 22.5746 29.644 24.4987 27.6368C25.3036 26.7983 26.7121 26.5569 27.844 26.036C33.8052 23.3173 39.8041 20.6876 45.7149 17.8545C48.4692 16.5333 51.4372 16.4317 54.3172 16.0251C55.6628 15.8346 57.1594 16.7747 58.832 17.2701C57.6121 20.1921 56.4048 22.9997 55.2855 25.8328C54.053 28.9326 52.8206 32.0197 51.7138 35.1704C51.0599 37.0379 51.3491 37.1395 53.2733 37.5206C54.8202 37.8255 56.4803 38.2829 57.7253 39.1849C59.1716 40.2393 60.7059 40.6332 62.3408 41.0397C64.7429 41.6495 67.1072 42.3864 69.4087 43.047C70.113 45.4354 70.113 47.6332 69.7986 49.92C69.371 53.0325 69.0691 56.1958 69.044 59.3465C69.044 61.0488 68.3397 62.0144 67.145 62.9291C64.353 65.0507 61.3976 67.0071 58.8698 69.4082C56.8073 71.3647 54.5058 72.7748 52.1289 74.1977C50.7706 75.0108 49.6262 75.4808 48.2554 74.2358C47.7649 73.7912 46.9977 73.5371 46.3186 73.41C39.716 72.2031 33.1009 71.0216 26.4858 69.8783C25.0144 69.6242 23.5052 69.5226 21.7948 69.332V69.3447ZM58.2535 57.6822C58.329 58.1269 58.3919 58.5715 58.5176 59.3211C59.6495 57.949 60.8694 57.0724 60.8945 55.4082C62.1899 54.1505 63.4853 52.8927 64.9064 51.508C62.3031 51.724 61.4605 53.4263 60.9574 55.459C60.0268 56.2339 59.0961 57.0089 58.1655 57.7839C58.4799 56.9581 58.8069 56.1323 59.1213 55.3065C57.8133 56.5007 56.7066 57.7585 56.3419 59.4481C56.9959 58.8383 57.6247 58.2666 58.2535 57.6822ZM34.9496 40.4299C35.4401 40.2521 36.006 40.1631 36.4211 39.8709C37.6661 39.0197 39.3891 38.7148 39.8418 36.9363C40.9485 36.0851 42.0427 35.2466 43.2626 34.3065C42.7972 33.7348 42.4074 33.252 41.8414 32.5406C43.4638 32.1214 44.9478 31.7402 46.1677 31.4226C46.8594 28.1958 47.5385 25.0578 48.2428 21.7674C47.3499 22.1359 46.5324 22.4535 45.7275 22.7965C42.596 24.1304 39.5274 25.6549 36.3204 26.7348C34.0316 27.497 32.5853 28.7802 32.0068 31.0542C30.9504 35.1577 29.24 39.007 27.5422 42.8564C27.429 43.1105 27.2278 43.3646 27.2404 43.606C27.2655 43.9236 27.4542 44.2412 27.5799 44.5588C25.6683 45.9435 25.3288 48.0778 24.9892 50.2757C25.7815 47.7221 28.1584 47.0869 30.0071 45.8419C32.3338 44.2666 34.7233 42.7675 37.2762 41.1159H34.6226C34.7358 40.8873 34.849 40.6459 34.9622 40.4172L34.9496 40.4299ZM32.7739 60.7694C33.1009 60.5153 33.6165 59.9817 33.7423 60.0579C35.3269 61.0615 36.748 59.9563 38.2446 59.8038C38.8483 59.7403 39.4645 59.8801 40.3071 59.9436C38.3327 62.5479 34.5472 62.5352 33.7549 66.1305C36.1695 66.2576 38.2949 66.4227 40.4203 66.4608C41.351 66.4735 42.0678 66.0162 42.1559 64.6822C40.5461 65.0888 39.1501 65.4318 37.5026 65.8383C39.0998 63.3864 41.4264 62.0398 44.2938 61.8619C42.9482 62.5988 41.8289 63.2213 40.4329 63.9835C41.8918 64.5171 43.4009 63.6913 44.1178 65.2412C44.1178 65.2666 45.4257 64.949 45.5012 64.6441C45.8281 63.2086 45.9413 61.7095 46.1551 60.0325C41.766 59.2194 37.6661 58.4572 33.365 57.6568C33.1386 58.9272 32.9626 59.8546 32.7991 60.7821C31.2648 59.8546 30.4096 60.9599 29.5293 62.0144L32.7865 60.7948L32.7739 60.7694ZM29.2651 28.2339C26.5361 27.4208 24.5868 28.7166 23.0902 30.7874C22.0966 32.1595 21.1786 33.6713 20.6126 35.2593C20.0593 36.8473 19.8078 38.6132 19.77 40.3156C19.7323 41.9798 20.1222 43.6441 20.336 45.321C22.3356 46.1849 20.2731 48.6495 21.996 49.6659C22.3104 49.8564 22.3859 50.4535 22.562 50.8601C22.7632 50.733 22.9644 50.606 23.1782 50.4789C26.033 42.831 28.8753 35.1831 31.9816 26.8872C30.9252 27.7765 29.5544 26.0487 29.1897 28.272L29.2526 28.2339H29.2651ZM56.9833 43.1613C55.4364 42.8183 53.8895 42.4753 51.9779 42.0433C51.3491 42.7294 50.5568 43.606 49.7645 44.4699C48.9093 43.7838 49.601 43.2248 49.9909 42.6786C50.3807 42.1323 50.8084 41.6241 51.2234 41.0905C49.0728 39.9853 48.1548 41.713 46.96 42.704C46.1677 42.2339 45.4886 41.8274 44.9352 41.4971C43.8034 41.8909 42.7972 42.2339 41.7157 42.615V45.7276C46.2557 47.8746 50.5191 45.3337 55.1597 45.3464C54.9459 46.4898 54.795 47.2648 54.6567 48.0397C54.5184 48.0143 54.3926 48.0016 54.2542 47.9762C54.1285 47.4045 53.9901 46.8455 53.8518 46.2103C51.7516 46.6677 49.7897 47.0869 47.5511 47.5697C48.444 48.0143 49.0351 48.3192 49.6387 48.6114C48.6201 48.9036 47.2618 49.0942 46.872 48.5733C45.7778 47.0361 44.1303 47.5062 42.7972 46.9853C42.596 46.9091 42.2942 47.0996 41.9421 47.1886C41.7408 47.8365 41.527 48.4971 41.3132 49.1577C41.1246 49.1323 40.9485 49.1069 40.7599 49.0815C40.6718 47.0107 40.5838 44.9399 40.4832 42.8183C37.4523 44.1777 38.6848 46.2484 39.7789 48.7512C37.9428 47.2648 36.5468 46.4771 34.434 47.0615C35.3521 48.2938 36.1318 49.3356 36.9115 50.3773C36.7983 50.4789 36.6726 50.5679 36.5594 50.6695C35.6036 49.7929 34.6604 48.929 33.6794 48.027C33.3524 48.6876 33.0632 49.272 32.7488 49.9327C32.2206 49.3483 31.8181 48.9163 31.2899 48.3446C29.9065 49.3356 28.6363 50.2376 26.8002 51.5461C28.1962 51.8129 28.9256 51.978 29.6676 52.0924C35.2263 52.9309 40.7976 53.7439 46.3563 54.6078C46.8594 54.684 47.2996 55.0779 47.8026 55.2557C49.6765 55.9545 51.6258 55.3955 53.135 53.6169C52.4181 53.1214 51.7138 52.6387 50.8964 52.0924C50.6449 53.0071 50.4688 53.6931 50.1292 54.9254C49.4375 52.7403 47.9409 52.969 46.7085 52.7657C45.388 52.5497 44.0297 52.5624 42.6715 52.4862C42.5583 51.5461 42.9859 51.165 43.9291 51.3174C45.4005 51.5588 46.8594 51.7875 48.3811 52.0289C48.1925 51.5588 48.0541 51.1904 47.6391 50.1613C50.2298 51.3301 52.2295 52.2321 54.6064 53.2993C56.3168 51.7113 58.1781 49.7675 60.2657 48.0905C62.2905 46.4517 64.9567 45.7022 66.994 43.4662C66.0382 43.1359 65.3969 42.8691 64.7177 42.6913C62.2151 42.0052 59.2973 42.615 57.3229 40.2648C57.2348 40.1504 56.9833 40.1885 56.8072 40.1504C55.6879 39.8582 54.5938 39.4898 53.4619 39.2865C51.6509 38.9562 49.8148 38.6894 48.1296 39.8074C47.0858 39.6804 46.3186 39.8582 46.8217 41.4208C47.2367 40.8619 47.6517 40.3029 48.0667 39.7439C51.0347 39.8328 51.0221 39.8455 54.38 41.9036C55.1849 42.3991 56.0653 42.7802 56.9079 43.2121L56.9707 43.1613H56.9833ZM24.964 60.7821C25.8695 59.0162 26.6618 57.4536 27.4542 55.9036C28.1836 55.3955 29.001 54.8365 30.1832 54.0107C27.7183 53.4009 26.1336 54.2902 24.549 55.0906C24.222 55.2557 23.9202 55.7893 23.8951 56.1704C23.6687 60.1214 23.4926 64.0724 23.304 68.1759C25.3413 68.5697 27.2655 68.9382 29.1771 69.3066C31.8936 69.8402 34.5849 70.4754 37.314 70.9073C40.3952 71.4028 43.5141 71.6569 46.5953 72.1269C48.683 72.4445 49.6136 71.6569 49.4753 69.548C49.3998 68.3156 49.4753 67.0579 49.5256 65.8129C49.6136 62.9672 49.7268 60.1214 49.8148 57.5171C45.4508 56.6024 41.1749 55.7258 36.9115 54.8111C34.7987 54.3537 34.7233 54.3537 33.7423 56.7167C35.8928 57.0724 37.9931 57.3773 40.0808 57.7712C42.0049 58.1269 43.9165 58.5334 45.8281 58.9908C47.1864 59.3211 47.6517 60.2739 47.4756 61.6586C47.2618 63.4499 47.1612 65.2666 46.96 67.0706C46.8846 67.744 46.6582 68.4173 46.4192 69.4463C42.7972 68.9763 39.301 68.7476 35.918 68.0235C32.5979 67.312 28.9633 67.7948 26.1211 65.6605C26.2594 64.0216 26.3978 62.4717 26.5235 60.9345C25.857 60.871 25.5174 60.8329 24.964 60.7821ZM67.5097 49.7167C67.233 49.7167 66.9563 49.7167 66.667 49.7167C66.1011 53.439 65.5478 57.1614 65.0573 60.4009C63.6236 61.1632 62.5672 61.5824 61.6491 62.2176C59.4357 63.7548 57.3103 65.4318 55.0969 66.969C53.8518 67.8329 53.2607 67.5026 52.8583 66.0416C52.1037 63.3356 53.135 60.9218 53.9021 58.4191C54.2417 57.3011 54.8076 56.5388 55.7382 55.8782C58.4547 53.9599 61.0957 51.9272 63.8374 50.047C65.0573 49.2085 66.4281 48.6114 68.1762 47.6586C68.2139 47.2013 68.3145 46.223 68.4026 45.2575C68.2139 45.1559 68.0253 45.0542 67.8241 44.9526C66.9689 45.537 66.0634 46.0579 65.2585 46.7058C64.592 47.2394 64.1392 48.0524 63.4475 48.5479C60.2531 50.8474 57.0839 53.2103 53.7512 55.2938C51.9276 56.4245 51.0473 57.7458 51.0347 59.8546C51.0096 63.0053 50.8712 66.1432 50.7958 69.2939C50.7706 70.6151 50.7958 71.9364 50.7958 73.6895C57.4486 69.891 62.1522 64.263 67.5223 60.3882V49.7294L67.5097 49.7167ZM49.9909 36.2629C51.0221 33.1758 51.9276 30.2157 52.9966 27.3319C54.0782 24.4226 56.1281 21.8818 56.5809 18.4135C55.5748 19.0614 54.9208 19.6712 54.1411 19.9634C52.9715 20.3954 52.1666 21.0687 51.651 22.2121C51.324 22.9362 50.8964 23.6731 50.343 24.2193C48.6075 25.909 48.3057 28.2212 48.0038 30.3682C47.702 32.4644 48.3182 34.5479 50.0035 36.2756L49.9909 36.2629ZM32.3715 24.8037C33.6543 25.909 34.6981 26.3282 36.0563 25.7311C40.0556 23.9526 44.1429 22.4026 48.1422 20.6495C50.5065 19.6077 53.1475 19.0868 55.0969 17.0669C53.5751 17.105 52.1037 17.3464 50.6323 17.6004C49.6891 17.7656 48.3182 17.6259 47.9158 18.1975C47.1738 19.252 46.1803 19.2774 45.2496 19.6458C40.9611 21.3736 36.66 23.0887 32.3715 24.8037ZM27.2907 64.4917C28.7873 65.1142 30.2209 66.0543 31.4031 65.4064C33.4153 64.3265 35.1257 62.7004 36.9744 61.3029C36.2576 61.0743 35.7419 61.1505 35.2766 61.3665C33.9813 61.9508 32.3715 62.2812 31.5163 63.2721C30.309 64.6823 28.8501 63.7421 27.2907 64.4917ZM63.7745 56.0688C63.0325 57.5552 60.9826 58.3428 61.6491 60.6042C63.4433 59.4015 64.1518 57.8897 63.7745 56.0688ZM33.6668 54.5062C31.7427 53.9599 30.5731 54.3283 29.6676 55.7893C30.7114 56.0307 31.6169 56.2467 32.6985 56.488C32.9877 55.8909 33.2644 55.3065 33.6543 54.4935L33.6668 54.5062ZM36.9618 42.8691C36.0186 43.9236 34.4214 43.8092 34.2076 45.6132C35.7294 45.2956 36.987 45.0161 36.9618 42.8691ZM42.2313 67.3374C44.1848 67.9811 45.1993 67.6804 45.2748 66.4354C44.4196 66.6895 43.6021 66.9309 42.2313 67.3374ZM28.9256 59.1813C29.0765 59.3719 29.2148 59.5497 29.3658 59.7403C30.2084 59.283 31.0636 58.8383 31.9062 58.381C31.7804 58.165 31.6546 57.9363 31.5289 57.7203C30.6611 58.2031 29.7933 58.6986 28.9256 59.1813ZM32.3841 46.8455C32.2331 46.6296 32.0948 46.4136 31.9439 46.1976C31.2648 46.6296 30.5982 47.0615 29.9191 47.4935C30.0197 47.6586 30.1078 47.8365 30.2084 48.0016C30.9378 47.6205 31.6546 47.2394 32.3841 46.8582V46.8455ZM56.4174 63.9708C56.5934 64.0851 56.7821 64.1868 56.9581 64.3011C57.2474 63.8692 57.5367 63.4372 57.8259 63.0053C57.675 62.9037 57.5241 62.802 57.3732 62.6877C57.0462 63.1196 56.7318 63.5389 56.4048 63.9708H56.4174Z" fill="#643617"/>
</svg>
