<svg width="18" height="9" viewBox="0 0 18 9" fill="none" xmlns="http://www.w3.org/2000/svg">
<path fill-rule="evenodd" clip-rule="evenodd" d="M9.97245 8.6564C9.71892 8.87641 9.3751 9 9.01661 9C8.65812 9 8.31431 8.87641 8.06078 8.6564L0.412739 2.01766C0.283611 1.90941 0.180616 1.77991 0.10976 1.63673C0.038906 1.49356 0.00161165 1.33956 5.14467e-05 1.18374C-0.00150876 1.02792 0.0326995 0.873387 0.100676 0.729163C0.168653 0.584939 0.269043 0.45391 0.395983 0.343722C0.522921 0.233535 0.673868 0.146396 0.840019 0.0873888C1.00617 0.0283819 1.1842 -0.00131048 1.36371 4.35824e-05C1.54322 0.00139765 1.72063 0.0337714 1.88557 0.0952757C2.05052 0.15678 2.1997 0.246183 2.32441 0.358268L9.01661 6.16732L15.7088 0.358269C15.9638 0.144498 16.3053 0.0262117 16.6598 0.0288855C17.0143 0.0315593 17.3534 0.15498 17.604 0.372564C17.8547 0.590149 17.9969 0.884489 17.9999 1.19219C18.003 1.49989 17.8668 1.79633 17.6205 2.01766L9.97245 8.6564Z" fill="white"/>
</svg>
